<svg xmlns:xlink="http://www.w3.org/1999/xlink" width="583.350937pt" height="214.603437pt" viewBox="0 0 583.350937 214.603437" xmlns="http://www.w3.org/2000/svg" version="1.1">
 <metadata>
  <rdf:RDF xmlns:dc="http://purl.org/dc/elements/1.1/" xmlns:cc="http://creativecommons.org/ns#" xmlns:rdf="http://www.w3.org/1999/02/22-rdf-syntax-ns#">
   <cc:Work>
    <dc:type rdf:resource="http://purl.org/dc/dcmitype/StillImage"/>
    <dc:date>2026-07-21T15:55:19.862590</dc:date>
    <dc:format>image/svg+xml</dc:format>
    <dc:creator>
     <cc:Agent>
      <dc:title>Matplotlib v3.10.9, https://matplotlib.org/</dc:title>
     </cc:Agent>
    </dc:creator>
   </cc:Work>
  </rdf:RDF>
 </metadata>
 <defs>
  <style type="text/css">*{stroke-linejoin: round; stroke-linecap: butt}</style>
 </defs>
 <g id="figure_1">
  <g id="patch_1">
   <path d="M 0 214.603437 
L 583.350937 214.603437 
L 583.350937 0 
L 0 0 
L 0 214.603437 
z
" style="fill: none"/>
  </g>
  <g id="axes_1">
   <g id="patch_2">
    <path d="M 14.992969 181.418437 
L 568.357969 181.418437 
L 568.357969 20.798437 
L 14.992969 20.798437 
L 14.992969 181.418437 
z
" style="fill: none"/>
   </g>
   <g id="matplotlib.axis_1">
    <g id="xtick_1">
     <g id="line2d_1">
      <defs>
       <path id="m8878b9027d" d="M 0 0 
L 0 3 
" style="stroke: currentColor; stroke-width: 0.8"/>
      </defs>
      <g>
       <use xlink:href="#m8878b9027d" x="14.992969" y="181.418437" style="stroke: currentColor; stroke-width: 0.8"/>
      </g>
     </g>
     <g id="text_1">
      <!-- 0.00 -->
      <g transform="translate(7.2 193.237344) scale(0.07 -0.07)">
       <defs>
        <path id="DejaVuSans-30" d="M 2034 4250 
Q 1547 4250 1301 3770 
Q 1056 3291 1056 2328 
Q 1056 1369 1301 889 
Q 1547 409 2034 409 
Q 2525 409 2770 889 
Q 3016 1369 3016 2328 
Q 3016 3291 2770 3770 
Q 2525 4250 2034 4250 
z
M 2034 4750 
Q 2819 4750 3233 4129 
Q 3647 3509 3647 2328 
Q 3647 1150 3233 529 
Q 2819 -91 2034 -91 
Q 1250 -91 836 529 
Q 422 1150 422 2328 
Q 422 3509 836 4129 
Q 1250 4750 2034 4750 
z
" transform="scale(0.015625)"/>
        <path id="DejaVuSans-2e" d="M 684 794 
L 1344 794 
L 1344 0 
L 684 0 
L 684 794 
z
" transform="scale(0.015625)"/>
       </defs>
       <use xlink:href="#DejaVuSans-30"/>
       <use xlink:href="#DejaVuSans-2e" transform="translate(63.623047 0)"/>
       <use xlink:href="#DejaVuSans-30" transform="translate(95.410156 0)"/>
       <use xlink:href="#DejaVuSans-30" transform="translate(159.033203 0)"/>
      </g>
     </g>
    </g>
    <g id="xtick_2">
     <g id="line2d_2">
      <g>
       <use xlink:href="#m8878b9027d" x="84.163594" y="181.418437" style="stroke: currentColor; stroke-width: 0.8"/>
      </g>
     </g>
     <g id="text_2">
      <!-- 0.83 -->
      <g transform="translate(76.370625 193.237344) scale(0.07 -0.07)">
       <defs>
        <path id="DejaVuSans-38" d="M 2034 2216 
Q 1584 2216 1326 1975 
Q 1069 1734 1069 1313 
Q 1069 891 1326 650 
Q 1584 409 2034 409 
Q 2484 409 2743 651 
Q 3003 894 3003 1313 
Q 3003 1734 2745 1975 
Q 2488 2216 2034 2216 
z
M 1403 2484 
Q 997 2584 770 2862 
Q 544 3141 544 3541 
Q 544 4100 942 4425 
Q 1341 4750 2034 4750 
Q 2731 4750 3128 4425 
Q 3525 4100 3525 3541 
Q 3525 3141 3298 2862 
Q 3072 2584 2669 2484 
Q 3125 2378 3379 2068 
Q 3634 1759 3634 1313 
Q 3634 634 3220 271 
Q 2806 -91 2034 -91 
Q 1263 -91 848 271 
Q 434 634 434 1313 
Q 434 1759 690 2068 
Q 947 2378 1403 2484 
z
M 1172 3481 
Q 1172 3119 1398 2916 
Q 1625 2713 2034 2713 
Q 2441 2713 2670 2916 
Q 2900 3119 2900 3481 
Q 2900 3844 2670 4047 
Q 2441 4250 2034 4250 
Q 1625 4250 1398 4047 
Q 1172 3844 1172 3481 
z
" transform="scale(0.015625)"/>
        <path id="DejaVuSans-33" d="M 2597 2516 
Q 3050 2419 3304 2112 
Q 3559 1806 3559 1356 
Q 3559 666 3084 287 
Q 2609 -91 1734 -91 
Q 1441 -91 1130 -33 
Q 819 25 488 141 
L 488 750 
Q 750 597 1062 519 
Q 1375 441 1716 441 
Q 2309 441 2620 675 
Q 2931 909 2931 1356 
Q 2931 1769 2642 2001 
Q 2353 2234 1838 2234 
L 1294 2234 
L 1294 2753 
L 1863 2753 
Q 2328 2753 2575 2939 
Q 2822 3125 2822 3475 
Q 2822 3834 2567 4026 
Q 2313 4219 1838 4219 
Q 1578 4219 1281 4162 
Q 984 4106 628 3988 
L 628 4550 
Q 988 4650 1302 4700 
Q 1616 4750 1894 4750 
Q 2613 4750 3031 4423 
Q 3450 4097 3450 3541 
Q 3450 3153 3228 2886 
Q 3006 2619 2597 2516 
z
" transform="scale(0.015625)"/>
       </defs>
       <use xlink:href="#DejaVuSans-30"/>
       <use xlink:href="#DejaVuSans-2e" transform="translate(63.623047 0)"/>
       <use xlink:href="#DejaVuSans-38" transform="translate(95.410156 0)"/>
       <use xlink:href="#DejaVuSans-33" transform="translate(159.033203 0)"/>
      </g>
     </g>
    </g>
    <g id="xtick_3">
     <g id="line2d_3">
      <g>
       <use xlink:href="#m8878b9027d" x="153.334219" y="181.418437" style="stroke: currentColor; stroke-width: 0.8"/>
      </g>
     </g>
     <g id="text_3">
      <!-- 1.67 -->
      <g transform="translate(145.54125 193.237344) scale(0.07 -0.07)">
       <defs>
        <path id="DejaVuSans-31" d="M 794 531 
L 1825 531 
L 1825 4091 
L 703 3866 
L 703 4441 
L 1819 4666 
L 2450 4666 
L 2450 531 
L 3481 531 
L 3481 0 
L 794 0 
L 794 531 
z
" transform="scale(0.015625)"/>
        <path id="DejaVuSans-36" d="M 2113 2584 
Q 1688 2584 1439 2293 
Q 1191 2003 1191 1497 
Q 1191 994 1439 701 
Q 1688 409 2113 409 
Q 2538 409 2786 701 
Q 3034 994 3034 1497 
Q 3034 2003 2786 2293 
Q 2538 2584 2113 2584 
z
M 3366 4563 
L 3366 3988 
Q 3128 4100 2886 4159 
Q 2644 4219 2406 4219 
Q 1781 4219 1451 3797 
Q 1122 3375 1075 2522 
Q 1259 2794 1537 2939 
Q 1816 3084 2150 3084 
Q 2853 3084 3261 2657 
Q 3669 2231 3669 1497 
Q 3669 778 3244 343 
Q 2819 -91 2113 -91 
Q 1303 -91 875 529 
Q 447 1150 447 2328 
Q 447 3434 972 4092 
Q 1497 4750 2381 4750 
Q 2619 4750 2861 4703 
Q 3103 4656 3366 4563 
z
" transform="scale(0.015625)"/>
        <path id="DejaVuSans-37" d="M 525 4666 
L 3525 4666 
L 3525 4397 
L 1831 0 
L 1172 0 
L 2766 4134 
L 525 4134 
L 525 4666 
z
" transform="scale(0.015625)"/>
       </defs>
       <use xlink:href="#DejaVuSans-31"/>
       <use xlink:href="#DejaVuSans-2e" transform="translate(63.623047 0)"/>
       <use xlink:href="#DejaVuSans-36" transform="translate(95.410156 0)"/>
       <use xlink:href="#DejaVuSans-37" transform="translate(159.033203 0)"/>
      </g>
     </g>
    </g>
    <g id="xtick_4">
     <g id="line2d_4">
      <g>
       <use xlink:href="#m8878b9027d" x="222.504844" y="181.418437" style="stroke: currentColor; stroke-width: 0.8"/>
      </g>
     </g>
     <g id="text_4">
      <!-- 2.50 -->
      <g transform="translate(214.711875 193.237344) scale(0.07 -0.07)">
       <defs>
        <path id="DejaVuSans-32" d="M 1228 531 
L 3431 531 
L 3431 0 
L 469 0 
L 469 531 
Q 828 903 1448 1529 
Q 2069 2156 2228 2338 
Q 2531 2678 2651 2914 
Q 2772 3150 2772 3378 
Q 2772 3750 2511 3984 
Q 2250 4219 1831 4219 
Q 1534 4219 1204 4116 
Q 875 4013 500 3803 
L 500 4441 
Q 881 4594 1212 4672 
Q 1544 4750 1819 4750 
Q 2544 4750 2975 4387 
Q 3406 4025 3406 3419 
Q 3406 3131 3298 2873 
Q 3191 2616 2906 2266 
Q 2828 2175 2409 1742 
Q 1991 1309 1228 531 
z
" transform="scale(0.015625)"/>
        <path id="DejaVuSans-35" d="M 691 4666 
L 3169 4666 
L 3169 4134 
L 1269 4134 
L 1269 2991 
Q 1406 3038 1543 3061 
Q 1681 3084 1819 3084 
Q 2600 3084 3056 2656 
Q 3513 2228 3513 1497 
Q 3513 744 3044 326 
Q 2575 -91 1722 -91 
Q 1428 -91 1123 -41 
Q 819 9 494 109 
L 494 744 
Q 775 591 1075 516 
Q 1375 441 1709 441 
Q 2250 441 2565 725 
Q 2881 1009 2881 1497 
Q 2881 1984 2565 2268 
Q 2250 2553 1709 2553 
Q 1456 2553 1204 2497 
Q 953 2441 691 2322 
L 691 4666 
z
" transform="scale(0.015625)"/>
       </defs>
       <use xlink:href="#DejaVuSans-32"/>
       <use xlink:href="#DejaVuSans-2e" transform="translate(63.623047 0)"/>
       <use xlink:href="#DejaVuSans-35" transform="translate(95.410156 0)"/>
       <use xlink:href="#DejaVuSans-30" transform="translate(159.033203 0)"/>
      </g>
     </g>
    </g>
    <g id="xtick_5">
     <g id="line2d_5">
      <g>
       <use xlink:href="#m8878b9027d" x="291.675469" y="181.418437" style="stroke: currentColor; stroke-width: 0.8"/>
      </g>
     </g>
     <g id="text_5">
      <!-- 3.33 -->
      <g transform="translate(283.8825 193.237344) scale(0.07 -0.07)">
       <use xlink:href="#DejaVuSans-33"/>
       <use xlink:href="#DejaVuSans-2e" transform="translate(63.623047 0)"/>
       <use xlink:href="#DejaVuSans-33" transform="translate(95.410156 0)"/>
       <use xlink:href="#DejaVuSans-33" transform="translate(159.033203 0)"/>
      </g>
     </g>
    </g>
    <g id="xtick_6">
     <g id="line2d_6">
      <g>
       <use xlink:href="#m8878b9027d" x="360.846094" y="181.418437" style="stroke: currentColor; stroke-width: 0.8"/>
      </g>
     </g>
     <g id="text_6">
      <!-- 4.17 -->
      <g transform="translate(353.053125 193.237344) scale(0.07 -0.07)">
       <defs>
        <path id="DejaVuSans-34" d="M 2419 4116 
L 825 1625 
L 2419 1625 
L 2419 4116 
z
M 2253 4666 
L 3047 4666 
L 3047 1625 
L 3713 1625 
L 3713 1100 
L 3047 1100 
L 3047 0 
L 2419 0 
L 2419 1100 
L 313 1100 
L 313 1709 
L 2253 4666 
z
" transform="scale(0.015625)"/>
       </defs>
       <use xlink:href="#DejaVuSans-34"/>
       <use xlink:href="#DejaVuSans-2e" transform="translate(63.623047 0)"/>
       <use xlink:href="#DejaVuSans-31" transform="translate(95.410156 0)"/>
       <use xlink:href="#DejaVuSans-37" transform="translate(159.033203 0)"/>
      </g>
     </g>
    </g>
    <g id="xtick_7">
     <g id="line2d_7">
      <g>
       <use xlink:href="#m8878b9027d" x="430.016719" y="181.418437" style="stroke: currentColor; stroke-width: 0.8"/>
      </g>
     </g>
     <g id="text_7">
      <!-- 5.00 -->
      <g transform="translate(422.22375 193.237344) scale(0.07 -0.07)">
       <use xlink:href="#DejaVuSans-35"/>
       <use xlink:href="#DejaVuSans-2e" transform="translate(63.623047 0)"/>
       <use xlink:href="#DejaVuSans-30" transform="translate(95.410156 0)"/>
       <use xlink:href="#DejaVuSans-30" transform="translate(159.033203 0)"/>
      </g>
     </g>
    </g>
    <g id="xtick_8">
     <g id="line2d_8">
      <g>
       <use xlink:href="#m8878b9027d" x="499.187344" y="181.418437" style="stroke: currentColor; stroke-width: 0.8"/>
      </g>
     </g>
     <g id="text_8">
      <!-- 5.83 -->
      <g transform="translate(491.394375 193.237344) scale(0.07 -0.07)">
       <use xlink:href="#DejaVuSans-35"/>
       <use xlink:href="#DejaVuSans-2e" transform="translate(63.623047 0)"/>
       <use xlink:href="#DejaVuSans-38" transform="translate(95.410156 0)"/>
       <use xlink:href="#DejaVuSans-33" transform="translate(159.033203 0)"/>
      </g>
     </g>
    </g>
    <g id="xtick_9">
     <g id="line2d_9">
      <g>
       <use xlink:href="#m8878b9027d" x="568.357969" y="181.418437" style="stroke: currentColor; stroke-width: 0.8"/>
      </g>
     </g>
     <g id="text_9">
      <!-- 6.67 -->
      <g transform="translate(560.565 193.237344) scale(0.07 -0.07)">
       <use xlink:href="#DejaVuSans-36"/>
       <use xlink:href="#DejaVuSans-2e" transform="translate(63.623047 0)"/>
       <use xlink:href="#DejaVuSans-36" transform="translate(95.410156 0)"/>
       <use xlink:href="#DejaVuSans-37" transform="translate(159.033203 0)"/>
      </g>
     </g>
    </g>
    <g id="text_10">
     <!-- time (ms) -->
     <g transform="translate(269.839922 205.531719) scale(0.09 -0.09)">
      <defs>
       <path id="DejaVuSans-74" d="M 1172 4494 
L 1172 3500 
L 2356 3500 
L 2356 3053 
L 1172 3053 
L 1172 1153 
Q 1172 725 1289 603 
Q 1406 481 1766 481 
L 2356 481 
L 2356 0 
L 1766 0 
Q 1100 0 847 248 
Q 594 497 594 1153 
L 594 3053 
L 172 3053 
L 172 3500 
L 594 3500 
L 594 4494 
L 1172 4494 
z
" transform="scale(0.015625)"/>
       <path id="DejaVuSans-69" d="M 603 3500 
L 1178 3500 
L 1178 0 
L 603 0 
L 603 3500 
z
M 603 4863 
L 1178 4863 
L 1178 4134 
L 603 4134 
L 603 4863 
z
" transform="scale(0.015625)"/>
       <path id="DejaVuSans-6d" d="M 3328 2828 
Q 3544 3216 3844 3400 
Q 4144 3584 4550 3584 
Q 5097 3584 5394 3201 
Q 5691 2819 5691 2113 
L 5691 0 
L 5113 0 
L 5113 2094 
Q 5113 2597 4934 2840 
Q 4756 3084 4391 3084 
Q 3944 3084 3684 2787 
Q 3425 2491 3425 1978 
L 3425 0 
L 2847 0 
L 2847 2094 
Q 2847 2600 2669 2842 
Q 2491 3084 2119 3084 
Q 1678 3084 1418 2786 
Q 1159 2488 1159 1978 
L 1159 0 
L 581 0 
L 581 3500 
L 1159 3500 
L 1159 2956 
Q 1356 3278 1631 3431 
Q 1906 3584 2284 3584 
Q 2666 3584 2933 3390 
Q 3200 3197 3328 2828 
z
" transform="scale(0.015625)"/>
       <path id="DejaVuSans-65" d="M 3597 1894 
L 3597 1613 
L 953 1613 
Q 991 1019 1311 708 
Q 1631 397 2203 397 
Q 2534 397 2845 478 
Q 3156 559 3463 722 
L 3463 178 
Q 3153 47 2828 -22 
Q 2503 -91 2169 -91 
Q 1331 -91 842 396 
Q 353 884 353 1716 
Q 353 2575 817 3079 
Q 1281 3584 2069 3584 
Q 2775 3584 3186 3129 
Q 3597 2675 3597 1894 
z
M 3022 2063 
Q 3016 2534 2758 2815 
Q 2500 3097 2075 3097 
Q 1594 3097 1305 2825 
Q 1016 2553 972 2059 
L 3022 2063 
z
" transform="scale(0.015625)"/>
       <path id="DejaVuSans-20" transform="scale(0.015625)"/>
       <path id="DejaVuSans-28" d="M 1984 4856 
Q 1566 4138 1362 3434 
Q 1159 2731 1159 2009 
Q 1159 1288 1364 580 
Q 1569 -128 1984 -844 
L 1484 -844 
Q 1016 -109 783 600 
Q 550 1309 550 2009 
Q 550 2706 781 3412 
Q 1013 4119 1484 4856 
L 1984 4856 
z
" transform="scale(0.015625)"/>
       <path id="DejaVuSans-73" d="M 2834 3397 
L 2834 2853 
Q 2591 2978 2328 3040 
Q 2066 3103 1784 3103 
Q 1356 3103 1142 2972 
Q 928 2841 928 2578 
Q 928 2378 1081 2264 
Q 1234 2150 1697 2047 
L 1894 2003 
Q 2506 1872 2764 1633 
Q 3022 1394 3022 966 
Q 3022 478 2636 193 
Q 2250 -91 1575 -91 
Q 1294 -91 989 -36 
Q 684 19 347 128 
L 347 722 
Q 666 556 975 473 
Q 1284 391 1588 391 
Q 1994 391 2212 530 
Q 2431 669 2431 922 
Q 2431 1156 2273 1281 
Q 2116 1406 1581 1522 
L 1381 1569 
Q 847 1681 609 1914 
Q 372 2147 372 2553 
Q 372 3047 722 3315 
Q 1072 3584 1716 3584 
Q 2034 3584 2315 3537 
Q 2597 3491 2834 3397 
z
" transform="scale(0.015625)"/>
       <path id="DejaVuSans-29" d="M 513 4856 
L 1013 4856 
Q 1481 4119 1714 3412 
Q 1947 2706 1947 2009 
Q 1947 1309 1714 600 
Q 1481 -109 1013 -844 
L 513 -844 
Q 928 -128 1133 580 
Q 1338 1288 1338 2009 
Q 1338 2731 1133 3434 
Q 928 4138 513 4856 
z
" transform="scale(0.015625)"/>
      </defs>
      <use xlink:href="#DejaVuSans-74"/>
      <use xlink:href="#DejaVuSans-69" transform="translate(39.208984 0)"/>
      <use xlink:href="#DejaVuSans-6d" transform="translate(66.992188 0)"/>
      <use xlink:href="#DejaVuSans-65" transform="translate(164.404297 0)"/>
      <use xlink:href="#DejaVuSans-20" transform="translate(225.927734 0)"/>
      <use xlink:href="#DejaVuSans-28" transform="translate(257.714844 0)"/>
      <use xlink:href="#DejaVuSans-6d" transform="translate(296.728516 0)"/>
      <use xlink:href="#DejaVuSans-73" transform="translate(394.140625 0)"/>
      <use xlink:href="#DejaVuSans-29" transform="translate(446.240234 0)"/>
     </g>
    </g>
   </g>
   <g id="matplotlib.axis_2"/>
   <g id="line2d_10">
    <path d="M 14.992969 104.789907 
L 18.728183 93.958404 
L 21.218325 87.430532 
L 22.87842 83.586202 
L 24.538515 80.251162 
L 25.783586 78.130125 
L 27.028658 76.365515 
L 28.273729 74.97988 
L 29.5188 73.990926 
L 30.348848 73.558455 
L 31.178895 73.310467 
L 32.008943 73.248373 
L 32.83899 73.372523 
L 33.669038 73.682214 
L 34.499085 74.175685 
L 35.744156 75.254064 
L 36.989228 76.725619 
L 38.234299 78.571549 
L 39.47937 80.768267 
L 41.139465 84.193779 
L 42.79956 88.114793 
L 44.874679 93.576373 
L 47.779845 101.917004 
L 53.590178 118.854445 
L 55.665296 124.279532 
L 57.740415 129.057955 
L 59.40051 132.300415 
L 60.645581 134.344433 
L 61.890653 136.026608 
L 63.135724 137.325446 
L 64.380795 138.224351 
L 65.210843 138.595549 
L 66.04089 138.781677 
L 66.870937 138.781677 
L 67.700985 138.595549 
L 68.531032 138.224351 
L 69.36108 137.670192 
L 70.606151 136.50307 
L 71.851223 134.946523 
L 73.096294 133.020439 
L 74.756389 129.92067 
L 76.416484 126.278562 
L 78.491602 121.090217 
L 80.981745 114.177329 
L 89.697244 89.162258 
L 91.772363 84.193779 
L 93.432458 80.768267 
L 95.092553 77.916002 
L 96.337624 76.192474 
L 97.582695 74.850132 
L 98.827766 73.906128 
L 99.657814 73.504261 
L 100.487861 73.287186 
L 101.317909 73.256137 
L 102.147956 73.411288 
L 102.978004 73.751759 
L 103.808051 74.275616 
L 105.053123 75.398455 
L 106.298194 76.912626 
L 107.543265 78.798782 
L 108.788336 81.032822 
L 110.448431 84.502763 
L 112.108526 88.461193 
L 114.183645 93.958404 
L 117.088811 102.32599 
L 122.899144 119.232485 
L 124.974262 124.620221 
L 126.634358 128.464551 
L 128.294453 131.79959 
L 129.539524 133.920628 
L 130.784595 135.685238 
L 132.029666 137.070872 
L 133.274738 138.059826 
L 134.104785 138.492298 
L 134.934832 138.740285 
L 135.76488 138.80238 
L 136.594928 138.678229 
L 137.424975 138.368539 
L 138.255023 137.875068 
L 139.500094 136.796689 
L 140.745165 135.325133 
L 141.990236 133.479204 
L 143.235308 131.282486 
L 144.895403 127.856973 
L 146.555498 123.93596 
L 148.630616 118.47438 
L 151.535783 110.133749 
L 153.195877 105.201622 
L 155.68602 92.068505 
L 157.346115 84.502763 
L 158.591186 79.874 
L 159.421234 77.400189 
L 160.251281 75.472466 
L 161.081329 74.127604 
L 161.911376 73.391261 
L 162.3264 73.256137 
L 162.741424 73.277484 
L 163.156448 73.455203 
L 163.571471 73.788444 
L 164.401519 74.914392 
L 165.231566 76.633849 
L 166.061614 78.914013 
L 167.306685 83.287704 
L 168.551756 88.635436 
L 170.211851 96.880162 
L 175.60716 124.957974 
L 176.852231 130.061187 
L 178.097303 134.13475 
L 178.92735 136.190201 
L 179.757398 137.670192 
L 180.587445 138.546491 
L 181.002469 138.752572 
L 181.417493 138.80238 
L 181.832516 138.695679 
L 182.24754 138.432977 
L 183.077588 137.445329 
L 183.907635 135.858279 
L 184.737683 133.702101 
L 185.56773 131.017931 
L 186.812801 126.116219 
L 188.472896 118.283606 
L 190.963039 104.995744 
L 193.453181 91.882423 
L 195.113276 84.347843 
L 196.358348 79.750338 
L 197.188395 77.300401 
L 198.018443 75.398455 
L 198.84849 74.080783 
L 199.678538 73.372523 
L 200.093561 73.251608 
L 200.508585 73.287186 
L 200.923609 73.47909 
L 201.338632 73.826401 
L 202.16868 74.97988 
L 202.998728 76.725619 
L 203.828775 79.030314 
L 205.073846 83.436507 
L 206.318917 88.810366 
L 207.979013 97.078123 
L 213.374321 125.125732 
L 214.619392 130.200755 
L 215.864464 134.240149 
L 216.694511 136.270212 
L 217.524559 137.72329 
L 218.354606 138.571663 
L 218.76963 138.763566 
L 219.184654 138.799145 
L 219.599678 138.678229 
L 220.014701 138.401397 
L 220.844749 137.386007 
L 221.674796 135.772345 
L 222.919868 132.903072 
L 224.579963 129.77921 
L 226.240058 126.116219 
L 228.315176 120.907 
L 230.805319 113.97768 
L 239.520818 88.985976 
L 241.595936 84.040577 
L 243.256031 80.637482 
L 244.916126 77.810604 
L 246.161198 76.107719 
L 247.406269 74.787102 
L 248.65134 73.86563 
L 249.481388 73.47909 
L 250.311435 73.277484 
L 251.141482 73.261959 
L 251.97153 73.432602 
L 252.801578 73.788444 
L 253.631625 74.327462 
L 254.876696 75.472466 
L 256.121768 77.007855 
L 257.366839 78.914013 
L 259.026934 81.989565 
L 260.687029 85.610647 
L 262.762148 90.777914 
L 265.25229 97.674096 
L 274.382812 123.76311 
L 276.457931 128.614246 
L 278.118026 131.926335 
L 279.363098 134.028242 
L 280.608169 135.772345 
L 281.85324 137.136361 
L 283.098311 138.102859 
L 283.928359 138.520036 
L 284.758406 138.752572 
L 285.588454 138.799145 
L 286.418501 138.659491 
L 287.248549 138.334404 
L 288.078596 137.82573 
L 289.323667 136.725099 
L 290.568739 135.232206 
L 291.81381 133.366127 
L 293.058881 129.057955 
L 294.303953 123.76311 
L 295.964047 115.565423 
L 301.359356 87.430532 
L 302.604428 82.271542 
L 303.849499 78.130125 
L 304.679546 76.024144 
L 305.509594 74.490502 
L 306.339641 73.558455 
L 306.754665 73.324046 
L 307.169689 73.245784 
L 307.584713 73.324046 
L 307.999736 73.558455 
L 308.41476 73.947894 
L 309.244808 75.183689 
L 310.074855 77.007855 
L 310.904903 79.385593 
L 312.149974 83.888242 
L 313.395045 89.339206 
L 315.05514 97.674096 
L 320.035425 123.76311 
L 321.280496 129.057955 
L 322.525568 133.366127 
L 323.355615 135.596959 
L 324.185663 137.26365 
L 325.01571 138.334404 
L 325.430734 138.639465 
L 325.845758 138.788793 
L 326.260781 138.781677 
L 326.675805 138.61815 
L 327.090829 138.298993 
L 327.920876 137.200621 
L 328.750924 135.507513 
L 329.580971 133.251971 
L 330.826043 128.910954 
L 332.071114 123.58956 
L 333.731209 115.368191 
L 339.126518 87.261285 
L 340.371589 82.130082 
L 341.61666 78.022511 
L 342.446708 75.941754 
L 343.276755 74.434907 
L 344.106803 73.530717 
L 344.521826 73.310467 
L 344.93685 73.246431 
L 345.351874 73.338915 
L 345.766898 73.587475 
L 346.596945 74.547341 
L 347.426993 76.107719 
L 348.25704 78.23884 
L 349.087087 80.900048 
L 350.332159 85.77219 
L 351.992254 93.576373 
L 354.482396 106.849131 
L 356.972539 119.982248 
L 358.632634 127.547989 
L 359.877705 132.176752 
L 360.707752 134.650563 
L 361.5378 136.578287 
L 362.367848 137.923148 
L 363.197895 138.659491 
L 363.612919 138.794616 
L 364.027942 138.773268 
L 364.442966 138.595549 
L 364.85799 138.262309 
L 365.688038 137.136361 
L 366.518085 135.416903 
L 367.348133 133.13674 
L 368.593204 128.763049 
L 369.838275 123.415316 
L 371.49837 115.170591 
L 376.893679 87.092779 
L 378.13875 81.989565 
L 379.383821 77.916002 
L 380.213869 75.860552 
L 381.043916 74.38056 
L 381.873964 73.504261 
L 382.288987 73.298181 
L 382.704011 73.248373 
L 383.119035 73.355074 
L 383.534059 73.617776 
L 384.364106 74.605423 
L 385.194154 76.192474 
L 386.024201 78.348652 
L 386.854249 81.032822 
L 388.09932 85.934533 
L 389.759415 93.767146 
L 392.249558 107.055008 
L 394.7397 120.168329 
L 396.399795 127.702909 
L 397.644866 132.300415 
L 398.474914 134.750352 
L 399.304961 136.652298 
L 400.135009 137.969969 
L 400.965056 138.678229 
L 401.38008 138.799145 
L 401.795104 138.763566 
L 402.210128 138.571663 
L 402.625151 138.224351 
L 403.455199 137.070872 
L 404.285246 135.325133 
L 405.115294 133.020439 
L 406.360365 128.614246 
L 407.605436 123.240386 
L 409.265531 114.972629 
L 414.66084 86.92502 
L 415.905911 81.849997 
L 417.150983 77.810604 
L 417.98103 75.78054 
L 418.811078 74.327462 
L 419.641125 73.47909 
L 420.056149 73.287186 
L 420.471173 73.251608 
L 420.886196 73.372523 
L 421.30122 73.649356 
L 422.131268 74.664746 
L 422.961315 76.278407 
L 423.791363 78.459556 
L 424.62141 81.166582 
L 425.866481 86.097669 
L 427.526576 93.958404 
L 430.016719 107.260845 
L 430.431743 109.520046 
L 433.751933 119.043722 
L 435.827051 124.45024 
L 437.90217 129.204048 
L 439.562265 132.42304 
L 440.807336 134.4476 
L 442.052408 136.108998 
L 443.297479 137.386007 
L 444.54255 138.262309 
L 445.372598 138.61815 
L 446.202645 138.788793 
L 447.032692 138.773268 
L 447.86274 138.571663 
L 448.692788 138.185123 
L 449.522835 137.615845 
L 450.767906 136.42665 
L 452.012978 134.849006 
L 453.258049 132.903072 
L 454.918144 129.77921 
L 456.578239 126.116219 
L 458.653358 120.907 
L 461.1435 113.97768 
L 469.858999 88.985976 
L 471.934118 84.040577 
L 473.594213 80.637482 
L 475.254308 77.810604 
L 476.499379 76.107719 
L 477.74445 74.787102 
L 478.989521 73.86563 
L 479.819569 73.47909 
L 480.649616 73.277484 
L 481.479664 73.261959 
L 482.309711 73.432602 
L 483.139759 73.788444 
L 483.969806 74.327462 
L 485.214878 75.472466 
L 486.459949 77.007855 
L 487.70502 78.914013 
L 489.365115 81.989565 
L 491.02521 85.610647 
L 493.100329 90.777914 
L 495.590471 97.674096 
L 504.720994 123.76311 
L 506.796113 128.614246 
L 508.456208 131.926335 
L 509.701279 134.028242 
L 510.94635 135.772345 
L 512.191421 137.136361 
L 513.436493 138.102859 
L 514.26654 138.520036 
L 515.096588 138.752572 
L 515.926635 138.799145 
L 516.756683 138.659491 
L 517.58673 138.334404 
L 518.416778 137.82573 
L 519.661849 136.725099 
L 520.90692 135.232206 
L 522.151991 133.366127 
L 523.397063 131.150704 
L 525.057158 127.702909 
L 526.717252 123.76311 
L 528.792371 118.283606 
L 531.697538 109.929333 
L 537.50787 93.007031 
L 539.582989 87.600513 
L 541.658108 82.846705 
L 543.318203 79.627712 
L 544.563274 77.603153 
L 545.808345 75.941754 
L 547.053416 74.664746 
L 548.298488 73.788444 
L 549.128535 73.432602 
L 549.958583 73.261959 
L 550.78863 73.277484 
L 551.618677 73.47909 
L 552.448725 73.86563 
L 553.278773 74.434907 
L 554.523844 75.624103 
L 555.768915 77.201747 
L 557.013986 79.147681 
L 558.674081 82.271542 
L 560.334176 85.934533 
L 562.409295 91.143753 
L 564.899438 98.073073 
L 568.634651 109.110208 
L 568.634651 109.110208 
" clip-path="url(#p0d2b1dbf3c)" style="fill: none; stroke: currentColor; stroke-width: 1.1; stroke-linecap: square"/>
   </g>
   <g id="line2d_11">
    <path d="M 14.992969 181.418437 
L 14.992969 20.798437 
" clip-path="url(#p0d2b1dbf3c)" style="fill: none; stroke-dasharray: 0.5,1; stroke-dashoffset: 0; stroke: currentColor; stroke-opacity: 0.6; stroke-width: 0.5"/>
   </g>
   <g id="line2d_12">
    <path d="M 84.163594 181.418437 
L 84.163594 20.798437 
" clip-path="url(#p0d2b1dbf3c)" style="fill: none; stroke-dasharray: 0.5,1; stroke-dashoffset: 0; stroke: currentColor; stroke-opacity: 0.6; stroke-width: 0.5"/>
   </g>
   <g id="line2d_13">
    <path d="M 153.334219 181.418437 
L 153.334219 20.798437 
" clip-path="url(#p0d2b1dbf3c)" style="fill: none; stroke-dasharray: 0.5,1; stroke-dashoffset: 0; stroke: currentColor; stroke-opacity: 0.6; stroke-width: 0.5"/>
   </g>
   <g id="line2d_14">
    <path d="M 222.504844 181.418437 
L 222.504844 20.798437 
" clip-path="url(#p0d2b1dbf3c)" style="fill: none; stroke-dasharray: 0.5,1; stroke-dashoffset: 0; stroke: currentColor; stroke-opacity: 0.6; stroke-width: 0.5"/>
   </g>
   <g id="line2d_15">
    <path d="M 291.675469 181.418437 
L 291.675469 20.798437 
" clip-path="url(#p0d2b1dbf3c)" style="fill: none; stroke-dasharray: 0.5,1; stroke-dashoffset: 0; stroke: currentColor; stroke-opacity: 0.6; stroke-width: 0.5"/>
   </g>
   <g id="line2d_16">
    <path d="M 360.846094 181.418437 
L 360.846094 20.798437 
" clip-path="url(#p0d2b1dbf3c)" style="fill: none; stroke-dasharray: 0.5,1; stroke-dashoffset: 0; stroke: currentColor; stroke-opacity: 0.6; stroke-width: 0.5"/>
   </g>
   <g id="line2d_17">
    <path d="M 430.016719 181.418437 
L 430.016719 20.798437 
" clip-path="url(#p0d2b1dbf3c)" style="fill: none; stroke-dasharray: 0.5,1; stroke-dashoffset: 0; stroke: currentColor; stroke-opacity: 0.6; stroke-width: 0.5"/>
   </g>
   <g id="line2d_18">
    <path d="M 499.187344 181.418437 
L 499.187344 20.798437 
" clip-path="url(#p0d2b1dbf3c)" style="fill: none; stroke-dasharray: 0.5,1; stroke-dashoffset: 0; stroke: currentColor; stroke-opacity: 0.6; stroke-width: 0.5"/>
   </g>
   <g id="line2d_19">
    <path d="M 568.357969 181.418437 
L 568.357969 20.798437 
" clip-path="url(#p0d2b1dbf3c)" style="fill: none; stroke-dasharray: 0.5,1; stroke-dashoffset: 0; stroke: currentColor; stroke-opacity: 0.6; stroke-width: 0.5"/>
   </g>
   <g id="patch_3">
    <path d="M 14.992969 181.418437 
L 568.357969 181.418437 
" style="fill: none; stroke: currentColor; stroke-width: 0.8; stroke-linejoin: miter; stroke-linecap: square"/>
   </g>
   <g id="text_11">
    <!-- 1 -->
    <g transform="translate(46.397031 60.676628) scale(0.1 -0.1)">
     <use xlink:href="#DejaVuSans-31"/>
    </g>
   </g>
   <g id="text_12">
    <!-- 1 -->
    <g transform="translate(115.567656 60.676628) scale(0.1 -0.1)">
     <use xlink:href="#DejaVuSans-31"/>
    </g>
   </g>
   <g id="text_13">
    <!-- 0 -->
    <g transform="translate(184.738281 60.676628) scale(0.1 -0.1)">
     <use xlink:href="#DejaVuSans-30"/>
    </g>
   </g>
   <g id="text_14">
    <!-- 1 -->
    <g transform="translate(253.908906 60.676628) scale(0.1 -0.1)">
     <use xlink:href="#DejaVuSans-31"/>
    </g>
   </g>
   <g id="text_15">
    <!-- 0 -->
    <g transform="translate(323.079531 60.676628) scale(0.1 -0.1)">
     <use xlink:href="#DejaVuSans-30"/>
    </g>
   </g>
   <g id="text_16">
    <!-- 0 -->
    <g transform="translate(392.250156 60.676628) scale(0.1 -0.1)">
     <use xlink:href="#DejaVuSans-30"/>
    </g>
   </g>
   <g id="text_17">
    <!-- 1 -->
    <g transform="translate(461.420781 60.676628) scale(0.1 -0.1)">
     <use xlink:href="#DejaVuSans-31"/>
    </g>
   </g>
   <g id="text_18">
    <!-- 1 -->
    <g transform="translate(530.591406 60.676628) scale(0.1 -0.1)">
     <use xlink:href="#DejaVuSans-31"/>
    </g>
   </g>
   <g id="patch_4">
    <path d="M 49.578281 162.664247 
Q 49.578281 152.553631 49.578281 142.443015 
" style="fill: none; stroke: currentColor; stroke-width: 0.7; stroke-linecap: round"/>
   </g>
   <g id="text_19">
    <!-- mark -->
    <g transform="translate(37.981641 173.506215) scale(0.09 -0.09)">
     <defs>
      <path id="DejaVuSans-61" d="M 2194 1759 
Q 1497 1759 1228 1600 
Q 959 1441 959 1056 
Q 959 750 1161 570 
Q 1363 391 1709 391 
Q 2188 391 2477 730 
Q 2766 1069 2766 1631 
L 2766 1759 
L 2194 1759 
z
M 3341 1997 
L 3341 0 
L 2766 0 
L 2766 531 
Q 2569 213 2275 61 
Q 1981 -91 1556 -91 
Q 1019 -91 701 211 
Q 384 513 384 1019 
Q 384 1609 779 1909 
Q 1175 2209 1959 2209 
L 2766 2209 
L 2766 2266 
Q 2766 2663 2505 2880 
Q 2244 3097 1772 3097 
Q 1472 3097 1187 3025 
Q 903 2953 641 2809 
L 641 3341 
Q 956 3463 1253 3523 
Q 1550 3584 1831 3584 
Q 2591 3584 2966 3190 
Q 3341 2797 3341 1997 
z
" transform="scale(0.015625)"/>
      <path id="DejaVuSans-72" d="M 2631 2963 
Q 2534 3019 2420 3045 
Q 2306 3072 2169 3072 
Q 1681 3072 1420 2755 
Q 1159 2438 1159 1844 
L 1159 0 
L 581 0 
L 581 3500 
L 1159 3500 
L 1159 2956 
Q 1341 3275 1631 3429 
Q 1922 3584 2338 3584 
Q 2397 3584 2469 3576 
Q 2541 3569 2628 3553 
L 2631 2963 
z
" transform="scale(0.015625)"/>
      <path id="DejaVuSans-6b" d="M 581 4863 
L 1159 4863 
L 1159 1991 
L 2875 3500 
L 3609 3500 
L 1753 1863 
L 3688 0 
L 2938 0 
L 1159 1709 
L 1159 0 
L 581 0 
L 581 4863 
z
" transform="scale(0.015625)"/>
     </defs>
     <use xlink:href="#DejaVuSans-6d"/>
     <use xlink:href="#DejaVuSans-61" transform="translate(97.412109 0)"/>
     <use xlink:href="#DejaVuSans-72" transform="translate(158.691406 0)"/>
     <use xlink:href="#DejaVuSans-6b" transform="translate(199.804688 0)"/>
    </g>
    <!-- 1200 Hz -->
    <g transform="translate(30.949688 183.584246) scale(0.09 -0.09)">
     <defs>
      <path id="DejaVuSans-48" d="M 628 4666 
L 1259 4666 
L 1259 2753 
L 3553 2753 
L 3553 4666 
L 4184 4666 
L 4184 0 
L 3553 0 
L 3553 2222 
L 1259 2222 
L 1259 0 
L 628 0 
L 628 4666 
z
" transform="scale(0.015625)"/>
      <path id="DejaVuSans-7a" d="M 353 3500 
L 3084 3500 
L 3084 2975 
L 922 459 
L 3084 459 
L 3084 0 
L 275 0 
L 275 525 
L 2438 3041 
L 353 3041 
L 353 3500 
z
" transform="scale(0.015625)"/>
     </defs>
     <use xlink:href="#DejaVuSans-31"/>
     <use xlink:href="#DejaVuSans-32" transform="translate(63.623047 0)"/>
     <use xlink:href="#DejaVuSans-30" transform="translate(127.246094 0)"/>
     <use xlink:href="#DejaVuSans-30" transform="translate(190.869141 0)"/>
     <use xlink:href="#DejaVuSans-20" transform="translate(254.492188 0)"/>
     <use xlink:href="#DejaVuSans-48" transform="translate(286.279297 0)"/>
     <use xlink:href="#DejaVuSans-7a" transform="translate(361.474609 0)"/>
    </g>
   </g>
   <g id="patch_5">
    <path d="M 187.919531 162.664247 
Q 187.919531 152.553631 187.919531 142.443015 
" style="fill: none; stroke: currentColor; stroke-width: 0.7; stroke-linecap: round"/>
   </g>
   <g id="text_20">
    <!-- space -->
    <g transform="translate(174.717656 173.506215) scale(0.09 -0.09)">
     <defs>
      <path id="DejaVuSans-70" d="M 1159 525 
L 1159 -1331 
L 581 -1331 
L 581 3500 
L 1159 3500 
L 1159 2969 
Q 1341 3281 1617 3432 
Q 1894 3584 2278 3584 
Q 2916 3584 3314 3078 
Q 3713 2572 3713 1747 
Q 3713 922 3314 415 
Q 2916 -91 2278 -91 
Q 1894 -91 1617 61 
Q 1341 213 1159 525 
z
M 3116 1747 
Q 3116 2381 2855 2742 
Q 2594 3103 2138 3103 
Q 1681 3103 1420 2742 
Q 1159 2381 1159 1747 
Q 1159 1113 1420 752 
Q 1681 391 2138 391 
Q 2594 391 2855 752 
Q 3116 1113 3116 1747 
z
" transform="scale(0.015625)"/>
      <path id="DejaVuSans-63" d="M 3122 3366 
L 3122 2828 
Q 2878 2963 2633 3030 
Q 2388 3097 2138 3097 
Q 1578 3097 1268 2742 
Q 959 2388 959 1747 
Q 959 1106 1268 751 
Q 1578 397 2138 397 
Q 2388 397 2633 464 
Q 2878 531 3122 666 
L 3122 134 
Q 2881 22 2623 -34 
Q 2366 -91 2075 -91 
Q 1284 -91 818 406 
Q 353 903 353 1747 
Q 353 2603 823 3093 
Q 1294 3584 2113 3584 
Q 2378 3584 2631 3529 
Q 2884 3475 3122 3366 
z
" transform="scale(0.015625)"/>
     </defs>
     <use xlink:href="#DejaVuSans-73"/>
     <use xlink:href="#DejaVuSans-70" transform="translate(52.099609 0)"/>
     <use xlink:href="#DejaVuSans-61" transform="translate(115.576172 0)"/>
     <use xlink:href="#DejaVuSans-63" transform="translate(176.855469 0)"/>
     <use xlink:href="#DejaVuSans-65" transform="translate(231.835938 0)"/>
    </g>
    <!-- 2200 Hz -->
    <g transform="translate(169.290938 183.584246) scale(0.09 -0.09)">
     <use xlink:href="#DejaVuSans-32"/>
     <use xlink:href="#DejaVuSans-32" transform="translate(63.623047 0)"/>
     <use xlink:href="#DejaVuSans-30" transform="translate(127.246094 0)"/>
     <use xlink:href="#DejaVuSans-30" transform="translate(190.869141 0)"/>
     <use xlink:href="#DejaVuSans-20" transform="translate(254.492188 0)"/>
     <use xlink:href="#DejaVuSans-48" transform="translate(286.279297 0)"/>
     <use xlink:href="#DejaVuSans-7a" transform="translate(361.474609 0)"/>
    </g>
   </g>
   <g id="patch_6">
    <path d="M 294.566826 52.922437 
Q 326.260907 52.922437 357.954988 52.922437 
" style="fill: none; stroke: currentColor; stroke-width: 0.8; stroke-linecap: round"/>
    <path d="M 298.566826 54.922437 
L 294.566826 52.922437 
L 298.566826 50.922437 
" style="fill: none; stroke: currentColor; stroke-width: 0.8; stroke-linecap: round"/>
    <path d="M 353.954988 50.922437 
L 357.954988 52.922437 
L 353.954988 54.922437 
" style="fill: none; stroke: currentColor; stroke-width: 0.8; stroke-linecap: round"/>
   </g>
   <g id="text_21">
    <!-- 1/1200 s  (1200 baud) -->
    <g transform="translate(276.077344 47.77276) scale(0.09 -0.09)">
     <defs>
      <path id="DejaVuSans-2f" d="M 1625 4666 
L 2156 4666 
L 531 -594 
L 0 -594 
L 1625 4666 
z
" transform="scale(0.015625)"/>
      <path id="DejaVuSans-62" d="M 3116 1747 
Q 3116 2381 2855 2742 
Q 2594 3103 2138 3103 
Q 1681 3103 1420 2742 
Q 1159 2381 1159 1747 
Q 1159 1113 1420 752 
Q 1681 391 2138 391 
Q 2594 391 2855 752 
Q 3116 1113 3116 1747 
z
M 1159 2969 
Q 1341 3281 1617 3432 
Q 1894 3584 2278 3584 
Q 2916 3584 3314 3078 
Q 3713 2572 3713 1747 
Q 3713 922 3314 415 
Q 2916 -91 2278 -91 
Q 1894 -91 1617 61 
Q 1341 213 1159 525 
L 1159 0 
L 581 0 
L 581 4863 
L 1159 4863 
L 1159 2969 
z
" transform="scale(0.015625)"/>
      <path id="DejaVuSans-75" d="M 544 1381 
L 544 3500 
L 1119 3500 
L 1119 1403 
Q 1119 906 1312 657 
Q 1506 409 1894 409 
Q 2359 409 2629 706 
Q 2900 1003 2900 1516 
L 2900 3500 
L 3475 3500 
L 3475 0 
L 2900 0 
L 2900 538 
Q 2691 219 2414 64 
Q 2138 -91 1772 -91 
Q 1169 -91 856 284 
Q 544 659 544 1381 
z
M 1991 3584 
L 1991 3584 
z
" transform="scale(0.015625)"/>
      <path id="DejaVuSans-64" d="M 2906 2969 
L 2906 4863 
L 3481 4863 
L 3481 0 
L 2906 0 
L 2906 525 
Q 2725 213 2448 61 
Q 2172 -91 1784 -91 
Q 1150 -91 751 415 
Q 353 922 353 1747 
Q 353 2572 751 3078 
Q 1150 3584 1784 3584 
Q 2172 3584 2448 3432 
Q 2725 3281 2906 2969 
z
M 947 1747 
Q 947 1113 1208 752 
Q 1469 391 1925 391 
Q 2381 391 2643 752 
Q 2906 1113 2906 1747 
Q 2906 2381 2643 2742 
Q 2381 3103 1925 3103 
Q 1469 3103 1208 2742 
Q 947 2381 947 1747 
z
" transform="scale(0.015625)"/>
     </defs>
     <use xlink:href="#DejaVuSans-31"/>
     <use xlink:href="#DejaVuSans-2f" transform="translate(63.623047 0)"/>
     <use xlink:href="#DejaVuSans-31" transform="translate(97.314453 0)"/>
     <use xlink:href="#DejaVuSans-32" transform="translate(160.9375 0)"/>
     <use xlink:href="#DejaVuSans-30" transform="translate(224.560547 0)"/>
     <use xlink:href="#DejaVuSans-30" transform="translate(288.183594 0)"/>
     <use xlink:href="#DejaVuSans-20" transform="translate(351.806641 0)"/>
     <use xlink:href="#DejaVuSans-73" transform="translate(383.59375 0)"/>
     <use xlink:href="#DejaVuSans-20" transform="translate(435.693359 0)"/>
     <use xlink:href="#DejaVuSans-20" transform="translate(467.480469 0)"/>
     <use xlink:href="#DejaVuSans-28" transform="translate(499.267578 0)"/>
     <use xlink:href="#DejaVuSans-31" transform="translate(538.28125 0)"/>
     <use xlink:href="#DejaVuSans-32" transform="translate(601.904297 0)"/>
     <use xlink:href="#DejaVuSans-30" transform="translate(665.527344 0)"/>
     <use xlink:href="#DejaVuSans-30" transform="translate(729.150391 0)"/>
     <use xlink:href="#DejaVuSans-20" transform="translate(792.773438 0)"/>
     <use xlink:href="#DejaVuSans-62" transform="translate(824.560547 0)"/>
     <use xlink:href="#DejaVuSans-61" transform="translate(888.037109 0)"/>
     <use xlink:href="#DejaVuSans-75" transform="translate(949.316406 0)"/>
     <use xlink:href="#DejaVuSans-64" transform="translate(1012.695312 0)"/>
     <use xlink:href="#DejaVuSans-29" transform="translate(1076.171875 0)"/>
    </g>
   </g>
   <g id="text_22">
    <!-- bit value -->
    <g transform="translate(272.082187 27.121617) scale(0.09 -0.09)">
     <defs>
      <path id="DejaVuSans-76" d="M 191 3500 
L 800 3500 
L 1894 563 
L 2988 3500 
L 3597 3500 
L 2284 0 
L 1503 0 
L 191 3500 
z
" transform="scale(0.015625)"/>
      <path id="DejaVuSans-6c" d="M 603 4863 
L 1178 4863 
L 1178 0 
L 603 0 
L 603 4863 
z
" transform="scale(0.015625)"/>
     </defs>
     <use xlink:href="#DejaVuSans-62"/>
     <use xlink:href="#DejaVuSans-69" transform="translate(63.476562 0)"/>
     <use xlink:href="#DejaVuSans-74" transform="translate(91.259766 0)"/>
     <use xlink:href="#DejaVuSans-20" transform="translate(130.46875 0)"/>
     <use xlink:href="#DejaVuSans-76" transform="translate(162.255859 0)"/>
     <use xlink:href="#DejaVuSans-61" transform="translate(221.435547 0)"/>
     <use xlink:href="#DejaVuSans-6c" transform="translate(282.714844 0)"/>
     <use xlink:href="#DejaVuSans-75" transform="translate(310.498047 0)"/>
     <use xlink:href="#DejaVuSans-65" transform="translate(373.876953 0)"/>
    </g>
   </g>
   <g id="text_23">
    <!-- Bell 202 AFSK — 1200-baud mark/space tone shift -->
    <g transform="translate(165.652812 14.798437) scale(0.1 -0.1)">
     <defs>
      <path id="DejaVuSans-42" d="M 1259 2228 
L 1259 519 
L 2272 519 
Q 2781 519 3026 730 
Q 3272 941 3272 1375 
Q 3272 1813 3026 2020 
Q 2781 2228 2272 2228 
L 1259 2228 
z
M 1259 4147 
L 1259 2741 
L 2194 2741 
Q 2656 2741 2882 2914 
Q 3109 3088 3109 3444 
Q 3109 3797 2882 3972 
Q 2656 4147 2194 4147 
L 1259 4147 
z
M 628 4666 
L 2241 4666 
Q 2963 4666 3353 4366 
Q 3744 4066 3744 3513 
Q 3744 3084 3544 2831 
Q 3344 2578 2956 2516 
Q 3422 2416 3680 2098 
Q 3938 1781 3938 1306 
Q 3938 681 3513 340 
Q 3088 0 2303 0 
L 628 0 
L 628 4666 
z
" transform="scale(0.015625)"/>
      <path id="DejaVuSans-41" d="M 2188 4044 
L 1331 1722 
L 3047 1722 
L 2188 4044 
z
M 1831 4666 
L 2547 4666 
L 4325 0 
L 3669 0 
L 3244 1197 
L 1141 1197 
L 716 0 
L 50 0 
L 1831 4666 
z
" transform="scale(0.015625)"/>
      <path id="DejaVuSans-46" d="M 628 4666 
L 3309 4666 
L 3309 4134 
L 1259 4134 
L 1259 2759 
L 3109 2759 
L 3109 2228 
L 1259 2228 
L 1259 0 
L 628 0 
L 628 4666 
z
" transform="scale(0.015625)"/>
      <path id="DejaVuSans-53" d="M 3425 4513 
L 3425 3897 
Q 3066 4069 2747 4153 
Q 2428 4238 2131 4238 
Q 1616 4238 1336 4038 
Q 1056 3838 1056 3469 
Q 1056 3159 1242 3001 
Q 1428 2844 1947 2747 
L 2328 2669 
Q 3034 2534 3370 2195 
Q 3706 1856 3706 1288 
Q 3706 609 3251 259 
Q 2797 -91 1919 -91 
Q 1588 -91 1214 -16 
Q 841 59 441 206 
L 441 856 
Q 825 641 1194 531 
Q 1563 422 1919 422 
Q 2459 422 2753 634 
Q 3047 847 3047 1241 
Q 3047 1584 2836 1778 
Q 2625 1972 2144 2069 
L 1759 2144 
Q 1053 2284 737 2584 
Q 422 2884 422 3419 
Q 422 4038 858 4394 
Q 1294 4750 2059 4750 
Q 2388 4750 2728 4690 
Q 3069 4631 3425 4513 
z
" transform="scale(0.015625)"/>
      <path id="DejaVuSans-4b" d="M 628 4666 
L 1259 4666 
L 1259 2694 
L 3353 4666 
L 4166 4666 
L 1850 2491 
L 4331 0 
L 3500 0 
L 1259 2247 
L 1259 0 
L 628 0 
L 628 4666 
z
" transform="scale(0.015625)"/>
      <path id="DejaVuSans-2014" d="M 313 1978 
L 6088 1978 
L 6088 1528 
L 313 1528 
L 313 1978 
z
" transform="scale(0.015625)"/>
      <path id="DejaVuSans-2d" d="M 313 2009 
L 1997 2009 
L 1997 1497 
L 313 1497 
L 313 2009 
z
" transform="scale(0.015625)"/>
      <path id="DejaVuSans-6f" d="M 1959 3097 
Q 1497 3097 1228 2736 
Q 959 2375 959 1747 
Q 959 1119 1226 758 
Q 1494 397 1959 397 
Q 2419 397 2687 759 
Q 2956 1122 2956 1747 
Q 2956 2369 2687 2733 
Q 2419 3097 1959 3097 
z
M 1959 3584 
Q 2709 3584 3137 3096 
Q 3566 2609 3566 1747 
Q 3566 888 3137 398 
Q 2709 -91 1959 -91 
Q 1206 -91 779 398 
Q 353 888 353 1747 
Q 353 2609 779 3096 
Q 1206 3584 1959 3584 
z
" transform="scale(0.015625)"/>
      <path id="DejaVuSans-6e" d="M 3513 2113 
L 3513 0 
L 2938 0 
L 2938 2094 
Q 2938 2591 2744 2837 
Q 2550 3084 2163 3084 
Q 1697 3084 1428 2787 
Q 1159 2491 1159 1978 
L 1159 0 
L 581 0 
L 581 3500 
L 1159 3500 
L 1159 2956 
Q 1366 3272 1645 3428 
Q 1925 3584 2291 3584 
Q 2894 3584 3203 3211 
Q 3513 2838 3513 2113 
z
" transform="scale(0.015625)"/>
      <path id="DejaVuSans-68" d="M 3513 2113 
L 3513 0 
L 2938 0 
L 2938 2094 
Q 2938 2591 2744 2837 
Q 2550 3084 2163 3084 
Q 1697 3084 1428 2787 
Q 1159 2491 1159 1978 
L 1159 0 
L 581 0 
L 581 4863 
L 1159 4863 
L 1159 2956 
Q 1366 3272 1645 3428 
Q 1925 3584 2291 3584 
Q 2894 3584 3203 3211 
Q 3513 2838 3513 2113 
z
" transform="scale(0.015625)"/>
      <path id="DejaVuSans-66" d="M 2375 4863 
L 2375 4384 
L 1825 4384 
Q 1516 4384 1395 4259 
Q 1275 4134 1275 3809 
L 1275 3500 
L 2222 3500 
L 2222 3053 
L 1275 3053 
L 1275 0 
L 697 0 
L 697 3053 
L 147 3053 
L 147 3500 
L 697 3500 
L 697 3744 
Q 697 4328 969 4595 
Q 1241 4863 1831 4863 
L 2375 4863 
z
" transform="scale(0.015625)"/>
     </defs>
     <use xlink:href="#DejaVuSans-42"/>
     <use xlink:href="#DejaVuSans-65" transform="translate(68.603516 0)"/>
     <use xlink:href="#DejaVuSans-6c" transform="translate(130.126953 0)"/>
     <use xlink:href="#DejaVuSans-6c" transform="translate(157.910156 0)"/>
     <use xlink:href="#DejaVuSans-20" transform="translate(185.693359 0)"/>
     <use xlink:href="#DejaVuSans-32" transform="translate(217.480469 0)"/>
     <use xlink:href="#DejaVuSans-30" transform="translate(281.103516 0)"/>
     <use xlink:href="#DejaVuSans-32" transform="translate(344.726562 0)"/>
     <use xlink:href="#DejaVuSans-20" transform="translate(408.349609 0)"/>
     <use xlink:href="#DejaVuSans-41" transform="translate(440.136719 0)"/>
     <use xlink:href="#DejaVuSans-46" transform="translate(508.544922 0)"/>
     <use xlink:href="#DejaVuSans-53" transform="translate(564.314453 0)"/>
     <use xlink:href="#DejaVuSans-4b" transform="translate(627.791016 0)"/>
     <use xlink:href="#DejaVuSans-20" transform="translate(693.367188 0)"/>
     <use xlink:href="#DejaVuSans-2014" transform="translate(725.154297 0)"/>
     <use xlink:href="#DejaVuSans-20" transform="translate(825.154297 0)"/>
     <use xlink:href="#DejaVuSans-31" transform="translate(856.941406 0)"/>
     <use xlink:href="#DejaVuSans-32" transform="translate(920.564453 0)"/>
     <use xlink:href="#DejaVuSans-30" transform="translate(984.1875 0)"/>
     <use xlink:href="#DejaVuSans-30" transform="translate(1047.810547 0)"/>
     <use xlink:href="#DejaVuSans-2d" transform="translate(1111.433594 0)"/>
     <use xlink:href="#DejaVuSans-62" transform="translate(1147.517578 0)"/>
     <use xlink:href="#DejaVuSans-61" transform="translate(1210.994141 0)"/>
     <use xlink:href="#DejaVuSans-75" transform="translate(1272.273438 0)"/>
     <use xlink:href="#DejaVuSans-64" transform="translate(1335.652344 0)"/>
     <use xlink:href="#DejaVuSans-20" transform="translate(1399.128906 0)"/>
     <use xlink:href="#DejaVuSans-6d" transform="translate(1430.916016 0)"/>
     <use xlink:href="#DejaVuSans-61" transform="translate(1528.328125 0)"/>
     <use xlink:href="#DejaVuSans-72" transform="translate(1589.607422 0)"/>
     <use xlink:href="#DejaVuSans-6b" transform="translate(1630.720703 0)"/>
     <use xlink:href="#DejaVuSans-2f" transform="translate(1688.630859 0)"/>
     <use xlink:href="#DejaVuSans-73" transform="translate(1722.322266 0)"/>
     <use xlink:href="#DejaVuSans-70" transform="translate(1774.421875 0)"/>
     <use xlink:href="#DejaVuSans-61" transform="translate(1837.898438 0)"/>
     <use xlink:href="#DejaVuSans-63" transform="translate(1899.177734 0)"/>
     <use xlink:href="#DejaVuSans-65" transform="translate(1954.158203 0)"/>
     <use xlink:href="#DejaVuSans-20" transform="translate(2015.681641 0)"/>
     <use xlink:href="#DejaVuSans-74" transform="translate(2047.46875 0)"/>
     <use xlink:href="#DejaVuSans-6f" transform="translate(2086.677734 0)"/>
     <use xlink:href="#DejaVuSans-6e" transform="translate(2147.859375 0)"/>
     <use xlink:href="#DejaVuSans-65" transform="translate(2211.238281 0)"/>
     <use xlink:href="#DejaVuSans-20" transform="translate(2272.761719 0)"/>
     <use xlink:href="#DejaVuSans-73" transform="translate(2304.548828 0)"/>
     <use xlink:href="#DejaVuSans-68" transform="translate(2356.648438 0)"/>
     <use xlink:href="#DejaVuSans-69" transform="translate(2420.027344 0)"/>
     <use xlink:href="#DejaVuSans-66" transform="translate(2447.810547 0)"/>
     <use xlink:href="#DejaVuSans-74" transform="translate(2481.265625 0)"/>
    </g>
   </g>
  </g>
 </g>
 <defs>
  <clipPath id="p0d2b1dbf3c">
   <rect x="14.992969" y="20.798437" width="553.365" height="160.62"/>
  </clipPath>
 </defs>
</svg>
