<svg fill="currentColor" xmlns:xlink="http://www.w3.org/1999/xlink" width="532.150313pt" height="323.068594pt" viewBox="0 0 532.150313 323.068594" xmlns="http://www.w3.org/2000/svg" version="1.1">
 <metadata>
  <rdf:RDF xmlns:dc="http://purl.org/dc/elements/1.1/" xmlns:cc="http://creativecommons.org/ns#" xmlns:rdf="http://www.w3.org/1999/02/22-rdf-syntax-ns#">
   <cc:Work>
    <dc:type rdf:resource="http://purl.org/dc/dcmitype/StillImage"/>
    <dc:date>2026-07-21T16:12:02.556998</dc:date>
    <dc:format>image/svg+xml</dc:format>
    <dc:creator>
     <cc:Agent>
      <dc:title>Matplotlib v3.10.9, https://matplotlib.org/</dc:title>
     </cc:Agent>
    </dc:creator>
   </cc:Work>
  </rdf:RDF>
 </metadata>
 <defs>
  <style type="text/css">*{stroke-linejoin: round; stroke-linecap: butt}</style>
 </defs>
 <g id="figure_1">
  <g id="patch_1">
   <path d="M 0 323.068594 
L 532.150313 323.068594 
L 532.150313 0 
L 0 0 
L 0 323.068594 
z
" style="fill: none"/>
  </g>
  <g id="axes_1">
   <g id="patch_2">
    <path d="M 19.910313 149.638281 
L 524.950312 149.638281 
L 524.950312 21.558281 
L 19.910313 21.558281 
L 19.910313 149.638281 
z
" style="fill: none"/>
   </g>
   <g id="matplotlib.axis_1"/>
   <g id="matplotlib.axis_2">
    <g id="text_1">
     <!-- amplitude -->
     <g transform="translate(14.038594 108.338047) rotate(-90) scale(0.09 -0.09)">
      <defs>
       <path id="DejaVuSans-61" d="M 2194 1759 
Q 1497 1759 1228 1600 
Q 959 1441 959 1056 
Q 959 750 1161 570 
Q 1363 391 1709 391 
Q 2188 391 2477 730 
Q 2766 1069 2766 1631 
L 2766 1759 
L 2194 1759 
z
M 3341 1997 
L 3341 0 
L 2766 0 
L 2766 531 
Q 2569 213 2275 61 
Q 1981 -91 1556 -91 
Q 1019 -91 701 211 
Q 384 513 384 1019 
Q 384 1609 779 1909 
Q 1175 2209 1959 2209 
L 2766 2209 
L 2766 2266 
Q 2766 2663 2505 2880 
Q 2244 3097 1772 3097 
Q 1472 3097 1187 3025 
Q 903 2953 641 2809 
L 641 3341 
Q 956 3463 1253 3523 
Q 1550 3584 1831 3584 
Q 2591 3584 2966 3190 
Q 3341 2797 3341 1997 
z
" transform="scale(0.015625)"/>
       <path id="DejaVuSans-6d" d="M 3328 2828 
Q 3544 3216 3844 3400 
Q 4144 3584 4550 3584 
Q 5097 3584 5394 3201 
Q 5691 2819 5691 2113 
L 5691 0 
L 5113 0 
L 5113 2094 
Q 5113 2597 4934 2840 
Q 4756 3084 4391 3084 
Q 3944 3084 3684 2787 
Q 3425 2491 3425 1978 
L 3425 0 
L 2847 0 
L 2847 2094 
Q 2847 2600 2669 2842 
Q 2491 3084 2119 3084 
Q 1678 3084 1418 2786 
Q 1159 2488 1159 1978 
L 1159 0 
L 581 0 
L 581 3500 
L 1159 3500 
L 1159 2956 
Q 1356 3278 1631 3431 
Q 1906 3584 2284 3584 
Q 2666 3584 2933 3390 
Q 3200 3197 3328 2828 
z
" transform="scale(0.015625)"/>
       <path id="DejaVuSans-70" d="M 1159 525 
L 1159 -1331 
L 581 -1331 
L 581 3500 
L 1159 3500 
L 1159 2969 
Q 1341 3281 1617 3432 
Q 1894 3584 2278 3584 
Q 2916 3584 3314 3078 
Q 3713 2572 3713 1747 
Q 3713 922 3314 415 
Q 2916 -91 2278 -91 
Q 1894 -91 1617 61 
Q 1341 213 1159 525 
z
M 3116 1747 
Q 3116 2381 2855 2742 
Q 2594 3103 2138 3103 
Q 1681 3103 1420 2742 
Q 1159 2381 1159 1747 
Q 1159 1113 1420 752 
Q 1681 391 2138 391 
Q 2594 391 2855 752 
Q 3116 1113 3116 1747 
z
" transform="scale(0.015625)"/>
       <path id="DejaVuSans-6c" d="M 603 4863 
L 1178 4863 
L 1178 0 
L 603 0 
L 603 4863 
z
" transform="scale(0.015625)"/>
       <path id="DejaVuSans-69" d="M 603 3500 
L 1178 3500 
L 1178 0 
L 603 0 
L 603 3500 
z
M 603 4863 
L 1178 4863 
L 1178 4134 
L 603 4134 
L 603 4863 
z
" transform="scale(0.015625)"/>
       <path id="DejaVuSans-74" d="M 1172 4494 
L 1172 3500 
L 2356 3500 
L 2356 3053 
L 1172 3053 
L 1172 1153 
Q 1172 725 1289 603 
Q 1406 481 1766 481 
L 2356 481 
L 2356 0 
L 1766 0 
Q 1100 0 847 248 
Q 594 497 594 1153 
L 594 3053 
L 172 3053 
L 172 3500 
L 594 3500 
L 594 4494 
L 1172 4494 
z
" transform="scale(0.015625)"/>
       <path id="DejaVuSans-75" d="M 544 1381 
L 544 3500 
L 1119 3500 
L 1119 1403 
Q 1119 906 1312 657 
Q 1506 409 1894 409 
Q 2359 409 2629 706 
Q 2900 1003 2900 1516 
L 2900 3500 
L 3475 3500 
L 3475 0 
L 2900 0 
L 2900 538 
Q 2691 219 2414 64 
Q 2138 -91 1772 -91 
Q 1169 -91 856 284 
Q 544 659 544 1381 
z
M 1991 3584 
L 1991 3584 
z
" transform="scale(0.015625)"/>
       <path id="DejaVuSans-64" d="M 2906 2969 
L 2906 4863 
L 3481 4863 
L 3481 0 
L 2906 0 
L 2906 525 
Q 2725 213 2448 61 
Q 2172 -91 1784 -91 
Q 1150 -91 751 415 
Q 353 922 353 1747 
Q 353 2572 751 3078 
Q 1150 3584 1784 3584 
Q 2172 3584 2448 3432 
Q 2725 3281 2906 2969 
z
M 947 1747 
Q 947 1113 1208 752 
Q 1469 391 1925 391 
Q 2381 391 2643 752 
Q 2906 1113 2906 1747 
Q 2906 2381 2643 2742 
Q 2381 3103 1925 3103 
Q 1469 3103 1208 2742 
Q 947 2381 947 1747 
z
" transform="scale(0.015625)"/>
       <path id="DejaVuSans-65" d="M 3597 1894 
L 3597 1613 
L 953 1613 
Q 991 1019 1311 708 
Q 1631 397 2203 397 
Q 2534 397 2845 478 
Q 3156 559 3463 722 
L 3463 178 
Q 3153 47 2828 -22 
Q 2503 -91 2169 -91 
Q 1331 -91 842 396 
Q 353 884 353 1716 
Q 353 2575 817 3079 
Q 1281 3584 2069 3584 
Q 2775 3584 3186 3129 
Q 3597 2675 3597 1894 
z
M 3022 2063 
Q 3016 2534 2758 2815 
Q 2500 3097 2075 3097 
Q 1594 3097 1305 2825 
Q 1016 2553 972 2059 
L 3022 2063 
z
" transform="scale(0.015625)"/>
      </defs>
      <use xlink:href="#DejaVuSans-61"/>
      <use xlink:href="#DejaVuSans-6d" transform="translate(61.279297 0)"/>
      <use xlink:href="#DejaVuSans-70" transform="translate(158.691406 0)"/>
      <use xlink:href="#DejaVuSans-6c" transform="translate(222.167969 0)"/>
      <use xlink:href="#DejaVuSans-69" transform="translate(249.951172 0)"/>
      <use xlink:href="#DejaVuSans-74" transform="translate(277.734375 0)"/>
      <use xlink:href="#DejaVuSans-75" transform="translate(316.943359 0)"/>
      <use xlink:href="#DejaVuSans-64" transform="translate(380.322266 0)"/>
      <use xlink:href="#DejaVuSans-65" transform="translate(443.798828 0)"/>
     </g>
    </g>
   </g>
   <g id="line2d_1">
    <path d="M 42.866676 85.598281 
L 43.716083 51.763414 
L 44.198179 40.261075 
L 44.531054 36.687188 
L 44.691753 36.300312 
L 44.71471 36.315827 
L 44.818016 36.601827 
L 45.001671 37.964556 
L 45.277155 41.939895 
L 45.690379 51.64701 
L 46.356131 73.500426 
L 47.526934 111.579952 
L 48.00903 120.710907 
L 48.341906 123.626589 
L 48.514083 123.992248 
L 48.53704 123.98239 
L 48.640346 123.769561 
L 48.824001 122.725281 
L 49.099485 119.652683 
L 49.501231 112.370315 
L 50.155504 95.76337 
L 51.360743 65.216885 
L 51.842839 58.174192 
L 52.175714 55.955943 
L 52.347891 55.698428 
L 52.35937 55.702734 
L 52.474155 55.891475 
L 52.65781 56.732267 
L 52.944772 59.292741 
L 53.357997 65.271043 
L 54.035226 78.847192 
L 55.171595 101.246113 
L 55.665169 106.92692 
L 55.998044 108.674179 
L 56.1817 108.882274 
L 56.193178 108.87752 
L 56.319442 108.689357 
L 56.526054 107.858094 
L 56.835973 105.480292 
L 57.283633 100.051874 
L 58.098604 86.819739 
L 59.005403 73.3221 
L 59.487499 69.010478 
L 59.820375 67.634386 
L 60.015508 67.467011 
L 60.15325 67.630184 
L 60.359863 68.296119 
L 60.669781 70.172898 
L 61.117441 74.42795 
L 61.943891 84.900614 
L 62.839212 95.228332 
L 63.321308 98.553863 
L 63.654183 99.600772 
L 63.860796 99.711967 
L 64.021494 99.517433 
L 64.262542 98.785094 
L 64.606896 96.908353 
L 65.123427 92.665787 
L 66.959982 76.326534 
L 67.35025 74.912512 
L 67.614255 74.600486 
L 67.786432 74.678237 
L 68.004523 75.084242 
L 68.314441 76.207998 
L 68.762102 78.772818 
L 69.577073 85.023603 
L 70.483872 91.398702 
L 70.977446 93.467737 
L 71.310322 94.094917 
L 71.539891 94.149146 
L 71.746504 93.939383 
L 72.033465 93.2667 
L 72.435212 91.6791 
L 73.078006 88.07609 
L 74.340638 80.952405 
L 74.822733 79.427684 
L 75.155609 78.968342 
L 75.396657 78.951261 
L 75.637705 79.191822 
L 75.959102 79.882168 
L 76.41824 81.474845 
L 77.256169 85.380564 
L 78.151489 89.167257 
L 78.645063 90.397722 
L 78.989417 90.765313 
L 79.253422 90.762063 
L 79.528905 90.50415 
L 79.884738 89.823419 
L 80.401269 88.289367 
L 82.318173 82.091312 
L 82.71992 81.620717 
L 83.029838 81.561719 
L 83.328279 81.749675 
L 83.69559 82.279477 
L 84.223599 83.492496 
L 86.151982 88.339777 
L 86.565207 88.704891 
L 86.898082 88.732359 
L 87.230958 88.529531 
L 87.655661 87.977026 
L 88.275499 86.750283 
L 89.733264 83.760312 
L 90.226838 83.258077 
L 90.617106 83.144196 
L 90.984417 83.266464 
L 91.420599 83.669988 
L 92.028958 84.576129 
L 93.647422 87.121065 
L 94.152475 87.462428 
L 94.577178 87.494288 
L 95.01336 87.292936 
L 95.552848 86.774614 
L 96.597388 85.37243 
L 97.423838 84.451591 
L 97.974805 84.147514 
L 98.445422 84.129076 
L 98.938996 84.337501 
L 99.58179 84.877143 
L 101.464259 86.61069 
L 102.026704 86.756811 
L 102.566192 86.665647 
L 103.197508 86.317069 
L 105.630943 84.717673 
L 106.239302 84.729866 
L 106.916532 84.981178 
L 108.098814 85.719619 
L 109.063006 86.196204 
L 109.763192 86.301168 
L 110.474857 86.176012 
L 111.439049 85.750436 
L 112.885336 85.133534 
L 113.67735 85.053513 
L 114.5038 85.204096 
L 117.591508 86.018294 
L 118.555699 85.848418 
L 121.138355 85.266595 
L 122.171417 85.362027 
L 125.396867 85.845459 
L 126.774283 85.648406 
L 128.691187 85.398681 
L 130.034168 85.480161 
L 133.01857 85.749299 
L 134.935474 85.571316 
L 136.817943 85.479977 
L 139.159551 85.650096 
L 141.11089 85.675261 
L 145.782627 85.57735 
L 148.98512 85.638326 
L 153.702771 85.594371 
L 157.398838 85.604654 
L 157.639885 85.598499 
L 157.685799 83.896937 
L 158.512249 51.322211 
L 158.994345 40.030593 
L 159.315742 36.672636 
L 159.47644 36.30129 
L 159.499397 36.319002 
L 159.602704 36.614781 
L 159.786359 37.9943 
L 160.073321 42.20623 
L 160.486546 52.051779 
L 161.163775 74.426414 
L 162.300144 111.368974 
L 162.793718 120.748345 
L 163.126594 123.639073 
L 163.298771 123.991765 
L 163.321728 123.980195 
L 163.436512 123.718385 
L 163.631646 122.511985 
L 163.918608 119.107322 
L 164.343311 111.039521 
L 165.054976 92.474093 
L 166.122474 65.599618 
L 166.616048 58.26132 
L 166.948924 55.984755 
L 167.132579 55.699255 
L 167.144058 55.704227 
L 167.258842 55.89956 
L 167.442498 56.750524 
L 167.72946 59.325508 
L 168.142684 65.320468 
L 168.831393 79.159763 
L 169.956282 101.28883 
L 170.449857 106.949449 
L 170.782732 108.681567 
L 170.966388 108.88128 
L 170.977866 108.876008 
L 171.104129 108.682212 
L 171.310742 107.842122 
L 171.62066 105.452442 
L 172.068321 100.010965 
L 172.883292 86.771102 
L 173.790091 73.28905 
L 174.272187 68.992804 
L 174.605062 67.6285 
L 174.800196 67.468058 
L 174.937938 67.636014 
L 175.14455 68.308807 
L 175.454469 70.194799 
L 175.913608 74.588433 
L 176.763014 85.391312 
L 177.6239 95.2539 
L 178.105995 98.56742 
L 178.438871 99.605141 
L 178.645483 99.710626 
L 178.806182 99.511774 
L 179.04723 98.773333 
L 179.391584 96.889039 
L 179.908115 92.63872 
L 181.74467 76.312128 
L 182.134938 74.906293 
L 182.398943 74.599978 
L 182.57112 74.681379 
L 182.789211 75.091793 
L 183.099129 76.221158 
L 183.558268 78.86976 
L 184.396196 85.321796 
L 185.280038 91.476356 
L 185.762134 93.475893 
L 186.09501 94.097499 
L 186.3131 94.152639 
L 186.519713 93.952868 
L 186.795196 93.327342 
L 187.196943 91.773785 
L 187.81678 88.341154 
L 189.148282 80.84701 
L 189.618899 79.397521 
L 189.951775 78.959928 
L 190.181344 78.952635 
L 190.422392 79.196177 
L 190.743789 79.890075 
L 191.202928 81.486594 
L 192.040856 85.394464 
L 192.924698 89.139095 
L 193.418273 90.383172 
L 193.774105 90.766603 
L 194.03811 90.760689 
L 194.313593 90.500163 
L 194.669426 89.816505 
L 195.185957 88.279511 
L 197.091383 82.10614 
L 197.493129 81.626154 
L 197.803048 81.559794 
L 198.101488 81.741047 
L 198.468799 82.263685 
L 198.98533 83.439097 
L 200.959627 88.37311 
L 201.372852 88.715558 
L 201.705727 88.724644 
L 202.050081 88.493383 
L 202.486263 87.895655 
L 203.140536 86.563204 
L 204.46056 83.838511 
L 204.977091 83.278469 
L 205.378837 83.143817 
L 205.746148 83.254305 
L 206.170851 83.63255 
L 206.767732 84.503176 
L 208.466545 87.157059 
L 208.960119 87.471096 
L 209.384823 87.48873 
L 209.821005 87.274263 
L 210.371971 86.730346 
L 212.621751 84.194314 
L 213.103847 84.112342 
L 213.585942 84.259497 
L 214.171344 84.691895 
L 216.52443 86.714162 
L 217.063918 86.740835 
L 217.626363 86.539185 
L 218.383942 86.003677 
L 219.933536 84.866986 
L 220.57633 84.698754 
L 221.184689 84.770063 
L 221.907832 85.096647 
L 224.134655 86.267992 
L 224.823363 86.278202 
L 225.580942 86.055674 
L 228.255425 85.051764 
L 229.04744 85.139741 
L 230.137894 85.516177 
L 231.584181 85.976527 
L 232.468023 86.011327 
L 233.46665 85.812681 
L 235.762344 85.271783 
L 236.772449 85.331164 
L 238.597526 85.731521 
L 239.825722 85.856964 
L 241.030961 85.743196 
L 243.774315 85.398065 
L 245.220602 85.535641 
L 247.504818 85.755102 
L 249.13476 85.63708 
L 251.499325 85.477872 
L 253.622841 85.625857 
L 255.688966 85.683313 
L 261.106803 85.606457 
L 263.815722 85.636705 
L 268.407109 85.591825 
L 272.172047 85.604874 
L 272.424573 85.598426 
L 272.539358 80.654216 
L 273.319894 50.542217 
L 273.790511 39.806902 
L 274.111908 36.604057 
L 274.24965 36.299182 
L 274.284085 36.32245 
L 274.387391 36.628004 
L 274.571047 38.0243 
L 274.858009 42.260165 
L 275.271234 52.133206 
L 275.948463 74.529429 
L 277.084832 111.439471 
L 277.578406 120.785574 
L 277.911281 123.651339 
L 278.083458 123.991068 
L 278.094937 123.986138 
L 278.198243 123.788564 
L 278.37042 122.858539 
L 278.645903 119.894454 
L 279.04765 112.740473 
L 279.678966 96.877772 
L 280.941597 64.894058 
L 281.423693 58.004368 
L 281.74509 55.93758 
L 281.917267 55.700248 
L 281.928745 55.705886 
L 282.04353 55.907809 
L 282.238664 56.844122 
L 282.525626 59.491357 
L 282.950329 65.769526 
L 283.661994 80.22458 
L 284.729492 101.160368 
L 285.223066 106.881479 
L 285.555942 108.659009 
L 285.751076 108.880156 
L 285.877339 108.703268 
L 286.072473 107.951437 
L 286.370913 105.753231 
L 286.807095 100.617616 
L 287.553195 88.673941 
L 288.551822 73.522093 
L 289.045396 69.046126 
L 289.378272 67.646468 
L 289.584884 67.469206 
L 289.722626 67.641942 
L 289.940717 68.373621 
L 290.262114 70.395393 
L 290.732731 75.01141 
L 291.685444 87.217456 
L 292.454501 95.678745 
L 292.925119 98.736577 
L 293.246516 99.640867 
L 293.44165 99.702747 
L 293.613827 99.457454 
L 293.866353 98.614174 
L 294.233664 96.47076 
L 294.78463 91.730095 
L 296.403095 76.982451 
L 296.839276 75.095965 
L 297.126238 74.620183 
L 297.309894 74.640549 
L 297.505028 74.932391 
L 297.791989 75.83569 
L 298.205214 77.990432 
L 298.870965 82.857622 
L 300.053248 91.429879 
L 300.546822 93.484003 
L 300.879697 94.100033 
L 301.097788 94.151522 
L 301.304401 93.948418 
L 301.591362 93.284225 
L 301.993109 91.706299 
L 302.624425 88.182329 
L 303.910013 80.92877 
L 304.392109 79.415508 
L 304.724984 78.964863 
L 304.966032 78.954045 
L 305.20708 79.200566 
L 305.528477 79.898011 
L 305.987616 81.498361 
L 306.837023 85.463901 
L 307.709386 89.148506 
L 308.20296 90.388051 
L 308.558793 90.767864 
L 308.822798 90.759287 
L 309.098281 90.496149 
L 309.465592 89.781622 
L 309.993602 88.190306 
L 311.841635 82.162151 
L 312.25486 81.639643 
L 312.564779 81.556085 
L 312.85174 81.710992 
L 313.207573 82.18699 
L 313.701147 83.266905 
L 314.80308 86.411561 
L 315.514745 88.035179 
L 315.985362 88.619362 
L 316.341195 88.74981 
L 316.662592 88.636287 
L 317.041381 88.244466 
L 317.557913 87.352072 
L 319.635515 83.373989 
L 320.060219 83.152031 
L 320.42753 83.202764 
L 320.829276 83.497767 
L 321.357286 84.190496 
L 323.515238 87.365308 
L 323.962898 87.509491 
L 324.387601 87.40768 
L 324.869697 87.042768 
L 325.569884 86.189841 
L 326.9473 84.484955 
L 327.509745 84.155923 
L 327.991841 84.125843 
L 328.485415 84.326734 
L 329.116731 84.848529 
L 331.056592 86.624111 
L 331.619037 86.757554 
L 332.158525 86.654899 
L 332.801319 86.288246 
L 335.131448 84.729409 
L 335.739807 84.718325 
L 336.39408 84.937978 
L 337.404185 85.552995 
L 338.540553 86.167511 
L 339.252219 86.301162 
L 339.952405 86.202165 
L 340.859204 85.82343 
L 342.489147 85.123931 
L 343.281161 85.055657 
L 344.107611 85.21631 
L 347.080534 86.022037 
L 348.021769 85.873955 
L 350.845472 85.266782 
L 351.91297 85.396747 
L 354.679281 85.856343 
L 355.907477 85.727132 
L 358.455697 85.396894 
L 359.85607 85.51478 
L 362.358376 85.754522 
L 364.034233 85.623616 
L 366.272534 85.477728 
L 368.384572 85.624212 
L 370.462175 85.683606 
L 375.914448 85.607797 
L 378.611888 85.636219 
L 383.16884 85.591164 
L 386.956735 85.604801 
L 387.209261 85.598354 
L 387.622486 67.674993 
L 388.253802 46.332481 
L 388.678505 38.364284 
L 388.953988 36.392029 
L 389.045816 36.30407 
L 389.080251 36.3438 
L 389.206515 36.824279 
L 389.413127 38.712657 
L 389.723046 43.919202 
L 390.182184 55.95137 
L 391.054548 86.180116 
L 391.892476 112.066217 
L 392.374572 120.968555 
L 392.695969 123.663389 
L 392.868146 123.990157 
L 392.879625 123.984371 
L 392.982931 123.779167 
L 393.166586 122.747989 
L 393.44207 119.693417 
L 393.843816 112.432326 
L 394.498089 95.84316 
L 395.714806 65.054864 
L 396.196902 58.088541 
L 396.529778 55.928653 
L 396.701955 55.701408 
L 396.713433 55.707712 
L 396.828218 55.91622 
L 397.023352 56.863302 
L 397.321792 59.660538 
L 397.757974 66.226028 
L 398.504074 81.542353 
L 399.51418 101.203292 
L 400.007754 106.904264 
L 400.340629 108.66666 
L 400.535763 108.878903 
L 400.662026 108.696375 
L 400.85716 107.936177 
L 401.155601 105.726396 
L 401.591782 100.577646 
L 402.349361 88.429551 
L 403.33651 73.48856 
L 403.830084 69.028253 
L 404.162959 67.640376 
L 404.369572 67.470454 
L 404.518792 67.673052 
L 404.736883 68.440717 
L 405.05828 70.509517 
L 405.528897 75.176225 
L 406.539002 88.129517 
L 407.273624 95.990888 
L 407.732763 98.845961 
L 408.042682 99.657921 
L 408.226337 99.700937 
L 408.398514 99.451042 
L 408.651041 98.601453 
L 409.018352 96.450248 
L 409.569318 91.702127 
L 411.187782 76.965697 
L 411.623964 75.088137 
L 411.910926 74.618563 
L 412.094581 74.64285 
L 412.301194 74.964492 
L 412.588156 75.894669 
L 413.00138 78.080429 
L 413.67861 83.06414 
L 414.826457 91.383056 
L 415.320031 93.459534 
L 415.664385 94.102518 
L 415.882476 94.150357 
L 416.089089 93.943923 
L 416.37605 93.275482 
L 416.777797 91.692714 
L 417.420591 88.093816 
L 418.683222 80.964269 
L 419.165318 79.433827 
L 419.509672 78.96318 
L 419.75072 78.955492 
L 419.991768 79.204989 
L 420.313165 79.905976 
L 420.772304 81.510147 
L 421.62171 85.477775 
L 422.494074 89.157893 
L 422.987648 90.392901 
L 423.332002 90.763994 
L 423.596007 90.763408 
L 423.87149 90.508112 
L 424.227323 89.830311 
L 424.743854 88.299212 
L 426.660758 82.096233 
L 427.062505 81.622506 
L 427.372423 81.561055 
L 427.670864 81.746778 
L 428.038175 82.274196 
L 428.554706 83.454308 
L 430.517524 88.365821 
L 430.930749 88.713312 
L 431.263624 88.726478 
L 431.607978 88.499112 
L 432.04416 87.905396 
L 432.698433 86.576197 
L 434.029935 83.830083 
L 434.534988 83.282354 
L 434.936734 83.143832 
L 435.304045 83.250943 
L 435.728749 83.625869 
L 436.325629 84.49352 
L 438.035921 87.162452 
L 438.529495 87.472904 
L 438.954198 87.487382 
L 439.39038 87.270018 
L 439.941347 86.723459 
L 442.179648 84.196714 
L 442.661744 84.111931 
L 443.143839 84.256508 
L 443.729241 84.686622 
L 445.003351 86.010129 
L 445.76093 86.586461 
L 446.334854 86.754871 
L 446.874342 86.678784 
L 447.494179 86.351208 
L 448.653504 85.414129 
L 449.537347 84.849292 
L 450.168662 84.697144 
L 450.777021 84.778592 
L 451.511643 85.120236 
L 453.63516 86.255704 
L 454.323868 86.286521 
L 455.069968 86.086121 
L 456.504777 85.3932 
L 457.446012 85.088806 
L 458.226547 85.070321 
L 459.098911 85.285363 
L 461.532346 86.019477 
L 462.427667 85.957144 
L 463.690299 85.611577 
L 465.10215 85.288859 
L 466.100777 85.298958 
L 467.420801 85.564795 
L 469.050743 85.847635 
L 470.19859 85.801777 
L 473.963528 85.433948 
L 478.049863 85.705027 
L 481.573753 85.496305 
L 486.16514 85.634456 
L 489.264327 85.537709 
L 494.314853 85.599408 
L 497.505868 85.576923 
L 501.9136 85.600322 
L 501.993949 85.598281 
L 501.993949 85.598281 
" clip-path="url(#p92d523d411)" style="fill: none; stroke: currentColor; stroke-width: 1.3; stroke-linecap: square"/>
   </g>
   <g id="line2d_2">
    <path d="M 19.910313 85.598281 
L 524.950312 85.598281 
" clip-path="url(#p92d523d411)" style="fill: none; stroke: currentColor; stroke-opacity: 0.4; stroke-width: 0.6; stroke-linecap: square"/>
   </g>
   <g id="patch_3">
    <path d="M 19.910313 149.638281 
L 19.910313 21.558281 
" style="fill: none; stroke: currentColor; stroke-width: 0.8; stroke-linejoin: miter; stroke-linecap: square"/>
   </g>
   <g id="patch_4">
    <path d="M 19.910312 149.638281 
L 524.950312 149.638281 
" style="fill: none; stroke: currentColor; stroke-width: 0.8; stroke-linejoin: miter; stroke-linecap: square"/>
   </g>
   <g id="text_2">
    <!-- Damped wave (spark) -->
    <g transform="translate(19.910313 15.558281) scale(0.11 -0.11)">
     <defs>
      <path id="DejaVuSans-44" d="M 1259 4147 
L 1259 519 
L 2022 519 
Q 2988 519 3436 956 
Q 3884 1394 3884 2338 
Q 3884 3275 3436 3711 
Q 2988 4147 2022 4147 
L 1259 4147 
z
M 628 4666 
L 1925 4666 
Q 3281 4666 3915 4102 
Q 4550 3538 4550 2338 
Q 4550 1131 3912 565 
Q 3275 0 1925 0 
L 628 0 
L 628 4666 
z
" transform="scale(0.015625)"/>
      <path id="DejaVuSans-20" transform="scale(0.015625)"/>
      <path id="DejaVuSans-77" d="M 269 3500 
L 844 3500 
L 1563 769 
L 2278 3500 
L 2956 3500 
L 3675 769 
L 4391 3500 
L 4966 3500 
L 4050 0 
L 3372 0 
L 2619 2869 
L 1863 0 
L 1184 0 
L 269 3500 
z
" transform="scale(0.015625)"/>
      <path id="DejaVuSans-76" d="M 191 3500 
L 800 3500 
L 1894 563 
L 2988 3500 
L 3597 3500 
L 2284 0 
L 1503 0 
L 191 3500 
z
" transform="scale(0.015625)"/>
      <path id="DejaVuSans-28" d="M 1984 4856 
Q 1566 4138 1362 3434 
Q 1159 2731 1159 2009 
Q 1159 1288 1364 580 
Q 1569 -128 1984 -844 
L 1484 -844 
Q 1016 -109 783 600 
Q 550 1309 550 2009 
Q 550 2706 781 3412 
Q 1013 4119 1484 4856 
L 1984 4856 
z
" transform="scale(0.015625)"/>
      <path id="DejaVuSans-73" d="M 2834 3397 
L 2834 2853 
Q 2591 2978 2328 3040 
Q 2066 3103 1784 3103 
Q 1356 3103 1142 2972 
Q 928 2841 928 2578 
Q 928 2378 1081 2264 
Q 1234 2150 1697 2047 
L 1894 2003 
Q 2506 1872 2764 1633 
Q 3022 1394 3022 966 
Q 3022 478 2636 193 
Q 2250 -91 1575 -91 
Q 1294 -91 989 -36 
Q 684 19 347 128 
L 347 722 
Q 666 556 975 473 
Q 1284 391 1588 391 
Q 1994 391 2212 530 
Q 2431 669 2431 922 
Q 2431 1156 2273 1281 
Q 2116 1406 1581 1522 
L 1381 1569 
Q 847 1681 609 1914 
Q 372 2147 372 2553 
Q 372 3047 722 3315 
Q 1072 3584 1716 3584 
Q 2034 3584 2315 3537 
Q 2597 3491 2834 3397 
z
" transform="scale(0.015625)"/>
      <path id="DejaVuSans-72" d="M 2631 2963 
Q 2534 3019 2420 3045 
Q 2306 3072 2169 3072 
Q 1681 3072 1420 2755 
Q 1159 2438 1159 1844 
L 1159 0 
L 581 0 
L 581 3500 
L 1159 3500 
L 1159 2956 
Q 1341 3275 1631 3429 
Q 1922 3584 2338 3584 
Q 2397 3584 2469 3576 
Q 2541 3569 2628 3553 
L 2631 2963 
z
" transform="scale(0.015625)"/>
      <path id="DejaVuSans-6b" d="M 581 4863 
L 1159 4863 
L 1159 1991 
L 2875 3500 
L 3609 3500 
L 1753 1863 
L 3688 0 
L 2938 0 
L 1159 1709 
L 1159 0 
L 581 0 
L 581 4863 
z
" transform="scale(0.015625)"/>
      <path id="DejaVuSans-29" d="M 513 4856 
L 1013 4856 
Q 1481 4119 1714 3412 
Q 1947 2706 1947 2009 
Q 1947 1309 1714 600 
Q 1481 -109 1013 -844 
L 513 -844 
Q 928 -128 1133 580 
Q 1338 1288 1338 2009 
Q 1338 2731 1133 3434 
Q 928 4138 513 4856 
z
" transform="scale(0.015625)"/>
     </defs>
     <use xlink:href="#DejaVuSans-44"/>
     <use xlink:href="#DejaVuSans-61" transform="translate(77.001953 0)"/>
     <use xlink:href="#DejaVuSans-6d" transform="translate(138.28125 0)"/>
     <use xlink:href="#DejaVuSans-70" transform="translate(235.693359 0)"/>
     <use xlink:href="#DejaVuSans-65" transform="translate(299.169922 0)"/>
     <use xlink:href="#DejaVuSans-64" transform="translate(360.693359 0)"/>
     <use xlink:href="#DejaVuSans-20" transform="translate(424.169922 0)"/>
     <use xlink:href="#DejaVuSans-77" transform="translate(455.957031 0)"/>
     <use xlink:href="#DejaVuSans-61" transform="translate(537.744141 0)"/>
     <use xlink:href="#DejaVuSans-76" transform="translate(599.023438 0)"/>
     <use xlink:href="#DejaVuSans-65" transform="translate(658.203125 0)"/>
     <use xlink:href="#DejaVuSans-20" transform="translate(719.726562 0)"/>
     <use xlink:href="#DejaVuSans-28" transform="translate(751.513672 0)"/>
     <use xlink:href="#DejaVuSans-73" transform="translate(790.527344 0)"/>
     <use xlink:href="#DejaVuSans-70" transform="translate(842.626953 0)"/>
     <use xlink:href="#DejaVuSans-61" transform="translate(906.103516 0)"/>
     <use xlink:href="#DejaVuSans-72" transform="translate(967.382812 0)"/>
     <use xlink:href="#DejaVuSans-6b" transform="translate(1008.496094 0)"/>
     <use xlink:href="#DejaVuSans-29" transform="translate(1066.40625 0)"/>
    </g>
   </g>
  </g>
  <g id="axes_2">
   <g id="patch_5">
    <path d="M 19.910313 303.158281 
L 524.950312 303.158281 
L 524.950312 175.078281 
L 19.910313 175.078281 
L 19.910313 303.158281 
z
" style="fill: none"/>
   </g>
   <g id="matplotlib.axis_3">
    <g id="text_3">
     <!-- time -->
     <g transform="translate(262.263828 313.996875) scale(0.09 -0.09)">
      <use xlink:href="#DejaVuSans-74"/>
      <use xlink:href="#DejaVuSans-69" transform="translate(39.208984 0)"/>
      <use xlink:href="#DejaVuSans-6d" transform="translate(66.992188 0)"/>
      <use xlink:href="#DejaVuSans-65" transform="translate(164.404297 0)"/>
     </g>
    </g>
   </g>
   <g id="matplotlib.axis_4">
    <g id="text_4">
     <!-- amplitude -->
     <g transform="translate(14.038594 261.858047) rotate(-90) scale(0.09 -0.09)">
      <use xlink:href="#DejaVuSans-61"/>
      <use xlink:href="#DejaVuSans-6d" transform="translate(61.279297 0)"/>
      <use xlink:href="#DejaVuSans-70" transform="translate(158.691406 0)"/>
      <use xlink:href="#DejaVuSans-6c" transform="translate(222.167969 0)"/>
      <use xlink:href="#DejaVuSans-69" transform="translate(249.951172 0)"/>
      <use xlink:href="#DejaVuSans-74" transform="translate(277.734375 0)"/>
      <use xlink:href="#DejaVuSans-75" transform="translate(316.943359 0)"/>
      <use xlink:href="#DejaVuSans-64" transform="translate(380.322266 0)"/>
      <use xlink:href="#DejaVuSans-65" transform="translate(443.798828 0)"/>
     </g>
    </g>
   </g>
   <g id="line2d_3">
    <path d="M 42.866676 239.118281 
L 43.865303 198.4039 
L 44.33592 187.087747 
L 44.645839 183.767398 
L 44.78358 183.431606 
L 44.818016 183.458873 
L 44.921322 183.807381 
L 45.104978 185.405689 
L 45.380461 190.070119 
L 45.782207 201.256191 
L 46.390566 225.442921 
L 47.790939 282.799475 
L 48.2386 292.293605 
L 48.525561 294.684519 
L 48.617389 294.802702 
L 48.663303 294.743106 
L 48.789566 294.17227 
L 48.996178 291.96835 
L 49.306097 285.849025 
L 49.742279 272.26708 
L 50.465422 241.558054 
L 51.521442 198.278796 
L 51.992059 187.022564 
L 52.301977 183.747548 
L 52.439719 183.432494 
L 52.474155 183.464953 
L 52.588939 183.894061 
L 52.784073 185.744352 
L 53.071035 190.92699 
L 53.48426 202.961726 
L 54.127054 229.212249 
L 55.401164 281.585654 
L 55.860303 291.864069 
L 56.158743 294.620811 
L 56.262049 294.804913 
L 56.307963 294.758173 
L 56.422748 294.295808 
L 56.617882 292.390087 
L 56.916322 286.863067 
L 57.341025 274.19567 
L 58.006776 246.600939 
L 59.200537 197.450389 
L 59.671154 186.599618 
L 59.969595 183.676629 
L 60.095858 183.433987 
L 60.130293 183.471639 
L 60.245078 183.917993 
L 60.440212 185.797036 
L 60.727174 191.019301 
L 61.140398 203.101633 
L 61.783193 229.393071 
L 63.045824 281.364181 
L 63.504963 291.753675 
L 63.803403 294.592028 
L 63.918188 294.803982 
L 63.952623 294.771152 
L 64.067408 294.340812 
L 64.262542 292.488466 
L 64.549504 287.302996 
L 64.962729 275.264856 
L 65.605523 249.011401 
L 66.868154 196.983714 
L 67.327293 186.538826 
L 67.625733 183.659707 
L 67.740518 183.431696 
L 67.786432 183.478931 
L 67.901217 183.942527 
L 68.096351 185.8503 
L 68.394791 191.38025 
L 68.819494 204.051085 
L 69.485245 231.648626 
L 70.679006 280.794877 
L 71.149623 291.641306 
L 71.448063 294.561162 
L 71.574327 294.802446 
L 71.608762 294.764423 
L 71.723547 294.316837 
L 71.918681 292.435741 
L 72.217121 286.943916 
L 72.641824 274.31782 
L 73.307575 246.756936 
L 74.501336 197.555013 
L 74.971953 186.652181 
L 75.281872 183.643389 
L 75.396657 183.43267 
L 75.431092 183.465871 
L 75.545877 183.897443 
L 75.741011 185.751843 
L 76.027972 190.940145 
L 76.441197 202.981689 
L 77.083992 229.238074 
L 78.346623 281.261427 
L 78.805762 291.702057 
L 79.104202 294.578041 
L 79.218987 294.804817 
L 79.253422 294.776438 
L 79.356728 294.424601 
L 79.540384 292.820471 
L 79.815867 288.147792 
L 80.217614 276.951497 
L 80.825972 252.75548 
L 82.226346 195.412683 
L 82.674006 185.931282 
L 82.960968 183.549467 
L 83.052795 183.43425 
L 83.098709 183.49533 
L 83.224972 184.070224 
L 83.431585 186.28063 
L 83.741503 192.408958 
L 84.177685 206.00112 
L 84.900829 236.717835 
L 85.956848 279.984516 
L 86.427465 291.227893 
L 86.737384 294.49319 
L 86.875125 294.8038 
L 86.909561 294.770228 
L 87.024346 294.337424 
L 87.21948 292.48097 
L 87.506441 287.289835 
L 87.919666 275.244889 
L 88.56246 248.985575 
L 89.825092 196.96656 
L 90.284231 186.530188 
L 90.582671 183.657339 
L 90.697456 183.431798 
L 90.731891 183.460548 
L 90.835197 183.813494 
L 91.018853 185.419565 
L 91.294336 190.094993 
L 91.696082 201.294695 
L 92.304441 225.493805 
L 93.704814 282.832009 
L 94.152475 292.309166 
L 94.439436 294.687949 
L 94.531264 294.802177 
L 94.5657 294.763412 
L 94.680484 294.313363 
L 94.875618 292.428162 
L 95.174058 286.930468 
L 95.598762 274.297481 
L 96.264513 246.730941 
L 97.458274 197.537553 
L 97.928891 186.643391 
L 98.23881 183.641107 
L 98.353594 183.432859 
L 98.38803 183.466802 
L 98.502814 183.900837 
L 98.697948 185.759346 
L 98.98491 190.953311 
L 99.398135 203.001659 
L 100.040929 229.263902 
L 101.303561 281.278576 
L 101.762699 291.710689 
L 102.06114 294.580403 
L 102.175924 294.804709 
L 102.21036 294.775588 
L 102.313666 294.421532 
L 102.497321 292.813521 
L 102.772805 288.135344 
L 103.174551 276.932237 
L 103.78291 252.730035 
L 105.183283 195.396426 
L 105.630943 185.923513 
L 105.917905 183.547764 
L 106.009733 183.434525 
L 106.044168 183.473661 
L 106.158953 183.924942 
L 106.354087 185.812195 
L 106.652527 191.312823 
L 107.07723 203.949254 
L 107.742982 231.51862 
L 108.936742 280.707736 
L 109.40736 291.597562 
L 109.717278 294.596591 
L 109.832063 294.803605 
L 109.866498 294.769291 
L 109.981283 294.334023 
L 110.176417 292.473461 
L 110.463379 287.276664 
L 110.876604 275.224915 
L 111.519398 248.959747 
L 112.782029 196.949416 
L 113.241168 186.521561 
L 113.539608 183.654983 
L 113.654393 183.431913 
L 113.688829 183.461405 
L 113.792135 183.81657 
L 113.97579 185.426521 
L 114.251273 190.107447 
L 114.65302 201.313959 
L 115.261379 225.519251 
L 116.661752 282.848262 
L 117.109412 292.316929 
L 117.396374 294.689645 
L 117.488202 294.801895 
L 117.522637 294.762389 
L 117.637422 294.309876 
L 117.832556 292.42057 
L 118.130996 286.917009 
L 118.555699 274.277135 
L 119.22145 246.704944 
L 120.415211 197.520102 
L 120.885828 186.634613 
L 121.195747 183.638838 
L 121.310532 183.43306 
L 121.344967 183.467744 
L 121.459752 183.904244 
L 121.654886 185.76686 
L 121.941848 190.966488 
L 122.355072 203.021638 
L 122.997867 229.289731 
L 124.260498 281.295716 
L 124.719637 291.71931 
L 125.018077 294.582752 
L 125.132862 294.804588 
L 125.167297 294.774725 
L 125.270604 294.41845 
L 125.454259 292.80656 
L 125.729742 288.122885 
L 126.131489 276.912968 
L 126.739848 252.704587 
L 128.140221 195.380178 
L 128.576403 186.073137 
L 128.863364 183.582218 
L 128.96667 183.434813 
L 129.001106 183.47469 
L 129.115891 183.928434 
L 129.311025 185.819792 
L 129.609465 191.326287 
L 130.034168 203.969604 
L 130.699919 231.544618 
L 131.89368 280.725183 
L 132.364297 291.606334 
L 132.662737 294.551247 
L 132.789001 294.803398 
L 132.823436 294.768342 
L 132.938221 294.330611 
L 133.133355 292.465941 
L 133.420316 287.263482 
L 133.833541 275.204932 
L 134.476335 248.933916 
L 135.738967 196.932281 
L 136.198106 186.512947 
L 136.496546 183.65264 
L 136.611331 183.432039 
L 136.645766 183.462273 
L 136.760551 183.883988 
L 136.955685 185.721951 
L 137.242646 190.887589 
L 137.655871 202.901886 
L 138.298666 229.134787 
L 139.572776 281.534686 
L 140.031914 291.838769 
L 140.330355 294.614354 
L 140.433661 294.805126 
L 140.479575 294.761353 
L 140.594359 294.306377 
L 140.789493 292.412967 
L 141.087933 286.903539 
L 141.512637 274.25678 
L 142.178388 246.678945 
L 143.372149 197.50266 
L 143.842766 186.625847 
L 144.141206 183.684066 
L 144.267469 183.433273 
L 144.301905 183.4687 
L 144.416689 183.907663 
L 144.611823 185.774386 
L 144.898785 190.979675 
L 145.31201 203.041625 
L 145.954804 229.315563 
L 147.217436 281.312846 
L 147.676575 291.727919 
L 147.975015 294.58509 
L 148.089799 294.804455 
L 148.124235 294.77385 
L 148.23902 294.350903 
L 148.434154 292.510885 
L 148.721115 287.342413 
L 149.13434 275.324708 
L 149.777134 249.088866 
L 151.051244 196.693376 
L 151.510383 186.39357 
L 151.808823 183.621125 
L 151.91213 183.431464 
L 151.958043 183.475731 
L 152.072828 183.931939 
L 152.267962 185.827401 
L 152.566402 191.339762 
L 152.991106 203.989963 
L 153.656857 231.570617 
L 154.850618 280.74262 
L 155.321235 291.615094 
L 155.619675 294.553744 
L 155.745938 294.803178 
L 155.780374 294.767381 
L 155.895158 294.327185 
L 156.090292 292.458409 
L 156.377254 287.25029 
L 156.790479 275.184941 
L 157.433273 248.908083 
L 158.695905 196.915155 
L 159.155043 186.504344 
L 159.453484 183.650309 
L 159.568268 183.432178 
L 159.602704 183.463154 
L 159.717488 183.887333 
L 159.912622 185.729407 
L 160.199584 190.900712 
L 160.612809 202.921825 
L 161.255603 229.160606 
L 162.529713 281.551685 
L 162.988852 291.847214 
L 163.287292 294.616518 
L 163.390598 294.805067 
L 163.436512 294.760306 
L 163.551297 294.302867 
L 163.746431 292.405352 
L 164.044871 286.890059 
L 164.469574 274.236418 
L 165.135326 246.652945 
L 166.329086 197.485227 
L 166.799704 186.617092 
L 167.098144 183.681575 
L 167.224407 183.433499 
L 167.258842 183.469667 
L 167.373627 183.911094 
L 167.568761 185.781924 
L 167.855723 190.992873 
L 168.268948 203.06162 
L 168.911742 229.341396 
L 170.174373 281.329967 
L 170.633512 291.736516 
L 170.931952 294.587415 
L 171.046737 294.80431 
L 171.081172 294.772963 
L 171.195957 294.347552 
L 171.391091 292.503424 
L 171.678053 287.329285 
L 172.091278 275.304765 
L 172.734072 249.063047 
L 174.008182 196.676382 
L 174.467321 186.385131 
L 174.765761 183.618966 
L 174.869067 183.431529 
L 174.914981 183.476785 
L 175.029766 183.935456 
L 175.2249 185.835022 
L 175.52334 191.353248 
L 175.948043 204.010329 
L 176.613794 231.596619 
L 177.807555 280.760049 
L 178.278172 291.623843 
L 178.576613 294.556229 
L 178.702876 294.802946 
L 178.737311 294.766407 
L 178.852096 294.323748 
L 179.04723 292.450865 
L 179.334191 287.237086 
L 179.747416 275.164942 
L 180.390211 248.882248 
L 181.652842 196.898039 
L 182.111981 186.495753 
L 182.410421 183.64799 
L 182.525206 183.43233 
L 182.559641 183.464048 
L 182.674426 183.890691 
L 182.86956 185.736874 
L 183.156522 190.913846 
L 183.569746 202.941771 
L 184.212541 229.186426 
L 185.486651 281.568674 
L 185.945789 291.855647 
L 186.24423 294.618671 
L 186.347536 294.804996 
L 186.39345 294.759245 
L 186.508234 294.299343 
L 186.703368 292.397725 
L 187.001809 286.876568 
L 187.426512 274.216047 
L 188.092263 246.626943 
L 189.286024 197.467803 
L 189.756641 186.608349 
L 190.055081 183.679096 
L 190.181344 183.433737 
L 190.21578 183.470647 
L 190.330565 183.914538 
L 190.525699 185.789474 
L 190.81266 191.006082 
L 191.225885 203.081623 
L 191.868679 229.367232 
L 193.131311 281.347078 
L 193.59045 291.745101 
L 193.88889 294.589727 
L 194.003675 294.804152 
L 194.03811 294.772064 
L 194.152895 294.344188 
L 194.348029 292.495951 
L 194.63499 287.316146 
L 195.048215 275.284815 
L 195.691009 249.037225 
L 196.96512 196.659397 
L 197.424258 186.376703 
L 197.722698 183.61682 
L 197.826005 183.431606 
L 197.871919 183.477852 
L 197.986703 183.938985 
L 198.181837 185.842655 
L 198.480277 191.366744 
L 198.904981 204.030703 
L 199.570732 231.622621 
L 200.764493 280.777467 
L 201.23511 291.63258 
L 201.53355 294.558702 
L 201.659813 294.802702 
L 201.694249 294.765421 
L 201.809033 294.320298 
L 202.004167 292.443309 
L 202.291129 287.223872 
L 202.704354 275.144936 
L 203.347148 248.856411 
L 204.60978 196.880932 
L 205.068918 186.487173 
L 205.367359 183.645683 
L 205.482143 183.432494 
L 205.516579 183.464953 
L 205.631363 183.894061 
L 205.826497 185.744352 
L 206.113459 190.92699 
L 206.526684 202.961726 
L 207.169478 229.212249 
L 208.443588 281.585654 
L 208.902727 291.864069 
L 209.201167 294.620811 
L 209.304473 294.804913 
L 209.350387 294.758173 
L 209.465172 294.295808 
L 209.660306 292.390087 
L 209.958746 286.863067 
L 210.38345 274.19567 
L 211.049201 246.600939 
L 212.242961 197.450389 
L 212.713579 186.599618 
L 213.012019 183.676629 
L 213.138282 183.433987 
L 213.172717 183.471639 
L 213.287502 183.917993 
L 213.482636 185.797036 
L 213.769598 191.019301 
L 214.182823 203.101633 
L 214.825617 229.393071 
L 216.088248 281.364181 
L 216.547387 291.753675 
L 216.845827 294.592028 
L 216.960612 294.803982 
L 216.995048 294.771152 
L 217.109832 294.340812 
L 217.304966 292.488466 
L 217.591928 287.302996 
L 218.005153 275.264856 
L 218.647947 249.011401 
L 219.910579 196.983714 
L 220.369717 186.538826 
L 220.668158 183.659707 
L 220.782942 183.431696 
L 220.828856 183.478931 
L 220.943641 183.942527 
L 221.138775 185.8503 
L 221.437215 191.38025 
L 221.861918 204.051085 
L 222.527669 231.648626 
L 223.72143 280.794877 
L 224.192047 291.641306 
L 224.490488 294.561162 
L 224.616751 294.802446 
L 224.651186 294.764423 
L 224.765971 294.316837 
L 224.961105 292.435741 
L 225.259545 286.943916 
L 225.684248 274.31782 
L 226.35 246.756936 
L 227.54376 197.555013 
L 228.014378 186.652181 
L 228.324296 183.643389 
L 228.439081 183.43267 
L 228.473516 183.465871 
L 228.588301 183.897443 
L 228.783435 185.751843 
L 229.070397 190.940145 
L 229.483622 202.981689 
L 230.126416 229.238074 
L 231.389047 281.261427 
L 231.848186 291.702057 
L 232.146626 294.578041 
L 232.261411 294.804817 
L 232.295846 294.776438 
L 232.399153 294.424601 
L 232.582808 292.820471 
L 232.858291 288.147792 
L 233.260038 276.951497 
L 233.868397 252.75548 
L 235.26877 195.412683 
L 235.71643 185.931282 
L 236.003392 183.549467 
L 236.09522 183.43425 
L 236.141133 183.49533 
L 236.267397 184.070224 
L 236.474009 186.28063 
L 236.783928 192.408958 
L 237.22011 206.00112 
L 237.943253 236.717835 
L 238.999272 279.984516 
L 239.469889 291.227893 
L 239.779808 294.49319 
L 239.91755 294.8038 
L 239.951985 294.770228 
L 240.06677 294.337424 
L 240.261904 292.48097 
L 240.548865 287.289835 
L 240.96209 275.244889 
L 241.604885 248.985575 
L 242.867516 196.96656 
L 243.326655 186.530188 
L 243.625095 183.657339 
L 243.73988 183.431798 
L 243.774315 183.460548 
L 243.877621 183.813494 
L 244.061277 185.419565 
L 244.33676 190.094993 
L 244.738507 201.294695 
L 245.346865 225.493805 
L 246.747239 282.832009 
L 247.194899 292.309166 
L 247.481861 294.687949 
L 247.573688 294.802177 
L 247.608124 294.763412 
L 247.722908 294.313363 
L 247.918042 292.428162 
L 248.216483 286.930468 
L 248.641186 274.297481 
L 249.306937 246.730941 
L 250.500698 197.537553 
L 250.971315 186.643391 
L 251.281234 183.641107 
L 251.396018 183.432859 
L 251.430454 183.466802 
L 251.545239 183.900837 
L 251.740373 185.759346 
L 252.027334 190.953311 
L 252.440559 203.001659 
L 253.083353 229.263902 
L 254.345985 281.278576 
L 254.805124 291.710689 
L 255.103564 294.580403 
L 255.218349 294.804709 
L 255.252784 294.775588 
L 255.35609 294.421532 
L 255.539746 292.813521 
L 255.815229 288.135344 
L 256.216975 276.932237 
L 256.825334 252.730035 
L 258.225707 195.396426 
L 258.673368 185.923513 
L 258.960329 183.547764 
L 259.052157 183.434525 
L 259.086593 183.473661 
L 259.201377 183.924942 
L 259.396511 185.812195 
L 259.694951 191.312823 
L 260.119655 203.949254 
L 260.785406 231.51862 
L 261.979167 280.707736 
L 262.449784 291.597562 
L 262.759703 294.596591 
L 262.874487 294.803605 
L 262.908923 294.769291 
L 263.023707 294.334023 
L 263.218841 292.473461 
L 263.505803 287.276664 
L 263.919028 275.224915 
L 264.561822 248.959747 
L 265.824454 196.949416 
L 266.283592 186.521561 
L 266.582033 183.654983 
L 266.696817 183.431913 
L 266.731253 183.461405 
L 266.834559 183.81657 
L 267.018214 185.426521 
L 267.293698 190.107447 
L 267.695444 201.313959 
L 268.303803 225.519251 
L 269.704176 282.848262 
L 270.151836 292.316929 
L 270.438798 294.689645 
L 270.530626 294.801895 
L 270.565061 294.762389 
L 270.679846 294.309876 
L 270.87498 292.42057 
L 271.17342 286.917009 
L 271.598124 274.277135 
L 272.263875 246.704944 
L 273.457635 197.520102 
L 273.928253 186.634613 
L 274.238171 183.638838 
L 274.352956 183.43306 
L 274.387391 183.467744 
L 274.502176 183.904244 
L 274.69731 185.76686 
L 274.984272 190.966488 
L 275.397497 203.021638 
L 276.040291 229.289731 
L 277.302922 281.295716 
L 277.762061 291.71931 
L 278.060501 294.582752 
L 278.175286 294.804588 
L 278.209722 294.774725 
L 278.313028 294.41845 
L 278.496683 292.80656 
L 278.772167 288.122885 
L 279.173913 276.912968 
L 279.782272 252.704587 
L 281.182645 195.380178 
L 281.618827 186.073137 
L 281.905788 183.582218 
L 282.009095 183.434813 
L 282.04353 183.47469 
L 282.158315 183.928434 
L 282.353449 185.819792 
L 282.651889 191.326287 
L 283.076592 203.969604 
L 283.742343 231.544618 
L 284.936104 280.725183 
L 285.406721 291.606334 
L 285.705162 294.551247 
L 285.831425 294.803398 
L 285.86586 294.768342 
L 285.980645 294.330611 
L 286.175779 292.465941 
L 286.462741 287.263482 
L 286.875965 275.204932 
L 287.51876 248.933916 
L 288.781391 196.932281 
L 289.24053 186.512947 
L 289.53897 183.65264 
L 289.653755 183.432039 
L 289.68819 183.462273 
L 289.802975 183.883988 
L 289.998109 185.721951 
L 290.285071 190.887589 
L 290.698296 202.901886 
L 291.34109 229.134787 
L 292.6152 281.534686 
L 293.074339 291.838769 
L 293.372779 294.614354 
L 293.476085 294.805126 
L 293.521999 294.761353 
L 293.636784 294.306377 
L 293.831918 292.412967 
L 294.130358 286.903539 
L 294.555061 274.25678 
L 295.220812 246.678945 
L 296.414573 197.50266 
L 296.88519 186.625847 
L 297.18363 183.684066 
L 297.309894 183.433273 
L 297.344329 183.4687 
L 297.459114 183.907663 
L 297.654248 185.774386 
L 297.941209 190.979675 
L 298.354434 203.041625 
L 298.997228 229.315563 
L 300.25986 281.312846 
L 300.718999 291.727919 
L 301.017439 294.58509 
L 301.132224 294.804455 
L 301.166659 294.77385 
L 301.281444 294.350903 
L 301.476578 292.510885 
L 301.763539 287.342413 
L 302.176764 275.324708 
L 302.819559 249.088866 
L 304.093669 196.693376 
L 304.552807 186.39357 
L 304.851248 183.621125 
L 304.954554 183.431464 
L 305.000468 183.475731 
L 305.115252 183.931939 
L 305.310386 185.827401 
L 305.608827 191.339762 
L 306.03353 203.989963 
L 306.699281 231.570617 
L 307.893042 280.74262 
L 308.363659 291.615094 
L 308.662099 294.553744 
L 308.788362 294.803178 
L 308.822798 294.767381 
L 308.937582 294.327185 
L 309.132716 292.458409 
L 309.419678 287.25029 
L 309.832903 275.184941 
L 310.475697 248.908083 
L 311.738329 196.915155 
L 312.197468 186.504344 
L 312.495908 183.650309 
L 312.610692 183.432178 
L 312.645128 183.463154 
L 312.759913 183.887333 
L 312.955047 185.729407 
L 313.242008 190.900712 
L 313.655233 202.921825 
L 314.298027 229.160606 
L 315.572137 281.551685 
L 316.031276 291.847214 
L 316.329716 294.616518 
L 316.433023 294.805067 
L 316.478936 294.760306 
L 316.593721 294.302867 
L 316.788855 292.405352 
L 317.087295 286.890059 
L 317.511999 274.236418 
L 318.17775 246.652945 
L 319.371511 197.485227 
L 319.842128 186.617092 
L 320.140568 183.681575 
L 320.266831 183.433499 
L 320.301267 183.469667 
L 320.416051 183.911094 
L 320.611185 185.781924 
L 320.898147 190.992873 
L 321.311372 203.06162 
L 321.954166 229.341396 
L 323.216798 281.329967 
L 323.675936 291.736516 
L 323.974377 294.587415 
L 324.089161 294.80431 
L 324.123597 294.772963 
L 324.238381 294.347552 
L 324.433515 292.503424 
L 324.720477 287.329285 
L 325.133702 275.304765 
L 325.776496 249.063047 
L 327.050606 196.676382 
L 327.509745 186.385131 
L 327.808185 183.618966 
L 327.911491 183.431529 
L 327.957405 183.476785 
L 328.07219 183.935456 
L 328.267324 185.835022 
L 328.565764 191.353248 
L 328.990467 204.010329 
L 329.656219 231.596619 
L 330.849979 280.760049 
L 331.320597 291.623843 
L 331.619037 294.556229 
L 331.7453 294.802946 
L 331.779735 294.766407 
L 331.89452 294.323748 
L 332.089654 292.450865 
L 332.376616 287.237086 
L 332.789841 275.164942 
L 333.432635 248.882248 
L 334.695266 196.898039 
L 335.154405 186.495753 
L 335.452845 183.64799 
L 335.56763 183.43233 
L 335.602065 183.464048 
L 335.71685 183.890691 
L 335.911984 185.736874 
L 336.198946 190.913846 
L 336.612171 202.941771 
L 337.254965 229.186426 
L 338.529075 281.568674 
L 338.988214 291.855647 
L 339.286654 294.618671 
L 339.38996 294.804996 
L 339.435874 294.759245 
L 339.550659 294.299343 
L 339.745793 292.397725 
L 340.044233 286.876568 
L 340.468936 274.216047 
L 341.134687 246.626943 
L 342.328448 197.467803 
L 342.799065 186.608349 
L 343.097506 183.679096 
L 343.223769 183.433737 
L 343.258204 183.470647 
L 343.372989 183.914538 
L 343.568123 185.789474 
L 343.855084 191.006082 
L 344.268309 203.081623 
L 344.911104 229.367232 
L 346.173735 281.347078 
L 346.632874 291.745101 
L 346.931314 294.589727 
L 347.046099 294.804152 
L 347.080534 294.772064 
L 347.195319 294.344188 
L 347.390453 292.495951 
L 347.677415 287.316146 
L 348.090639 275.284815 
L 348.733434 249.037225 
L 350.007544 196.659397 
L 350.466683 186.376703 
L 350.765123 183.61682 
L 350.868429 183.431606 
L 350.914343 183.477852 
L 351.029127 183.938985 
L 351.224261 185.842655 
L 351.522702 191.366744 
L 351.947405 204.030703 
L 352.613156 231.622621 
L 353.806917 280.777467 
L 354.277534 291.63258 
L 354.575974 294.558702 
L 354.702237 294.802702 
L 354.736673 294.765421 
L 354.851458 294.320298 
L 355.046592 292.443309 
L 355.333553 287.223872 
L 355.746778 275.144936 
L 356.389572 248.856411 
L 357.652204 196.880932 
L 358.111343 186.487173 
L 358.409783 183.645683 
L 358.524568 183.432494 
L 358.559003 183.464953 
L 358.673788 183.894061 
L 358.868922 185.744352 
L 359.155883 190.92699 
L 359.569108 202.961726 
L 360.211902 229.212249 
L 361.486013 281.585654 
L 361.945151 291.864069 
L 362.243591 294.620811 
L 362.346898 294.804913 
L 362.392812 294.758173 
L 362.507596 294.295808 
L 362.70273 292.390087 
L 363.00117 286.863067 
L 363.425874 274.19567 
L 364.091625 246.600939 
L 365.285386 197.450389 
L 365.756003 186.599618 
L 366.054443 183.676629 
L 366.180706 183.433987 
L 366.215142 183.471639 
L 366.329926 183.917993 
L 366.52506 185.797036 
L 366.812022 191.019301 
L 367.225247 203.101633 
L 367.868041 229.393071 
L 369.130673 281.364181 
L 369.589811 291.753675 
L 369.888252 294.592028 
L 370.003036 294.803982 
L 370.037472 294.771152 
L 370.152256 294.340812 
L 370.34739 292.488466 
L 370.634352 287.302996 
L 371.047577 275.264856 
L 371.690371 249.011401 
L 372.953003 196.983714 
L 373.412142 186.538826 
L 373.710582 183.659707 
L 373.825366 183.431696 
L 373.87128 183.478931 
L 373.986065 183.942527 
L 374.181199 185.8503 
L 374.479639 191.38025 
L 374.904343 204.051085 
L 375.570094 231.648626 
L 376.763854 280.794877 
L 377.234472 291.641306 
L 377.532912 294.561162 
L 377.659175 294.802446 
L 377.69361 294.764423 
L 377.808395 294.316837 
L 378.003529 292.435741 
L 378.301969 286.943916 
L 378.726673 274.31782 
L 379.392424 246.756936 
L 380.586185 197.555013 
L 381.056802 186.652181 
L 381.36672 183.643389 
L 381.481505 183.43267 
L 381.515941 183.465871 
L 381.630725 183.897443 
L 381.825859 185.751843 
L 382.112821 190.940145 
L 382.526046 202.981689 
L 383.16884 229.238074 
L 384.431472 281.261427 
L 384.89061 291.702057 
L 385.189051 294.578041 
L 385.303835 294.804817 
L 385.338271 294.776438 
L 385.441577 294.424601 
L 385.625232 292.820471 
L 385.900716 288.147792 
L 386.302462 276.951497 
L 386.910821 252.75548 
L 388.311194 195.412683 
L 388.758854 185.931282 
L 389.045816 183.549467 
L 389.137644 183.43425 
L 389.183558 183.49533 
L 389.309821 184.070224 
L 389.516433 186.28063 
L 389.826352 192.408958 
L 390.262534 206.00112 
L 390.985677 236.717835 
L 392.041696 279.984516 
L 392.512314 291.227893 
L 392.822232 294.49319 
L 392.959974 294.8038 
L 392.994409 294.770228 
L 393.109194 294.337424 
L 393.304328 292.48097 
L 393.59129 287.289835 
L 394.004515 275.244889 
L 394.647309 248.985575 
L 395.90994 196.96656 
L 396.369079 186.530188 
L 396.667519 183.657339 
L 396.782304 183.431798 
L 396.816739 183.460548 
L 396.920046 183.813494 
L 397.103701 185.419565 
L 397.379184 190.094993 
L 397.780931 201.294695 
L 398.38929 225.493805 
L 399.789663 282.832009 
L 400.237323 292.309166 
L 400.524285 294.687949 
L 400.616113 294.802177 
L 400.650548 294.763412 
L 400.765333 294.313363 
L 400.960467 292.428162 
L 401.258907 286.930468 
L 401.68361 274.297481 
L 402.349361 246.730941 
L 403.543122 197.537553 
L 404.013739 186.643391 
L 404.323658 183.641107 
L 404.438443 183.432859 
L 404.472878 183.466802 
L 404.587663 183.900837 
L 404.782797 185.759346 
L 405.069758 190.953311 
L 405.482983 203.001659 
L 406.125778 229.263902 
L 407.388409 281.278576 
L 407.847548 291.710689 
L 408.145988 294.580403 
L 408.260773 294.804709 
L 408.295208 294.775588 
L 408.398514 294.421532 
L 408.58217 292.813521 
L 408.857653 288.135344 
L 409.2594 276.932237 
L 409.867758 252.730035 
L 411.268132 195.396426 
L 411.715792 185.923513 
L 412.002754 183.547764 
L 412.094581 183.434525 
L 412.129017 183.473661 
L 412.243801 183.924942 
L 412.438935 185.812195 
L 412.737376 191.312823 
L 413.162079 203.949254 
L 413.82783 231.51862 
L 415.021591 280.707736 
L 415.492208 291.597562 
L 415.802127 294.596591 
L 415.916911 294.803605 
L 415.951347 294.769291 
L 416.066132 294.334023 
L 416.261266 292.473461 
L 416.548227 287.276664 
L 416.961452 275.224915 
L 417.604246 248.959747 
L 418.866878 196.949416 
L 419.326017 186.521561 
L 419.624457 183.654983 
L 419.739242 183.431913 
L 419.773677 183.461405 
L 419.876983 183.81657 
L 420.060639 185.426521 
L 420.336122 190.107447 
L 420.737868 201.313959 
L 421.346227 225.519251 
L 422.7466 282.848262 
L 423.194261 292.316929 
L 423.481222 294.689645 
L 423.57305 294.801895 
L 423.607486 294.762389 
L 423.72227 294.309876 
L 423.917404 292.42057 
L 424.215844 286.917009 
L 424.640548 274.277135 
L 425.306299 246.704944 
L 426.50006 197.520102 
L 426.970677 186.634613 
L 427.280596 183.638838 
L 427.39538 183.43306 
L 427.429816 183.467744 
L 427.5446 183.904244 
L 427.739734 185.76686 
L 428.026696 190.966488 
L 428.439921 203.021638 
L 429.082715 229.289731 
L 430.345347 281.295716 
L 430.804485 291.71931 
L 431.102926 294.582752 
L 431.21771 294.804588 
L 431.252146 294.774725 
L 431.355452 294.41845 
L 431.539107 292.80656 
L 431.814591 288.122885 
L 432.216337 276.912968 
L 432.824696 252.704587 
L 434.225069 195.380178 
L 434.661251 186.073137 
L 434.948213 183.582218 
L 435.051519 183.434813 
L 435.085954 183.47469 
L 435.200739 183.928434 
L 435.395873 185.819792 
L 435.694313 191.326287 
L 436.119017 203.969604 
L 436.784768 231.544618 
L 437.978528 280.725183 
L 438.449146 291.606334 
L 438.747586 294.551247 
L 438.873849 294.803398 
L 438.908284 294.768342 
L 439.023069 294.330611 
L 439.218203 292.465941 
L 439.505165 287.263482 
L 439.91839 275.204932 
L 440.561184 248.933916 
L 441.823816 196.932281 
L 442.282954 186.512947 
L 442.581394 183.65264 
L 442.696179 183.432039 
L 442.730615 183.462273 
L 442.845399 183.883988 
L 443.040533 185.721951 
L 443.327495 190.887589 
L 443.74072 202.901886 
L 444.383514 229.134787 
L 445.657624 281.534686 
L 446.116763 291.838769 
L 446.415203 294.614354 
L 446.518509 294.805126 
L 446.564423 294.761353 
L 446.679208 294.306377 
L 446.874342 292.412967 
L 447.172782 286.903539 
L 447.597485 274.25678 
L 448.263237 246.678945 
L 449.456997 197.50266 
L 449.927614 186.625847 
L 450.226055 183.684066 
L 450.352318 183.433273 
L 450.386753 183.4687 
L 450.501538 183.907663 
L 450.696672 185.774386 
L 450.983634 190.979675 
L 451.396858 203.041625 
L 452.039653 229.315563 
L 453.302284 281.312846 
L 453.761423 291.727919 
L 454.059863 294.58509 
L 454.174648 294.804455 
L 454.209083 294.77385 
L 454.323868 294.350903 
L 454.519002 292.510885 
L 454.805964 287.342413 
L 455.219189 275.324708 
L 455.861983 249.088866 
L 457.136093 196.693376 
L 457.595232 186.39357 
L 457.893672 183.621125 
L 457.996978 183.431464 
L 458.042892 183.475731 
L 458.157677 183.931939 
L 458.352811 185.827401 
L 458.651251 191.339762 
L 459.075954 203.989963 
L 459.741705 231.570617 
L 460.935466 280.74262 
L 461.406083 291.615094 
L 461.704523 294.553744 
L 461.830787 294.803178 
L 461.865222 294.767381 
L 461.980007 294.327185 
L 462.175141 292.458409 
L 462.462102 287.25029 
L 462.875327 275.184941 
L 463.518122 248.908083 
L 464.780753 196.915155 
L 465.239892 186.504344 
L 465.538332 183.650309 
L 465.653117 183.432178 
L 465.687552 183.463154 
L 465.802337 183.887333 
L 465.997471 185.729407 
L 466.284432 190.900712 
L 466.697657 202.921825 
L 467.340452 229.160606 
L 468.614562 281.551685 
L 469.0737 291.847214 
L 469.372141 294.616518 
L 469.475447 294.805067 
L 469.521361 294.760306 
L 469.636145 294.302867 
L 469.831279 292.405352 
L 470.12972 286.890059 
L 470.554423 274.236418 
L 471.220174 246.652945 
L 472.413935 197.485227 
L 472.884552 186.617092 
L 473.182992 183.681575 
L 473.309255 183.433499 
L 473.343691 183.469667 
L 473.458475 183.911094 
L 473.653609 185.781924 
L 473.940571 190.992873 
L 474.353796 203.06162 
L 474.99659 229.341396 
L 476.259222 281.329967 
L 476.718361 291.736516 
L 477.016801 294.587415 
L 477.131585 294.80431 
L 477.166021 294.772963 
L 477.280806 294.347552 
L 477.47594 292.503424 
L 477.762901 287.329285 
L 478.176126 275.304765 
L 478.81892 249.063047 
L 480.09303 196.676382 
L 480.552169 186.385131 
L 480.850609 183.618966 
L 480.953916 183.431529 
L 480.999829 183.476785 
L 481.114614 183.935456 
L 481.309748 185.835022 
L 481.608188 191.353248 
L 482.032892 204.010329 
L 482.698643 231.596619 
L 483.892404 280.760049 
L 484.363021 291.623843 
L 484.661461 294.556229 
L 484.787724 294.802946 
L 484.82216 294.766407 
L 484.936944 294.323748 
L 485.132078 292.450865 
L 485.41904 287.237086 
L 485.832265 275.164942 
L 486.475059 248.882248 
L 487.737691 196.898039 
L 488.196829 186.495753 
L 488.49527 183.64799 
L 488.610054 183.43233 
L 488.64449 183.464048 
L 488.759274 183.890691 
L 488.954408 185.736874 
L 489.24137 190.913846 
L 489.654595 202.941771 
L 490.297389 229.186426 
L 491.571499 281.568674 
L 492.030638 291.855647 
L 492.329078 294.618671 
L 492.432384 294.804996 
L 492.478298 294.759245 
L 492.593083 294.299343 
L 492.788217 292.397725 
L 493.086657 286.876568 
L 493.51136 274.216047 
L 494.177112 246.626943 
L 495.370872 197.467803 
L 495.84149 186.608349 
L 496.13993 183.679096 
L 496.266193 183.433737 
L 496.300628 183.470647 
L 496.415413 183.914538 
L 496.610547 185.789474 
L 496.897509 191.006082 
L 497.310734 203.081623 
L 497.953528 229.367232 
L 499.216159 281.347078 
L 499.675298 291.745101 
L 499.973738 294.589727 
L 500.088523 294.804152 
L 500.122958 294.772064 
L 500.237743 294.344188 
L 500.432877 292.495951 
L 500.719839 287.316146 
L 501.133064 275.284815 
L 501.775858 249.037225 
L 501.993949 239.118281 
L 501.993949 239.118281 
" clip-path="url(#p6f4e267d8a)" style="fill: none; stroke: currentColor; stroke-width: 1.3; stroke-linecap: square"/>
   </g>
   <g id="line2d_4">
    <path d="M 19.910313 239.118281 
L 524.950312 239.118281 
" clip-path="url(#p6f4e267d8a)" style="fill: none; stroke: currentColor; stroke-opacity: 0.4; stroke-width: 0.6; stroke-linecap: square"/>
   </g>
   <g id="patch_6">
    <path d="M 19.910313 303.158281 
L 19.910313 175.078281 
" style="fill: none; stroke: currentColor; stroke-width: 0.8; stroke-linejoin: miter; stroke-linecap: square"/>
   </g>
   <g id="patch_7">
    <path d="M 19.910312 303.158281 
L 524.950312 303.158281 
" style="fill: none; stroke: currentColor; stroke-width: 0.8; stroke-linejoin: miter; stroke-linecap: square"/>
   </g>
   <g id="text_5">
    <!-- Continuous wave (CW) -->
    <g transform="translate(19.910313 169.078281) scale(0.11 -0.11)">
     <defs>
      <path id="DejaVuSans-43" d="M 4122 4306 
L 4122 3641 
Q 3803 3938 3442 4084 
Q 3081 4231 2675 4231 
Q 1875 4231 1450 3742 
Q 1025 3253 1025 2328 
Q 1025 1406 1450 917 
Q 1875 428 2675 428 
Q 3081 428 3442 575 
Q 3803 722 4122 1019 
L 4122 359 
Q 3791 134 3420 21 
Q 3050 -91 2638 -91 
Q 1578 -91 968 557 
Q 359 1206 359 2328 
Q 359 3453 968 4101 
Q 1578 4750 2638 4750 
Q 3056 4750 3426 4639 
Q 3797 4528 4122 4306 
z
" transform="scale(0.015625)"/>
      <path id="DejaVuSans-6f" d="M 1959 3097 
Q 1497 3097 1228 2736 
Q 959 2375 959 1747 
Q 959 1119 1226 758 
Q 1494 397 1959 397 
Q 2419 397 2687 759 
Q 2956 1122 2956 1747 
Q 2956 2369 2687 2733 
Q 2419 3097 1959 3097 
z
M 1959 3584 
Q 2709 3584 3137 3096 
Q 3566 2609 3566 1747 
Q 3566 888 3137 398 
Q 2709 -91 1959 -91 
Q 1206 -91 779 398 
Q 353 888 353 1747 
Q 353 2609 779 3096 
Q 1206 3584 1959 3584 
z
" transform="scale(0.015625)"/>
      <path id="DejaVuSans-6e" d="M 3513 2113 
L 3513 0 
L 2938 0 
L 2938 2094 
Q 2938 2591 2744 2837 
Q 2550 3084 2163 3084 
Q 1697 3084 1428 2787 
Q 1159 2491 1159 1978 
L 1159 0 
L 581 0 
L 581 3500 
L 1159 3500 
L 1159 2956 
Q 1366 3272 1645 3428 
Q 1925 3584 2291 3584 
Q 2894 3584 3203 3211 
Q 3513 2838 3513 2113 
z
" transform="scale(0.015625)"/>
      <path id="DejaVuSans-57" d="M 213 4666 
L 850 4666 
L 1831 722 
L 2809 4666 
L 3519 4666 
L 4500 722 
L 5478 4666 
L 6119 4666 
L 4947 0 
L 4153 0 
L 3169 4050 
L 2175 0 
L 1381 0 
L 213 4666 
z
" transform="scale(0.015625)"/>
     </defs>
     <use xlink:href="#DejaVuSans-43"/>
     <use xlink:href="#DejaVuSans-6f" transform="translate(69.824219 0)"/>
     <use xlink:href="#DejaVuSans-6e" transform="translate(131.005859 0)"/>
     <use xlink:href="#DejaVuSans-74" transform="translate(194.384766 0)"/>
     <use xlink:href="#DejaVuSans-69" transform="translate(233.59375 0)"/>
     <use xlink:href="#DejaVuSans-6e" transform="translate(261.376953 0)"/>
     <use xlink:href="#DejaVuSans-75" transform="translate(324.755859 0)"/>
     <use xlink:href="#DejaVuSans-6f" transform="translate(388.134766 0)"/>
     <use xlink:href="#DejaVuSans-75" transform="translate(449.316406 0)"/>
     <use xlink:href="#DejaVuSans-73" transform="translate(512.695312 0)"/>
     <use xlink:href="#DejaVuSans-20" transform="translate(564.794922 0)"/>
     <use xlink:href="#DejaVuSans-77" transform="translate(596.582031 0)"/>
     <use xlink:href="#DejaVuSans-61" transform="translate(678.369141 0)"/>
     <use xlink:href="#DejaVuSans-76" transform="translate(739.648438 0)"/>
     <use xlink:href="#DejaVuSans-65" transform="translate(798.828125 0)"/>
     <use xlink:href="#DejaVuSans-20" transform="translate(860.351562 0)"/>
     <use xlink:href="#DejaVuSans-28" transform="translate(892.138672 0)"/>
     <use xlink:href="#DejaVuSans-43" transform="translate(931.152344 0)"/>
     <use xlink:href="#DejaVuSans-57" transform="translate(1000.976562 0)"/>
     <use xlink:href="#DejaVuSans-29" transform="translate(1099.853516 0)"/>
    </g>
   </g>
  </g>
 </g>
 <defs>
  <clipPath id="p92d523d411">
   <rect x="19.910313" y="21.558281" width="505.04" height="128.08"/>
  </clipPath>
  <clipPath id="p6f4e267d8a">
   <rect x="19.910313" y="175.078281" width="505.04" height="128.08"/>
  </clipPath>
 </defs>
</svg>
