<svg fill="currentColor" xmlns:xlink="http://www.w3.org/1999/xlink" width="504.523827pt" height="237.511328pt" viewBox="0 0 504.523827 237.511328" xmlns="http://www.w3.org/2000/svg" version="1.1">
 <metadata>
  <rdf:RDF xmlns:dc="http://purl.org/dc/elements/1.1/" xmlns:cc="http://creativecommons.org/ns#" xmlns:rdf="http://www.w3.org/1999/02/22-rdf-syntax-ns#">
   <cc:Work>
    <dc:type rdf:resource="http://purl.org/dc/dcmitype/StillImage"/>
    <dc:date>2026-07-21T16:04:58.368977</dc:date>
    <dc:format>image/svg+xml</dc:format>
    <dc:creator>
     <cc:Agent>
      <dc:title>Matplotlib v3.10.9, https://matplotlib.org/</dc:title>
     </cc:Agent>
    </dc:creator>
   </cc:Work>
  </rdf:RDF>
 </metadata>
 <defs>
  <style type="text/css">*{stroke-linejoin: round; stroke-linecap: butt}</style>
 </defs>
 <g id="figure_1">
  <g id="patch_1">
   <path d="M 0 237.511328 
L 504.523827 237.511328 
L 504.523827 0 
L 0 0 
L 0 237.511328 
z
" style="fill: none"/>
  </g>
  <g id="axes_1">
   <g id="patch_2">
    <path d="M 9.745 202.858516 
L 492.431364 202.858516 
L 492.431364 20.418516 
L 9.745 20.418516 
L 9.745 202.858516 
z
" style="fill: none"/>
   </g>
   <g id="matplotlib.axis_1">
    <g id="xtick_1">
     <g id="line2d_1">
      <defs>
       <path id="m40ccc3af7d" d="M 0 0 
L 0 3.5 
" style="stroke: currentColor; stroke-width: 0.8"/>
      </defs>
      <g>
       <use xlink:href="#m40ccc3af7d" x="9.745" y="202.858516" style="stroke: currentColor; stroke-width: 0.8"/>
      </g>
     </g>
     <g id="text_1">
      <!-- 0 -->
      <g transform="translate(7.2 215.937266) scale(0.08 -0.08)">
       <defs>
        <path id="DejaVuSans-30" d="M 2034 4250 
Q 1547 4250 1301 3770 
Q 1056 3291 1056 2328 
Q 1056 1369 1301 889 
Q 1547 409 2034 409 
Q 2525 409 2770 889 
Q 3016 1369 3016 2328 
Q 3016 3291 2770 3770 
Q 2525 4250 2034 4250 
z
M 2034 4750 
Q 2819 4750 3233 4129 
Q 3647 3509 3647 2328 
Q 3647 1150 3233 529 
Q 2819 -91 2034 -91 
Q 1250 -91 836 529 
Q 422 1150 422 2328 
Q 422 3509 836 4129 
Q 1250 4750 2034 4750 
z
" transform="scale(0.015625)"/>
       </defs>
       <use xlink:href="#DejaVuSans-30"/>
      </g>
     </g>
    </g>
    <g id="xtick_2">
     <g id="line2d_2">
      <g>
       <use xlink:href="#m40ccc3af7d" x="78.308404" y="202.858516" style="stroke: currentColor; stroke-width: 0.8"/>
      </g>
     </g>
     <g id="text_2">
      <!-- 50 -->
      <g transform="translate(73.218404 215.937266) scale(0.08 -0.08)">
       <defs>
        <path id="DejaVuSans-35" d="M 691 4666 
L 3169 4666 
L 3169 4134 
L 1269 4134 
L 1269 2991 
Q 1406 3038 1543 3061 
Q 1681 3084 1819 3084 
Q 2600 3084 3056 2656 
Q 3513 2228 3513 1497 
Q 3513 744 3044 326 
Q 2575 -91 1722 -91 
Q 1428 -91 1123 -41 
Q 819 9 494 109 
L 494 744 
Q 775 591 1075 516 
Q 1375 441 1709 441 
Q 2250 441 2565 725 
Q 2881 1009 2881 1497 
Q 2881 1984 2565 2268 
Q 2250 2553 1709 2553 
Q 1456 2553 1204 2497 
Q 953 2441 691 2322 
L 691 4666 
z
" transform="scale(0.015625)"/>
       </defs>
       <use xlink:href="#DejaVuSans-35"/>
       <use xlink:href="#DejaVuSans-30" transform="translate(63.623047 0)"/>
      </g>
     </g>
    </g>
    <g id="xtick_3">
     <g id="line2d_3">
      <g>
       <use xlink:href="#m40ccc3af7d" x="146.871808" y="202.858516" style="stroke: currentColor; stroke-width: 0.8"/>
      </g>
     </g>
     <g id="text_3">
      <!-- 100 -->
      <g transform="translate(139.236808 215.937266) scale(0.08 -0.08)">
       <defs>
        <path id="DejaVuSans-31" d="M 794 531 
L 1825 531 
L 1825 4091 
L 703 3866 
L 703 4441 
L 1819 4666 
L 2450 4666 
L 2450 531 
L 3481 531 
L 3481 0 
L 794 0 
L 794 531 
z
" transform="scale(0.015625)"/>
       </defs>
       <use xlink:href="#DejaVuSans-31"/>
       <use xlink:href="#DejaVuSans-30" transform="translate(63.623047 0)"/>
       <use xlink:href="#DejaVuSans-30" transform="translate(127.246094 0)"/>
      </g>
     </g>
    </g>
    <g id="xtick_4">
     <g id="line2d_4">
      <g>
       <use xlink:href="#m40ccc3af7d" x="215.435212" y="202.858516" style="stroke: currentColor; stroke-width: 0.8"/>
      </g>
     </g>
     <g id="text_4">
      <!-- 150 -->
      <g transform="translate(207.800212 215.937266) scale(0.08 -0.08)">
       <use xlink:href="#DejaVuSans-31"/>
       <use xlink:href="#DejaVuSans-35" transform="translate(63.623047 0)"/>
       <use xlink:href="#DejaVuSans-30" transform="translate(127.246094 0)"/>
      </g>
     </g>
    </g>
    <g id="xtick_5">
     <g id="line2d_5">
      <g>
       <use xlink:href="#m40ccc3af7d" x="283.998616" y="202.858516" style="stroke: currentColor; stroke-width: 0.8"/>
      </g>
     </g>
     <g id="text_5">
      <!-- 200 -->
      <g transform="translate(276.363616 215.937266) scale(0.08 -0.08)">
       <defs>
        <path id="DejaVuSans-32" d="M 1228 531 
L 3431 531 
L 3431 0 
L 469 0 
L 469 531 
Q 828 903 1448 1529 
Q 2069 2156 2228 2338 
Q 2531 2678 2651 2914 
Q 2772 3150 2772 3378 
Q 2772 3750 2511 3984 
Q 2250 4219 1831 4219 
Q 1534 4219 1204 4116 
Q 875 4013 500 3803 
L 500 4441 
Q 881 4594 1212 4672 
Q 1544 4750 1819 4750 
Q 2544 4750 2975 4387 
Q 3406 4025 3406 3419 
Q 3406 3131 3298 2873 
Q 3191 2616 2906 2266 
Q 2828 2175 2409 1742 
Q 1991 1309 1228 531 
z
" transform="scale(0.015625)"/>
       </defs>
       <use xlink:href="#DejaVuSans-32"/>
       <use xlink:href="#DejaVuSans-30" transform="translate(63.623047 0)"/>
       <use xlink:href="#DejaVuSans-30" transform="translate(127.246094 0)"/>
      </g>
     </g>
    </g>
    <g id="xtick_6">
     <g id="line2d_6">
      <g>
       <use xlink:href="#m40ccc3af7d" x="352.56202" y="202.858516" style="stroke: currentColor; stroke-width: 0.8"/>
      </g>
     </g>
     <g id="text_6">
      <!-- 250 -->
      <g transform="translate(344.92702 215.937266) scale(0.08 -0.08)">
       <use xlink:href="#DejaVuSans-32"/>
       <use xlink:href="#DejaVuSans-35" transform="translate(63.623047 0)"/>
       <use xlink:href="#DejaVuSans-30" transform="translate(127.246094 0)"/>
      </g>
     </g>
    </g>
    <g id="xtick_7">
     <g id="line2d_7">
      <g>
       <use xlink:href="#m40ccc3af7d" x="421.125424" y="202.858516" style="stroke: currentColor; stroke-width: 0.8"/>
      </g>
     </g>
     <g id="text_7">
      <!-- 300 -->
      <g transform="translate(413.490424 215.937266) scale(0.08 -0.08)">
       <defs>
        <path id="DejaVuSans-33" d="M 2597 2516 
Q 3050 2419 3304 2112 
Q 3559 1806 3559 1356 
Q 3559 666 3084 287 
Q 2609 -91 1734 -91 
Q 1441 -91 1130 -33 
Q 819 25 488 141 
L 488 750 
Q 750 597 1062 519 
Q 1375 441 1716 441 
Q 2309 441 2620 675 
Q 2931 909 2931 1356 
Q 2931 1769 2642 2001 
Q 2353 2234 1838 2234 
L 1294 2234 
L 1294 2753 
L 1863 2753 
Q 2328 2753 2575 2939 
Q 2822 3125 2822 3475 
Q 2822 3834 2567 4026 
Q 2313 4219 1838 4219 
Q 1578 4219 1281 4162 
Q 984 4106 628 3988 
L 628 4550 
Q 988 4650 1302 4700 
Q 1616 4750 1894 4750 
Q 2613 4750 3031 4423 
Q 3450 4097 3450 3541 
Q 3450 3153 3228 2886 
Q 3006 2619 2597 2516 
z
" transform="scale(0.015625)"/>
       </defs>
       <use xlink:href="#DejaVuSans-33"/>
       <use xlink:href="#DejaVuSans-30" transform="translate(63.623047 0)"/>
       <use xlink:href="#DejaVuSans-30" transform="translate(127.246094 0)"/>
      </g>
     </g>
    </g>
    <g id="xtick_8">
     <g id="line2d_8">
      <g>
       <use xlink:href="#m40ccc3af7d" x="489.688827" y="202.858516" style="stroke: currentColor; stroke-width: 0.8"/>
      </g>
     </g>
     <g id="text_8">
      <!-- 350 -->
      <g transform="translate(482.053827 215.937266) scale(0.08 -0.08)">
       <use xlink:href="#DejaVuSans-33"/>
       <use xlink:href="#DejaVuSans-35" transform="translate(63.623047 0)"/>
       <use xlink:href="#DejaVuSans-30" transform="translate(127.246094 0)"/>
      </g>
     </g>
    </g>
    <g id="text_9">
     <!-- Time (ms) -->
     <g transform="translate(228.408885 228.439609) scale(0.09 -0.09)">
      <defs>
       <path id="DejaVuSans-54" d="M -19 4666 
L 3928 4666 
L 3928 4134 
L 2272 4134 
L 2272 0 
L 1638 0 
L 1638 4134 
L -19 4134 
L -19 4666 
z
" transform="scale(0.015625)"/>
       <path id="DejaVuSans-69" d="M 603 3500 
L 1178 3500 
L 1178 0 
L 603 0 
L 603 3500 
z
M 603 4863 
L 1178 4863 
L 1178 4134 
L 603 4134 
L 603 4863 
z
" transform="scale(0.015625)"/>
       <path id="DejaVuSans-6d" d="M 3328 2828 
Q 3544 3216 3844 3400 
Q 4144 3584 4550 3584 
Q 5097 3584 5394 3201 
Q 5691 2819 5691 2113 
L 5691 0 
L 5113 0 
L 5113 2094 
Q 5113 2597 4934 2840 
Q 4756 3084 4391 3084 
Q 3944 3084 3684 2787 
Q 3425 2491 3425 1978 
L 3425 0 
L 2847 0 
L 2847 2094 
Q 2847 2600 2669 2842 
Q 2491 3084 2119 3084 
Q 1678 3084 1418 2786 
Q 1159 2488 1159 1978 
L 1159 0 
L 581 0 
L 581 3500 
L 1159 3500 
L 1159 2956 
Q 1356 3278 1631 3431 
Q 1906 3584 2284 3584 
Q 2666 3584 2933 3390 
Q 3200 3197 3328 2828 
z
" transform="scale(0.015625)"/>
       <path id="DejaVuSans-65" d="M 3597 1894 
L 3597 1613 
L 953 1613 
Q 991 1019 1311 708 
Q 1631 397 2203 397 
Q 2534 397 2845 478 
Q 3156 559 3463 722 
L 3463 178 
Q 3153 47 2828 -22 
Q 2503 -91 2169 -91 
Q 1331 -91 842 396 
Q 353 884 353 1716 
Q 353 2575 817 3079 
Q 1281 3584 2069 3584 
Q 2775 3584 3186 3129 
Q 3597 2675 3597 1894 
z
M 3022 2063 
Q 3016 2534 2758 2815 
Q 2500 3097 2075 3097 
Q 1594 3097 1305 2825 
Q 1016 2553 972 2059 
L 3022 2063 
z
" transform="scale(0.015625)"/>
       <path id="DejaVuSans-20" transform="scale(0.015625)"/>
       <path id="DejaVuSans-28" d="M 1984 4856 
Q 1566 4138 1362 3434 
Q 1159 2731 1159 2009 
Q 1159 1288 1364 580 
Q 1569 -128 1984 -844 
L 1484 -844 
Q 1016 -109 783 600 
Q 550 1309 550 2009 
Q 550 2706 781 3412 
Q 1013 4119 1484 4856 
L 1984 4856 
z
" transform="scale(0.015625)"/>
       <path id="DejaVuSans-73" d="M 2834 3397 
L 2834 2853 
Q 2591 2978 2328 3040 
Q 2066 3103 1784 3103 
Q 1356 3103 1142 2972 
Q 928 2841 928 2578 
Q 928 2378 1081 2264 
Q 1234 2150 1697 2047 
L 1894 2003 
Q 2506 1872 2764 1633 
Q 3022 1394 3022 966 
Q 3022 478 2636 193 
Q 2250 -91 1575 -91 
Q 1294 -91 989 -36 
Q 684 19 347 128 
L 347 722 
Q 666 556 975 473 
Q 1284 391 1588 391 
Q 1994 391 2212 530 
Q 2431 669 2431 922 
Q 2431 1156 2273 1281 
Q 2116 1406 1581 1522 
L 1381 1569 
Q 847 1681 609 1914 
Q 372 2147 372 2553 
Q 372 3047 722 3315 
Q 1072 3584 1716 3584 
Q 2034 3584 2315 3537 
Q 2597 3491 2834 3397 
z
" transform="scale(0.015625)"/>
       <path id="DejaVuSans-29" d="M 513 4856 
L 1013 4856 
Q 1481 4119 1714 3412 
Q 1947 2706 1947 2009 
Q 1947 1309 1714 600 
Q 1481 -109 1013 -844 
L 513 -844 
Q 928 -128 1133 580 
Q 1338 1288 1338 2009 
Q 1338 2731 1133 3434 
Q 928 4138 513 4856 
z
" transform="scale(0.015625)"/>
      </defs>
      <use xlink:href="#DejaVuSans-54"/>
      <use xlink:href="#DejaVuSans-69" transform="translate(57.958984 0)"/>
      <use xlink:href="#DejaVuSans-6d" transform="translate(85.742188 0)"/>
      <use xlink:href="#DejaVuSans-65" transform="translate(183.154297 0)"/>
      <use xlink:href="#DejaVuSans-20" transform="translate(244.677734 0)"/>
      <use xlink:href="#DejaVuSans-28" transform="translate(276.464844 0)"/>
      <use xlink:href="#DejaVuSans-6d" transform="translate(315.478516 0)"/>
      <use xlink:href="#DejaVuSans-73" transform="translate(412.890625 0)"/>
      <use xlink:href="#DejaVuSans-29" transform="translate(464.990234 0)"/>
     </g>
    </g>
   </g>
   <g id="matplotlib.axis_2"/>
   <g id="line2d_9">
    <path d="M 9.745 135.470768 
L 10.019254 135.369434 
L 10.362071 134.958837 
L 10.773451 134.055307 
L 11.253395 132.451244 
L 11.870466 129.566991 
L 12.624663 124.912283 
L 13.584551 117.522304 
L 15.092946 103.889247 
L 17.218411 84.876102 
L 18.246862 77.602576 
L 19.069623 73.309465 
L 19.686694 71.142084 
L 20.166637 70.131333 
L 20.578018 69.751967 
L 20.852271 69.751967 
L 21.126525 69.954478 
L 21.469342 70.490377 
L 21.949286 71.758403 
L 22.497793 73.917944 
L 23.183427 77.602576 
L 24.074751 83.802841 
L 25.240329 93.675886 
L 28.737063 124.43405 
L 29.628387 129.930825 
L 30.314021 132.96853 
L 30.862528 134.56251 
L 31.273909 135.242914 
L 31.616726 135.464431 
L 31.890979 135.413755 
L 32.233796 135.066058 
L 32.645177 134.236594 
L 33.125121 132.715692 
L 33.742191 129.930825 
L 34.496389 125.381914 
L 35.456276 118.094483 
L 36.896108 105.177809 
L 39.1587 84.876102 
L 40.187151 77.602576 
L 41.009912 73.309465 
L 41.626983 71.142084 
L 42.106927 70.131333 
L 42.518307 69.751967 
L 42.792561 69.751967 
L 43.066814 69.954478 
L 43.409631 70.490377 
L 43.889575 71.758403 
L 44.438082 73.917944 
L 45.123716 77.602576 
L 46.015041 83.802841 
L 47.180619 93.675886 
L 50.677352 124.43405 
L 51.568676 129.930825 
L 52.25431 132.96853 
L 52.802818 134.56251 
L 53.214198 135.242914 
L 53.557015 135.464431 
L 53.625579 69.726624 
L 53.694142 69.73296 
L 53.968396 69.884912 
L 54.311213 70.358251 
L 54.722593 71.335497 
L 55.2711 73.309465 
L 55.956734 76.783701 
L 56.779495 82.247795 
L 57.87651 91.221111 
L 61.990314 126.737398 
L 62.813075 131.279447 
L 63.430145 133.656428 
L 63.978653 134.958837 
L 64.390033 135.413755 
L 64.664287 135.464431 
L 64.93854 135.31248 
L 65.281357 134.83914 
L 65.692738 133.861894 
L 66.241245 131.887926 
L 66.926879 128.413691 
L 67.74964 122.949597 
L 68.846654 113.976281 
L 72.960458 78.459993 
L 73.783219 73.917944 
L 74.40029 71.540963 
L 74.948797 70.238555 
L 75.360178 69.783637 
L 75.634431 69.73296 
L 75.908685 69.884912 
L 76.251502 70.358251 
L 76.662882 71.335497 
L 77.211389 73.309465 
L 77.897024 76.783701 
L 78.719784 82.247795 
L 79.816799 91.221111 
L 83.930603 126.737398 
L 84.753364 131.279447 
L 85.370435 133.656428 
L 85.918942 134.958837 
L 86.330322 135.413755 
L 86.604576 135.464431 
L 86.878829 135.31248 
L 87.221646 134.83914 
L 87.633027 133.861894 
L 88.181534 131.887926 
L 88.867168 128.413691 
L 89.689929 122.949597 
L 90.786943 113.976281 
L 94.900748 78.459993 
L 95.723509 73.917944 
L 96.340579 71.540963 
L 96.889086 70.238555 
L 97.300467 69.783637 
L 97.437594 69.73296 
L 97.506157 135.470768 
L 97.57472 135.464431 
L 97.848974 135.31248 
L 98.191791 134.83914 
L 98.603171 133.861894 
L 99.151679 131.887926 
L 99.837313 128.413691 
L 100.660074 122.949597 
L 101.757088 113.976281 
L 105.870892 78.459993 
L 106.693653 73.917944 
L 107.310724 71.540963 
L 107.859231 70.238555 
L 108.270611 69.783637 
L 108.544865 69.73296 
L 108.819119 69.884912 
L 109.161936 70.358251 
L 109.573316 71.335497 
L 110.121823 73.309465 
L 110.807457 76.783701 
L 111.630218 82.247795 
L 112.727233 91.221111 
L 116.841037 126.737398 
L 117.663798 131.279447 
L 118.280868 133.656428 
L 118.829376 134.958837 
L 119.240756 135.413755 
L 119.51501 135.464431 
L 119.789263 135.31248 
L 120.13208 134.83914 
L 120.543461 133.861894 
L 121.091968 131.887926 
L 121.777602 128.413691 
L 122.600363 122.949597 
L 123.697377 113.976281 
L 127.811182 78.459993 
L 128.633942 73.917944 
L 129.251013 71.540963 
L 129.79952 70.238555 
L 130.210901 69.783637 
L 130.485154 69.73296 
L 130.759408 69.884912 
L 131.102225 70.358251 
L 131.513605 71.335497 
L 132.062113 73.309465 
L 132.747747 76.783701 
L 133.570507 82.247795 
L 134.667522 91.221111 
L 138.781326 126.737398 
L 139.604087 131.279447 
L 140.221158 133.656428 
L 140.769665 134.958837 
L 141.181045 135.413755 
L 141.455299 135.464431 
L 141.729553 135.31248 
L 142.07237 134.83914 
L 142.48375 133.861894 
L 143.032257 131.887926 
L 143.717891 128.413691 
L 144.540652 122.949597 
L 145.637667 113.976281 
L 149.751471 78.459993 
L 150.574232 73.917944 
L 151.191302 71.540963 
L 151.73981 70.238555 
L 152.15119 69.783637 
L 152.425444 69.73296 
L 152.699697 69.884912 
L 153.042514 70.358251 
L 153.453895 71.335497 
L 154.002402 73.309465 
L 154.688036 76.783701 
L 155.510797 82.247795 
L 156.607811 91.221111 
L 160.721615 126.737398 
L 161.544376 131.279447 
L 162.161447 133.656428 
L 162.709954 134.958837 
L 163.121335 135.413755 
L 163.395588 135.464431 
L 163.669842 135.31248 
L 164.012659 134.83914 
L 164.424039 133.861894 
L 164.972546 131.887926 
L 165.658181 128.413691 
L 166.480941 122.949597 
L 167.577956 113.976281 
L 171.69176 78.459993 
L 172.514521 73.917944 
L 173.131592 71.540963 
L 173.680099 70.238555 
L 174.091479 69.783637 
L 174.365733 69.73296 
L 174.639986 69.884912 
L 174.982803 70.358251 
L 175.394184 71.335497 
L 175.942691 73.309465 
L 176.628325 76.783701 
L 177.451086 82.247795 
L 178.5481 91.221111 
L 182.661905 126.737398 
L 183.484666 131.279447 
L 184.101736 133.656428 
L 184.650243 134.958837 
L 185.061624 135.413755 
L 185.198751 135.464431 
L 185.267314 69.726624 
L 185.335877 69.73296 
L 185.610131 69.884912 
L 185.952948 70.358251 
L 186.364329 71.335497 
L 186.912836 73.309465 
L 187.59847 76.783701 
L 188.421231 82.247795 
L 189.518245 91.221111 
L 193.632049 126.737398 
L 194.45481 131.279447 
L 195.071881 133.656428 
L 195.620388 134.958837 
L 196.031768 135.413755 
L 196.306022 135.464431 
L 196.580276 135.31248 
L 196.923093 134.83914 
L 197.334473 133.861894 
L 197.88298 131.887926 
L 198.568614 128.413691 
L 199.391375 122.949597 
L 200.48839 113.976281 
L 204.602194 78.459993 
L 205.424955 73.917944 
L 206.042025 71.540963 
L 206.590533 70.238555 
L 207.001913 69.783637 
L 207.276167 69.73296 
L 207.55042 69.884912 
L 207.893237 70.358251 
L 208.304618 71.335497 
L 208.853125 73.309465 
L 209.538759 76.783701 
L 210.36152 82.247795 
L 211.458534 91.221111 
L 215.572339 126.737398 
L 216.395099 131.279447 
L 217.01217 133.656428 
L 217.560677 134.958837 
L 217.972058 135.413755 
L 218.246311 135.464431 
L 218.520565 135.31248 
L 218.863382 134.83914 
L 219.274762 133.861894 
L 219.82327 131.887926 
L 220.508904 128.413691 
L 221.331665 122.949597 
L 222.428679 113.976281 
L 226.542483 78.459993 
L 227.365244 73.917944 
L 227.982315 71.540963 
L 228.530822 70.238555 
L 228.942202 69.783637 
L 229.216456 69.73296 
L 229.49071 69.884912 
L 229.833527 70.358251 
L 230.244907 71.335497 
L 230.793414 73.309465 
L 231.479048 76.783701 
L 232.301809 82.247795 
L 233.398824 91.221111 
L 237.512628 126.737398 
L 238.335389 131.279447 
L 238.952459 133.656428 
L 239.500967 134.958837 
L 239.912347 135.413755 
L 240.186601 135.464431 
L 240.460854 135.31248 
L 240.803671 134.83914 
L 241.215052 133.861894 
L 241.763559 131.887926 
L 242.449193 128.413691 
L 243.271954 122.949597 
L 244.368968 113.976281 
L 248.482772 78.459993 
L 249.305533 73.917944 
L 249.922604 71.540963 
L 250.471111 70.238555 
L 250.882492 69.783637 
L 251.156745 69.73296 
L 251.430999 69.884912 
L 251.773816 70.358251 
L 252.185196 71.335497 
L 252.733704 73.309465 
L 253.419338 76.783701 
L 254.242098 82.247795 
L 255.339113 91.221111 
L 259.452917 126.737398 
L 260.275678 131.279447 
L 260.892749 133.656428 
L 261.441256 134.958837 
L 261.852636 135.413755 
L 262.12689 135.464431 
L 262.401143 135.31248 
L 262.74396 134.83914 
L 263.155341 133.861894 
L 263.703848 131.887926 
L 264.389482 128.413691 
L 265.212243 122.949597 
L 266.309257 113.976281 
L 270.423062 78.459993 
L 271.245823 73.917944 
L 271.862893 71.540963 
L 272.4114 70.238555 
L 272.822781 69.783637 
L 272.959908 69.73296 
L 273.028471 135.470768 
L 273.097034 135.464431 
L 273.371288 135.31248 
L 273.714105 134.83914 
L 274.125486 133.861894 
L 274.673993 131.887926 
L 275.359627 128.413691 
L 276.182388 122.949597 
L 277.279402 113.976281 
L 281.393206 78.459993 
L 282.215967 73.917944 
L 282.833038 71.540963 
L 283.381545 70.238555 
L 283.792925 69.783637 
L 284.067179 69.73296 
L 284.341433 69.884912 
L 284.68425 70.358251 
L 285.09563 71.335497 
L 285.644137 73.309465 
L 286.329771 76.783701 
L 287.152532 82.247795 
L 288.249547 91.221111 
L 292.363351 126.737398 
L 293.186112 131.279447 
L 293.803182 133.656428 
L 294.35169 134.958837 
L 294.76307 135.413755 
L 295.037324 135.464431 
L 295.311577 135.31248 
L 295.654394 134.83914 
L 296.065775 133.861894 
L 296.614282 131.887926 
L 297.299916 128.413691 
L 298.122677 122.949597 
L 299.219691 113.976281 
L 303.333496 78.459993 
L 304.156256 73.917944 
L 304.773327 71.540963 
L 305.321834 70.238555 
L 305.733215 69.783637 
L 306.007468 69.73296 
L 306.281722 69.884912 
L 306.624539 70.358251 
L 307.035919 71.335497 
L 307.584427 73.309465 
L 308.270061 76.783701 
L 309.092822 82.247795 
L 310.189836 91.221111 
L 314.30364 126.737398 
L 315.126401 131.279447 
L 315.743472 133.656428 
L 316.291979 134.958837 
L 316.703359 135.413755 
L 316.840486 135.464431 
L 316.90905 69.726624 
L 316.977613 69.73296 
L 317.251867 69.884912 
L 317.594684 70.358251 
L 318.006064 71.335497 
L 318.554571 73.309465 
L 319.240205 76.783701 
L 320.062966 82.247795 
L 321.159981 91.221111 
L 325.273785 126.737398 
L 326.096546 131.279447 
L 326.713616 133.656428 
L 327.262124 134.958837 
L 327.673504 135.413755 
L 327.947758 135.464431 
L 328.222011 135.31248 
L 328.564828 134.83914 
L 328.976209 133.861894 
L 329.524716 131.887926 
L 330.21035 128.413691 
L 331.033111 122.949597 
L 332.130125 113.976281 
L 336.243929 78.459993 
L 337.06669 73.917944 
L 337.683761 71.540963 
L 338.232268 70.238555 
L 338.643649 69.783637 
L 338.917902 69.73296 
L 339.192156 69.884912 
L 339.534973 70.358251 
L 339.946353 71.335497 
L 340.494861 73.309465 
L 341.180495 76.783701 
L 342.003255 82.247795 
L 343.10027 91.221111 
L 347.214074 126.737398 
L 348.036835 131.279447 
L 348.653906 133.656428 
L 349.202413 134.958837 
L 349.613793 135.413755 
L 349.888047 135.464431 
L 350.1623 135.31248 
L 350.505118 134.83914 
L 350.916498 133.861894 
L 351.465005 131.887926 
L 352.150639 128.413691 
L 352.9734 122.949597 
L 354.070415 113.976281 
L 358.184219 78.459993 
L 359.00698 73.917944 
L 359.62405 71.540963 
L 360.172557 70.238555 
L 360.583938 69.783637 
L 360.721065 69.73296 
L 360.789628 135.470768 
L 360.858192 135.464431 
L 361.132445 135.31248 
L 361.475262 134.83914 
L 361.886643 133.861894 
L 362.43515 131.887926 
L 363.120784 128.413691 
L 363.943545 122.949597 
L 365.040559 113.976281 
L 369.154363 78.459993 
L 369.977124 73.917944 
L 370.594195 71.540963 
L 371.142702 70.238555 
L 371.554083 69.783637 
L 371.828336 69.73296 
L 372.10259 69.884912 
L 372.445407 70.358251 
L 372.856787 71.335497 
L 373.405294 73.309465 
L 374.090928 76.783701 
L 374.913689 82.247795 
L 376.010704 91.221111 
L 380.124508 126.737398 
L 380.947269 131.279447 
L 381.564339 133.656428 
L 382.112847 134.958837 
L 382.524227 135.413755 
L 382.798481 135.464431 
L 383.072734 135.31248 
L 383.415551 134.83914 
L 383.826932 133.861894 
L 384.375439 131.887926 
L 385.061073 128.413691 
L 385.883834 122.949597 
L 386.980848 113.976281 
L 391.094653 78.459993 
L 391.917413 73.917944 
L 392.534484 71.540963 
L 393.082991 70.238555 
L 393.494372 69.783637 
L 393.768625 69.73296 
L 394.042879 69.884912 
L 394.385696 70.358251 
L 394.797076 71.335497 
L 395.345584 73.309465 
L 396.031218 76.783701 
L 396.853979 82.247795 
L 397.950993 91.221111 
L 402.064797 126.737398 
L 402.887558 131.279447 
L 403.504629 133.656428 
L 404.053136 134.958837 
L 404.464516 135.413755 
L 404.601643 135.464431 
L 404.670207 69.726624 
L 404.73877 69.73296 
L 405.013024 69.884912 
L 405.355841 70.358251 
L 405.767221 71.335497 
L 406.315728 73.309465 
L 407.001362 76.783701 
L 407.824123 82.247795 
L 408.921138 91.221111 
L 413.034942 126.737398 
L 413.857703 131.279447 
L 414.474773 133.656428 
L 415.023281 134.958837 
L 415.434661 135.413755 
L 415.708915 135.464431 
L 415.983168 135.31248 
L 416.325985 134.83914 
L 416.737366 133.861894 
L 417.285873 131.887926 
L 417.971507 128.413691 
L 418.794268 122.949597 
L 419.891282 113.976281 
L 424.005087 78.459993 
L 424.827847 73.917944 
L 425.444918 71.540963 
L 425.993425 70.238555 
L 426.404806 69.783637 
L 426.679059 69.73296 
L 426.953313 69.884912 
L 427.29613 70.358251 
L 427.70751 71.335497 
L 428.256018 73.309465 
L 428.941652 76.783701 
L 429.764412 82.247795 
L 430.861427 91.221111 
L 434.975231 126.737398 
L 435.797992 131.279447 
L 436.415063 133.656428 
L 436.96357 134.958837 
L 437.37495 135.413755 
L 437.649204 135.464431 
L 437.923458 135.31248 
L 438.266275 134.83914 
L 438.677655 133.861894 
L 439.226162 131.887926 
L 439.911796 128.413691 
L 440.734557 122.949597 
L 441.831572 113.976281 
L 445.945376 78.459993 
L 446.768137 73.917944 
L 447.385207 71.540963 
L 447.933714 70.238555 
L 448.345095 69.783637 
L 448.482222 69.73296 
L 448.550785 135.470768 
L 448.619349 135.464431 
L 448.893602 135.31248 
L 449.236419 134.83914 
L 449.6478 133.861894 
L 450.196307 131.887926 
L 450.881941 128.413691 
L 451.704702 122.949597 
L 452.801716 113.976281 
L 456.91552 78.459993 
L 457.738281 73.917944 
L 458.355352 71.540963 
L 458.903859 70.238555 
L 459.31524 69.783637 
L 459.589493 69.73296 
L 459.863747 69.884912 
L 460.206564 70.358251 
L 460.617944 71.335497 
L 461.166451 73.309465 
L 461.852085 76.783701 
L 462.674846 82.247795 
L 463.771861 91.221111 
L 467.885665 126.737398 
L 468.708426 131.279447 
L 469.325497 133.656428 
L 469.874004 134.958837 
L 470.285384 135.413755 
L 470.559638 135.464431 
L 470.833891 135.31248 
L 471.176708 134.83914 
L 471.588089 133.861894 
L 472.136596 131.887926 
L 472.82223 128.413691 
L 473.644991 122.949597 
L 474.742005 113.976281 
L 478.85581 78.459993 
L 479.678571 73.917944 
L 480.295641 71.540963 
L 480.844148 70.238555 
L 481.255529 69.783637 
L 481.529782 69.73296 
L 481.804036 69.884912 
L 482.146853 70.358251 
L 482.558233 71.335497 
L 483.106741 73.309465 
L 483.792375 76.783701 
L 484.615136 82.247795 
L 485.71215 91.221111 
L 489.825954 126.737398 
L 490.648715 131.279447 
L 491.265786 133.656428 
L 491.814293 134.958837 
L 492.225673 135.413755 
L 492.3628 135.464431 
L 492.3628 135.464431 
" clip-path="url(#pa4d054c6e4)" style="fill: none; stroke: currentColor; stroke-width: 1.3; stroke-linecap: square"/>
   </g>
   <g id="line2d_10">
    <path d="M 9.745 202.858516 
L 9.745 20.418516 
" clip-path="url(#pa4d054c6e4)" style="fill: none; stroke-dasharray: 0.5,0.825; stroke-dashoffset: 0; stroke: currentColor; stroke-opacity: 0.55; stroke-width: 0.5"/>
   </g>
   <g id="line2d_11">
    <path d="M 53.625579 202.858516 
L 53.625579 20.418516 
" clip-path="url(#pa4d054c6e4)" style="fill: none; stroke-dasharray: 0.5,0.825; stroke-dashoffset: 0; stroke: currentColor; stroke-opacity: 0.55; stroke-width: 0.5"/>
   </g>
   <g id="line2d_12">
    <path d="M 97.506157 202.858516 
L 97.506157 20.418516 
" clip-path="url(#pa4d054c6e4)" style="fill: none; stroke-dasharray: 0.5,0.825; stroke-dashoffset: 0; stroke: currentColor; stroke-opacity: 0.55; stroke-width: 0.5"/>
   </g>
   <g id="line2d_13">
    <path d="M 141.386736 202.858516 
L 141.386736 20.418516 
" clip-path="url(#pa4d054c6e4)" style="fill: none; stroke-dasharray: 0.5,0.825; stroke-dashoffset: 0; stroke: currentColor; stroke-opacity: 0.55; stroke-width: 0.5"/>
   </g>
   <g id="line2d_14">
    <path d="M 185.267314 202.858516 
L 185.267314 20.418516 
" clip-path="url(#pa4d054c6e4)" style="fill: none; stroke-dasharray: 0.5,0.825; stroke-dashoffset: 0; stroke: currentColor; stroke-opacity: 0.55; stroke-width: 0.5"/>
   </g>
   <g id="line2d_15">
    <path d="M 229.147893 202.858516 
L 229.147893 20.418516 
" clip-path="url(#pa4d054c6e4)" style="fill: none; stroke-dasharray: 0.5,0.825; stroke-dashoffset: 0; stroke: currentColor; stroke-opacity: 0.55; stroke-width: 0.5"/>
   </g>
   <g id="line2d_16">
    <path d="M 273.028471 202.858516 
L 273.028471 20.418516 
" clip-path="url(#pa4d054c6e4)" style="fill: none; stroke-dasharray: 0.5,0.825; stroke-dashoffset: 0; stroke: currentColor; stroke-opacity: 0.55; stroke-width: 0.5"/>
   </g>
   <g id="line2d_17">
    <path d="M 316.90905 202.858516 
L 316.90905 20.418516 
" clip-path="url(#pa4d054c6e4)" style="fill: none; stroke-dasharray: 0.5,0.825; stroke-dashoffset: 0; stroke: currentColor; stroke-opacity: 0.55; stroke-width: 0.5"/>
   </g>
   <g id="line2d_18">
    <path d="M 360.789628 202.858516 
L 360.789628 20.418516 
" clip-path="url(#pa4d054c6e4)" style="fill: none; stroke-dasharray: 0.5,0.825; stroke-dashoffset: 0; stroke: currentColor; stroke-opacity: 0.55; stroke-width: 0.5"/>
   </g>
   <g id="line2d_19">
    <path d="M 404.670207 202.858516 
L 404.670207 20.418516 
" clip-path="url(#pa4d054c6e4)" style="fill: none; stroke-dasharray: 0.5,0.825; stroke-dashoffset: 0; stroke: currentColor; stroke-opacity: 0.55; stroke-width: 0.5"/>
   </g>
   <g id="line2d_20">
    <path d="M 448.550785 202.858516 
L 448.550785 20.418516 
" clip-path="url(#pa4d054c6e4)" style="fill: none; stroke-dasharray: 0.5,0.825; stroke-dashoffset: 0; stroke: currentColor; stroke-opacity: 0.55; stroke-width: 0.5"/>
   </g>
   <g id="line2d_21">
    <path d="M 492.431364 202.858516 
L 492.431364 20.418516 
" clip-path="url(#pa4d054c6e4)" style="fill: none; stroke-dasharray: 0.5,0.825; stroke-dashoffset: 0; stroke: currentColor; stroke-opacity: 0.55; stroke-width: 0.5"/>
   </g>
   <g id="patch_3">
    <path d="M 9.745 202.858516 
L 492.431364 202.858516 
" style="fill: none; stroke: currentColor; stroke-width: 0.8; stroke-linejoin: miter; stroke-linecap: square"/>
   </g>
   <g id="text_10">
    <!-- 0 -->
    <g transform="translate(29.140289 176.065194) scale(0.08 -0.08)">
     <use xlink:href="#DejaVuSans-30"/>
    </g>
   </g>
   <g id="text_11">
    <!-- 0 -->
    <g transform="translate(73.020868 176.065194) scale(0.08 -0.08)">
     <use xlink:href="#DejaVuSans-30"/>
    </g>
   </g>
   <g id="text_12">
    <!-- 0 -->
    <g transform="translate(116.901446 176.065194) scale(0.08 -0.08)">
     <use xlink:href="#DejaVuSans-30"/>
    </g>
   </g>
   <g id="text_13">
    <!-- 1 -->
    <g transform="translate(160.782025 176.065194) scale(0.08 -0.08)">
     <use xlink:href="#DejaVuSans-31"/>
    </g>
   </g>
   <g id="text_14">
    <!-- 0 -->
    <g transform="translate(204.662603 176.065194) scale(0.08 -0.08)">
     <use xlink:href="#DejaVuSans-30"/>
    </g>
   </g>
   <g id="text_15">
    <!-- 1 -->
    <g transform="translate(248.543182 176.065194) scale(0.08 -0.08)">
     <use xlink:href="#DejaVuSans-31"/>
    </g>
   </g>
   <g id="text_16">
    <!-- 0 -->
    <g transform="translate(292.42376 176.065194) scale(0.08 -0.08)">
     <use xlink:href="#DejaVuSans-30"/>
    </g>
   </g>
   <g id="text_17">
    <!-- 0 -->
    <g transform="translate(336.304339 176.065194) scale(0.08 -0.08)">
     <use xlink:href="#DejaVuSans-30"/>
    </g>
   </g>
   <g id="text_18">
    <!-- 0 -->
    <g transform="translate(380.184917 176.065194) scale(0.08 -0.08)">
     <use xlink:href="#DejaVuSans-30"/>
    </g>
   </g>
   <g id="text_19">
    <!-- 0 -->
    <g transform="translate(424.065496 176.065194) scale(0.08 -0.08)">
     <use xlink:href="#DejaVuSans-30"/>
    </g>
   </g>
   <g id="text_20">
    <!-- 0 -->
    <g transform="translate(467.946074 176.065194) scale(0.08 -0.08)">
     <use xlink:href="#DejaVuSans-30"/>
    </g>
   </g>
   <g id="patch_4">
    <path d="M 53.625579 146.261535 
Q 53.625579 141.044625 53.625579 136.722141 
" style="fill: none; stroke: currentColor; stroke-width: 0.8; stroke-linecap: round"/>
    <path d="M 52.105579 139.762141 
L 53.625579 136.722141 
L 55.145579 139.762141 
" style="fill: none; stroke: currentColor; stroke-width: 0.8; stroke-linecap: round"/>
   </g>
   <g id="text_21">
    <!-- phase reversal (bit = 0) -->
    <g transform="translate(8.474454 156.038013) scale(0.076 -0.076)">
     <defs>
      <path id="DejaVuSans-70" d="M 1159 525 
L 1159 -1331 
L 581 -1331 
L 581 3500 
L 1159 3500 
L 1159 2969 
Q 1341 3281 1617 3432 
Q 1894 3584 2278 3584 
Q 2916 3584 3314 3078 
Q 3713 2572 3713 1747 
Q 3713 922 3314 415 
Q 2916 -91 2278 -91 
Q 1894 -91 1617 61 
Q 1341 213 1159 525 
z
M 3116 1747 
Q 3116 2381 2855 2742 
Q 2594 3103 2138 3103 
Q 1681 3103 1420 2742 
Q 1159 2381 1159 1747 
Q 1159 1113 1420 752 
Q 1681 391 2138 391 
Q 2594 391 2855 752 
Q 3116 1113 3116 1747 
z
" transform="scale(0.015625)"/>
      <path id="DejaVuSans-68" d="M 3513 2113 
L 3513 0 
L 2938 0 
L 2938 2094 
Q 2938 2591 2744 2837 
Q 2550 3084 2163 3084 
Q 1697 3084 1428 2787 
Q 1159 2491 1159 1978 
L 1159 0 
L 581 0 
L 581 4863 
L 1159 4863 
L 1159 2956 
Q 1366 3272 1645 3428 
Q 1925 3584 2291 3584 
Q 2894 3584 3203 3211 
Q 3513 2838 3513 2113 
z
" transform="scale(0.015625)"/>
      <path id="DejaVuSans-61" d="M 2194 1759 
Q 1497 1759 1228 1600 
Q 959 1441 959 1056 
Q 959 750 1161 570 
Q 1363 391 1709 391 
Q 2188 391 2477 730 
Q 2766 1069 2766 1631 
L 2766 1759 
L 2194 1759 
z
M 3341 1997 
L 3341 0 
L 2766 0 
L 2766 531 
Q 2569 213 2275 61 
Q 1981 -91 1556 -91 
Q 1019 -91 701 211 
Q 384 513 384 1019 
Q 384 1609 779 1909 
Q 1175 2209 1959 2209 
L 2766 2209 
L 2766 2266 
Q 2766 2663 2505 2880 
Q 2244 3097 1772 3097 
Q 1472 3097 1187 3025 
Q 903 2953 641 2809 
L 641 3341 
Q 956 3463 1253 3523 
Q 1550 3584 1831 3584 
Q 2591 3584 2966 3190 
Q 3341 2797 3341 1997 
z
" transform="scale(0.015625)"/>
      <path id="DejaVuSans-72" d="M 2631 2963 
Q 2534 3019 2420 3045 
Q 2306 3072 2169 3072 
Q 1681 3072 1420 2755 
Q 1159 2438 1159 1844 
L 1159 0 
L 581 0 
L 581 3500 
L 1159 3500 
L 1159 2956 
Q 1341 3275 1631 3429 
Q 1922 3584 2338 3584 
Q 2397 3584 2469 3576 
Q 2541 3569 2628 3553 
L 2631 2963 
z
" transform="scale(0.015625)"/>
      <path id="DejaVuSans-76" d="M 191 3500 
L 800 3500 
L 1894 563 
L 2988 3500 
L 3597 3500 
L 2284 0 
L 1503 0 
L 191 3500 
z
" transform="scale(0.015625)"/>
      <path id="DejaVuSans-6c" d="M 603 4863 
L 1178 4863 
L 1178 0 
L 603 0 
L 603 4863 
z
" transform="scale(0.015625)"/>
      <path id="DejaVuSans-62" d="M 3116 1747 
Q 3116 2381 2855 2742 
Q 2594 3103 2138 3103 
Q 1681 3103 1420 2742 
Q 1159 2381 1159 1747 
Q 1159 1113 1420 752 
Q 1681 391 2138 391 
Q 2594 391 2855 752 
Q 3116 1113 3116 1747 
z
M 1159 2969 
Q 1341 3281 1617 3432 
Q 1894 3584 2278 3584 
Q 2916 3584 3314 3078 
Q 3713 2572 3713 1747 
Q 3713 922 3314 415 
Q 2916 -91 2278 -91 
Q 1894 -91 1617 61 
Q 1341 213 1159 525 
L 1159 0 
L 581 0 
L 581 4863 
L 1159 4863 
L 1159 2969 
z
" transform="scale(0.015625)"/>
      <path id="DejaVuSans-74" d="M 1172 4494 
L 1172 3500 
L 2356 3500 
L 2356 3053 
L 1172 3053 
L 1172 1153 
Q 1172 725 1289 603 
Q 1406 481 1766 481 
L 2356 481 
L 2356 0 
L 1766 0 
Q 1100 0 847 248 
Q 594 497 594 1153 
L 594 3053 
L 172 3053 
L 172 3500 
L 594 3500 
L 594 4494 
L 1172 4494 
z
" transform="scale(0.015625)"/>
      <path id="DejaVuSans-3d" d="M 678 2906 
L 4684 2906 
L 4684 2381 
L 678 2381 
L 678 2906 
z
M 678 1631 
L 4684 1631 
L 4684 1100 
L 678 1100 
L 678 1631 
z
" transform="scale(0.015625)"/>
     </defs>
     <use xlink:href="#DejaVuSans-70"/>
     <use xlink:href="#DejaVuSans-68" transform="translate(63.476562 0)"/>
     <use xlink:href="#DejaVuSans-61" transform="translate(126.855469 0)"/>
     <use xlink:href="#DejaVuSans-73" transform="translate(188.134766 0)"/>
     <use xlink:href="#DejaVuSans-65" transform="translate(240.234375 0)"/>
     <use xlink:href="#DejaVuSans-20" transform="translate(301.757812 0)"/>
     <use xlink:href="#DejaVuSans-72" transform="translate(333.544922 0)"/>
     <use xlink:href="#DejaVuSans-65" transform="translate(372.408203 0)"/>
     <use xlink:href="#DejaVuSans-76" transform="translate(433.931641 0)"/>
     <use xlink:href="#DejaVuSans-65" transform="translate(493.111328 0)"/>
     <use xlink:href="#DejaVuSans-72" transform="translate(554.634766 0)"/>
     <use xlink:href="#DejaVuSans-73" transform="translate(595.748047 0)"/>
     <use xlink:href="#DejaVuSans-61" transform="translate(647.847656 0)"/>
     <use xlink:href="#DejaVuSans-6c" transform="translate(709.126953 0)"/>
     <use xlink:href="#DejaVuSans-20" transform="translate(736.910156 0)"/>
     <use xlink:href="#DejaVuSans-28" transform="translate(768.697266 0)"/>
     <use xlink:href="#DejaVuSans-62" transform="translate(807.710938 0)"/>
     <use xlink:href="#DejaVuSans-69" transform="translate(871.1875 0)"/>
     <use xlink:href="#DejaVuSans-74" transform="translate(898.970703 0)"/>
     <use xlink:href="#DejaVuSans-20" transform="translate(938.179688 0)"/>
     <use xlink:href="#DejaVuSans-3d" transform="translate(969.966797 0)"/>
     <use xlink:href="#DejaVuSans-20" transform="translate(1053.755859 0)"/>
     <use xlink:href="#DejaVuSans-30" transform="translate(1085.542969 0)"/>
     <use xlink:href="#DejaVuSans-29" transform="translate(1149.166016 0)"/>
    </g>
   </g>
   <g id="patch_5">
    <path d="M 179.97478 54.451663 
Q 161.595764 62.50977 144.0359 70.208726 
" style="fill: none; stroke: currentColor; stroke-width: 0.8; stroke-linecap: round"/>
    <path d="M 147.430399 70.380117 
L 144.0359 70.208726 
L 146.209712 67.595961 
" style="fill: none; stroke: currentColor; stroke-width: 0.8; stroke-linecap: round"/>
   </g>
   <g id="text_22">
    <!-- no reversal -->
    <g transform="translate(183.195755 41.556084) scale(0.076 -0.076)">
     <defs>
      <path id="DejaVuSans-6e" d="M 3513 2113 
L 3513 0 
L 2938 0 
L 2938 2094 
Q 2938 2591 2744 2837 
Q 2550 3084 2163 3084 
Q 1697 3084 1428 2787 
Q 1159 2491 1159 1978 
L 1159 0 
L 581 0 
L 581 3500 
L 1159 3500 
L 1159 2956 
Q 1366 3272 1645 3428 
Q 1925 3584 2291 3584 
Q 2894 3584 3203 3211 
Q 3513 2838 3513 2113 
z
" transform="scale(0.015625)"/>
      <path id="DejaVuSans-6f" d="M 1959 3097 
Q 1497 3097 1228 2736 
Q 959 2375 959 1747 
Q 959 1119 1226 758 
Q 1494 397 1959 397 
Q 2419 397 2687 759 
Q 2956 1122 2956 1747 
Q 2956 2369 2687 2733 
Q 2419 3097 1959 3097 
z
M 1959 3584 
Q 2709 3584 3137 3096 
Q 3566 2609 3566 1747 
Q 3566 888 3137 398 
Q 2709 -91 1959 -91 
Q 1206 -91 779 398 
Q 353 888 353 1747 
Q 353 2609 779 3096 
Q 1206 3584 1959 3584 
z
" transform="scale(0.015625)"/>
     </defs>
     <use xlink:href="#DejaVuSans-6e"/>
     <use xlink:href="#DejaVuSans-6f" transform="translate(63.378906 0)"/>
     <use xlink:href="#DejaVuSans-20" transform="translate(124.560547 0)"/>
     <use xlink:href="#DejaVuSans-72" transform="translate(156.347656 0)"/>
     <use xlink:href="#DejaVuSans-65" transform="translate(195.210938 0)"/>
     <use xlink:href="#DejaVuSans-76" transform="translate(256.734375 0)"/>
     <use xlink:href="#DejaVuSans-65" transform="translate(315.914062 0)"/>
     <use xlink:href="#DejaVuSans-72" transform="translate(377.4375 0)"/>
     <use xlink:href="#DejaVuSans-73" transform="translate(418.550781 0)"/>
     <use xlink:href="#DejaVuSans-61" transform="translate(470.650391 0)"/>
     <use xlink:href="#DejaVuSans-6c" transform="translate(531.929688 0)"/>
    </g>
    <!-- (bit = 1) -->
    <g transform="translate(188.524661 50.066422) scale(0.076 -0.076)">
     <use xlink:href="#DejaVuSans-28"/>
     <use xlink:href="#DejaVuSans-62" transform="translate(39.013672 0)"/>
     <use xlink:href="#DejaVuSans-69" transform="translate(102.490234 0)"/>
     <use xlink:href="#DejaVuSans-74" transform="translate(130.273438 0)"/>
     <use xlink:href="#DejaVuSans-20" transform="translate(169.482422 0)"/>
     <use xlink:href="#DejaVuSans-3d" transform="translate(201.269531 0)"/>
     <use xlink:href="#DejaVuSans-20" transform="translate(285.058594 0)"/>
     <use xlink:href="#DejaVuSans-31" transform="translate(316.845703 0)"/>
     <use xlink:href="#DejaVuSans-29" transform="translate(380.46875 0)"/>
    </g>
   </g>
   <g id="patch_6">
    <path d="M 139.390094 179.848065 
Q 75.566552 179.848065 11.743009 179.848065 
" style="fill: none; stroke: currentColor; stroke-width: 0.9; stroke-linecap: round"/>
   </g>
   <g id="text_23">
    <!-- idle: continuous -->
    <g transform="translate(46.512438 190.983177) scale(0.073 -0.073)">
     <defs>
      <path id="DejaVuSans-64" d="M 2906 2969 
L 2906 4863 
L 3481 4863 
L 3481 0 
L 2906 0 
L 2906 525 
Q 2725 213 2448 61 
Q 2172 -91 1784 -91 
Q 1150 -91 751 415 
Q 353 922 353 1747 
Q 353 2572 751 3078 
Q 1150 3584 1784 3584 
Q 2172 3584 2448 3432 
Q 2725 3281 2906 2969 
z
M 947 1747 
Q 947 1113 1208 752 
Q 1469 391 1925 391 
Q 2381 391 2643 752 
Q 2906 1113 2906 1747 
Q 2906 2381 2643 2742 
Q 2381 3103 1925 3103 
Q 1469 3103 1208 2742 
Q 947 2381 947 1747 
z
" transform="scale(0.015625)"/>
      <path id="DejaVuSans-3a" d="M 750 794 
L 1409 794 
L 1409 0 
L 750 0 
L 750 794 
z
M 750 3309 
L 1409 3309 
L 1409 2516 
L 750 2516 
L 750 3309 
z
" transform="scale(0.015625)"/>
      <path id="DejaVuSans-63" d="M 3122 3366 
L 3122 2828 
Q 2878 2963 2633 3030 
Q 2388 3097 2138 3097 
Q 1578 3097 1268 2742 
Q 959 2388 959 1747 
Q 959 1106 1268 751 
Q 1578 397 2138 397 
Q 2388 397 2633 464 
Q 2878 531 3122 666 
L 3122 134 
Q 2881 22 2623 -34 
Q 2366 -91 2075 -91 
Q 1284 -91 818 406 
Q 353 903 353 1747 
Q 353 2603 823 3093 
Q 1294 3584 2113 3584 
Q 2378 3584 2631 3529 
Q 2884 3475 3122 3366 
z
" transform="scale(0.015625)"/>
      <path id="DejaVuSans-75" d="M 544 1381 
L 544 3500 
L 1119 3500 
L 1119 1403 
Q 1119 906 1312 657 
Q 1506 409 1894 409 
Q 2359 409 2629 706 
Q 2900 1003 2900 1516 
L 2900 3500 
L 3475 3500 
L 3475 0 
L 2900 0 
L 2900 538 
Q 2691 219 2414 64 
Q 2138 -91 1772 -91 
Q 1169 -91 856 284 
Q 544 659 544 1381 
z
M 1991 3584 
L 1991 3584 
z
" transform="scale(0.015625)"/>
     </defs>
     <use xlink:href="#DejaVuSans-69"/>
     <use xlink:href="#DejaVuSans-64" transform="translate(27.783203 0)"/>
     <use xlink:href="#DejaVuSans-6c" transform="translate(91.259766 0)"/>
     <use xlink:href="#DejaVuSans-65" transform="translate(119.042969 0)"/>
     <use xlink:href="#DejaVuSans-3a" transform="translate(180.566406 0)"/>
     <use xlink:href="#DejaVuSans-20" transform="translate(214.257812 0)"/>
     <use xlink:href="#DejaVuSans-63" transform="translate(246.044922 0)"/>
     <use xlink:href="#DejaVuSans-6f" transform="translate(301.025391 0)"/>
     <use xlink:href="#DejaVuSans-6e" transform="translate(362.207031 0)"/>
     <use xlink:href="#DejaVuSans-74" transform="translate(425.585938 0)"/>
     <use xlink:href="#DejaVuSans-69" transform="translate(464.794922 0)"/>
     <use xlink:href="#DejaVuSans-6e" transform="translate(492.578125 0)"/>
     <use xlink:href="#DejaVuSans-75" transform="translate(555.957031 0)"/>
     <use xlink:href="#DejaVuSans-6f" transform="translate(619.335938 0)"/>
     <use xlink:href="#DejaVuSans-75" transform="translate(680.517578 0)"/>
     <use xlink:href="#DejaVuSans-73" transform="translate(743.896484 0)"/>
    </g>
    <!-- reversals -->
    <g transform="translate(58.941258 199.15758) scale(0.073 -0.073)">
     <use xlink:href="#DejaVuSans-72"/>
     <use xlink:href="#DejaVuSans-65" transform="translate(38.863281 0)"/>
     <use xlink:href="#DejaVuSans-76" transform="translate(100.386719 0)"/>
     <use xlink:href="#DejaVuSans-65" transform="translate(159.566406 0)"/>
     <use xlink:href="#DejaVuSans-72" transform="translate(221.089844 0)"/>
     <use xlink:href="#DejaVuSans-73" transform="translate(262.203125 0)"/>
     <use xlink:href="#DejaVuSans-61" transform="translate(314.302734 0)"/>
     <use xlink:href="#DejaVuSans-6c" transform="translate(375.582031 0)"/>
     <use xlink:href="#DejaVuSans-73" transform="translate(403.365234 0)"/>
    </g>
   </g>
   <g id="patch_7">
    <path d="M 314.908391 179.848065 
Q 229.147081 179.848065 143.385772 179.848065 
" style="fill: none; stroke: currentColor; stroke-width: 0.9; stroke-linecap: round"/>
   </g>
   <g id="text_24">
    <!-- one character -->
    <g transform="translate(203.717088 190.983177) scale(0.073 -0.073)">
     <use xlink:href="#DejaVuSans-6f"/>
     <use xlink:href="#DejaVuSans-6e" transform="translate(61.181641 0)"/>
     <use xlink:href="#DejaVuSans-65" transform="translate(124.560547 0)"/>
     <use xlink:href="#DejaVuSans-20" transform="translate(186.083984 0)"/>
     <use xlink:href="#DejaVuSans-63" transform="translate(217.871094 0)"/>
     <use xlink:href="#DejaVuSans-68" transform="translate(272.851562 0)"/>
     <use xlink:href="#DejaVuSans-61" transform="translate(336.230469 0)"/>
     <use xlink:href="#DejaVuSans-72" transform="translate(397.509766 0)"/>
     <use xlink:href="#DejaVuSans-61" transform="translate(438.623047 0)"/>
     <use xlink:href="#DejaVuSans-63" transform="translate(499.902344 0)"/>
     <use xlink:href="#DejaVuSans-74" transform="translate(554.882812 0)"/>
     <use xlink:href="#DejaVuSans-65" transform="translate(594.091797 0)"/>
     <use xlink:href="#DejaVuSans-72" transform="translate(655.615234 0)"/>
    </g>
    <!-- (Varicode bit pattern) -->
    <g transform="translate(190.037572 199.15758) scale(0.073 -0.073)">
     <defs>
      <path id="DejaVuSans-56" d="M 1831 0 
L 50 4666 
L 709 4666 
L 2188 738 
L 3669 4666 
L 4325 4666 
L 2547 0 
L 1831 0 
z
" transform="scale(0.015625)"/>
     </defs>
     <use xlink:href="#DejaVuSans-28"/>
     <use xlink:href="#DejaVuSans-56" transform="translate(39.013672 0)"/>
     <use xlink:href="#DejaVuSans-61" transform="translate(99.671875 0)"/>
     <use xlink:href="#DejaVuSans-72" transform="translate(160.951172 0)"/>
     <use xlink:href="#DejaVuSans-69" transform="translate(202.064453 0)"/>
     <use xlink:href="#DejaVuSans-63" transform="translate(229.847656 0)"/>
     <use xlink:href="#DejaVuSans-6f" transform="translate(284.828125 0)"/>
     <use xlink:href="#DejaVuSans-64" transform="translate(346.009766 0)"/>
     <use xlink:href="#DejaVuSans-65" transform="translate(409.486328 0)"/>
     <use xlink:href="#DejaVuSans-20" transform="translate(471.009766 0)"/>
     <use xlink:href="#DejaVuSans-62" transform="translate(502.796875 0)"/>
     <use xlink:href="#DejaVuSans-69" transform="translate(566.273438 0)"/>
     <use xlink:href="#DejaVuSans-74" transform="translate(594.056641 0)"/>
     <use xlink:href="#DejaVuSans-20" transform="translate(633.265625 0)"/>
     <use xlink:href="#DejaVuSans-70" transform="translate(665.052734 0)"/>
     <use xlink:href="#DejaVuSans-61" transform="translate(728.529297 0)"/>
     <use xlink:href="#DejaVuSans-74" transform="translate(789.808594 0)"/>
     <use xlink:href="#DejaVuSans-74" transform="translate(829.017578 0)"/>
     <use xlink:href="#DejaVuSans-65" transform="translate(868.226562 0)"/>
     <use xlink:href="#DejaVuSans-72" transform="translate(929.75 0)"/>
     <use xlink:href="#DejaVuSans-6e" transform="translate(969.113281 0)"/>
     <use xlink:href="#DejaVuSans-29" transform="translate(1032.492188 0)"/>
    </g>
   </g>
   <g id="patch_8">
    <path d="M 402.669548 179.848065 
Q 360.790379 179.848065 318.91121 179.848065 
" style="fill: none; stroke: currentColor; stroke-width: 0.9; stroke-linecap: round"/>
   </g>
   <g id="text_25">
    <!-- 00 -->
    <g transform="translate(356.145003 190.983177) scale(0.073 -0.073)">
     <use xlink:href="#DejaVuSans-30"/>
     <use xlink:href="#DejaVuSans-30" transform="translate(63.623047 0)"/>
    </g>
    <!-- gap -->
    <g transform="translate(353.918503 199.15758) scale(0.073 -0.073)">
     <defs>
      <path id="DejaVuSans-67" d="M 2906 1791 
Q 2906 2416 2648 2759 
Q 2391 3103 1925 3103 
Q 1463 3103 1205 2759 
Q 947 2416 947 1791 
Q 947 1169 1205 825 
Q 1463 481 1925 481 
Q 2391 481 2648 825 
Q 2906 1169 2906 1791 
z
M 3481 434 
Q 3481 -459 3084 -895 
Q 2688 -1331 1869 -1331 
Q 1566 -1331 1297 -1286 
Q 1028 -1241 775 -1147 
L 775 -588 
Q 1028 -725 1275 -790 
Q 1522 -856 1778 -856 
Q 2344 -856 2625 -561 
Q 2906 -266 2906 331 
L 2906 616 
Q 2728 306 2450 153 
Q 2172 0 1784 0 
Q 1141 0 747 490 
Q 353 981 353 1791 
Q 353 2603 747 3093 
Q 1141 3584 1784 3584 
Q 2172 3584 2450 3431 
Q 2728 3278 2906 2969 
L 2906 3500 
L 3481 3500 
L 3481 434 
z
" transform="scale(0.015625)"/>
     </defs>
     <use xlink:href="#DejaVuSans-67"/>
     <use xlink:href="#DejaVuSans-61" transform="translate(63.476562 0)"/>
     <use xlink:href="#DejaVuSans-70" transform="translate(124.755859 0)"/>
    </g>
   </g>
   <g id="patch_9">
    <path d="M 445.655699 46.716173 
Q 426.610898 46.716173 407.566097 46.716173 
" style="fill: none; stroke: currentColor; stroke-width: 0.8; stroke-linecap: round"/>
    <path d="M 441.655699 44.716173 
L 445.655699 46.716173 
L 441.655699 48.716173 
" style="fill: none; stroke: currentColor; stroke-width: 0.8; stroke-linecap: round"/>
    <path d="M 411.566097 48.716173 
L 407.566097 46.716173 
L 411.566097 44.716173 
" style="fill: none; stroke: currentColor; stroke-width: 0.8; stroke-linecap: round"/>
   </g>
   <g id="text_26">
    <!-- 1 symbol = -->
    <g transform="translate(404.869746 31.694462) scale(0.076 -0.076)">
     <defs>
      <path id="DejaVuSans-79" d="M 2059 -325 
Q 1816 -950 1584 -1140 
Q 1353 -1331 966 -1331 
L 506 -1331 
L 506 -850 
L 844 -850 
Q 1081 -850 1212 -737 
Q 1344 -625 1503 -206 
L 1606 56 
L 191 3500 
L 800 3500 
L 1894 763 
L 2988 3500 
L 3597 3500 
L 2059 -325 
z
" transform="scale(0.015625)"/>
     </defs>
     <use xlink:href="#DejaVuSans-31"/>
     <use xlink:href="#DejaVuSans-20" transform="translate(63.623047 0)"/>
     <use xlink:href="#DejaVuSans-73" transform="translate(95.410156 0)"/>
     <use xlink:href="#DejaVuSans-79" transform="translate(147.509766 0)"/>
     <use xlink:href="#DejaVuSans-6d" transform="translate(206.689453 0)"/>
     <use xlink:href="#DejaVuSans-62" transform="translate(304.101562 0)"/>
     <use xlink:href="#DejaVuSans-6f" transform="translate(367.578125 0)"/>
     <use xlink:href="#DejaVuSans-6c" transform="translate(428.759766 0)"/>
     <use xlink:href="#DejaVuSans-20" transform="translate(456.542969 0)"/>
     <use xlink:href="#DejaVuSans-3d" transform="translate(488.330078 0)"/>
    </g>
    <!-- 32 ms (31.25 baud) -->
    <g transform="translate(389.065308 40.2048) scale(0.076 -0.076)">
     <defs>
      <path id="DejaVuSans-2e" d="M 684 794 
L 1344 794 
L 1344 0 
L 684 0 
L 684 794 
z
" transform="scale(0.015625)"/>
     </defs>
     <use xlink:href="#DejaVuSans-33"/>
     <use xlink:href="#DejaVuSans-32" transform="translate(63.623047 0)"/>
     <use xlink:href="#DejaVuSans-20" transform="translate(127.246094 0)"/>
     <use xlink:href="#DejaVuSans-6d" transform="translate(159.033203 0)"/>
     <use xlink:href="#DejaVuSans-73" transform="translate(256.445312 0)"/>
     <use xlink:href="#DejaVuSans-20" transform="translate(308.544922 0)"/>
     <use xlink:href="#DejaVuSans-28" transform="translate(340.332031 0)"/>
     <use xlink:href="#DejaVuSans-33" transform="translate(379.345703 0)"/>
     <use xlink:href="#DejaVuSans-31" transform="translate(442.96875 0)"/>
     <use xlink:href="#DejaVuSans-2e" transform="translate(506.591797 0)"/>
     <use xlink:href="#DejaVuSans-32" transform="translate(538.378906 0)"/>
     <use xlink:href="#DejaVuSans-35" transform="translate(602.001953 0)"/>
     <use xlink:href="#DejaVuSans-20" transform="translate(665.625 0)"/>
     <use xlink:href="#DejaVuSans-62" transform="translate(697.412109 0)"/>
     <use xlink:href="#DejaVuSans-61" transform="translate(760.888672 0)"/>
     <use xlink:href="#DejaVuSans-75" transform="translate(822.167969 0)"/>
     <use xlink:href="#DejaVuSans-64" transform="translate(885.546875 0)"/>
     <use xlink:href="#DejaVuSans-29" transform="translate(949.023438 0)"/>
    </g>
   </g>
   <g id="text_27">
    <!-- BPSK carrier: phase reversals at symbol boundaries carry Varicode bits -->
    <g transform="translate(82.40826 14.418516) scale(0.095 -0.095)">
     <defs>
      <path id="DejaVuSans-42" d="M 1259 2228 
L 1259 519 
L 2272 519 
Q 2781 519 3026 730 
Q 3272 941 3272 1375 
Q 3272 1813 3026 2020 
Q 2781 2228 2272 2228 
L 1259 2228 
z
M 1259 4147 
L 1259 2741 
L 2194 2741 
Q 2656 2741 2882 2914 
Q 3109 3088 3109 3444 
Q 3109 3797 2882 3972 
Q 2656 4147 2194 4147 
L 1259 4147 
z
M 628 4666 
L 2241 4666 
Q 2963 4666 3353 4366 
Q 3744 4066 3744 3513 
Q 3744 3084 3544 2831 
Q 3344 2578 2956 2516 
Q 3422 2416 3680 2098 
Q 3938 1781 3938 1306 
Q 3938 681 3513 340 
Q 3088 0 2303 0 
L 628 0 
L 628 4666 
z
" transform="scale(0.015625)"/>
      <path id="DejaVuSans-50" d="M 1259 4147 
L 1259 2394 
L 2053 2394 
Q 2494 2394 2734 2622 
Q 2975 2850 2975 3272 
Q 2975 3691 2734 3919 
Q 2494 4147 2053 4147 
L 1259 4147 
z
M 628 4666 
L 2053 4666 
Q 2838 4666 3239 4311 
Q 3641 3956 3641 3272 
Q 3641 2581 3239 2228 
Q 2838 1875 2053 1875 
L 1259 1875 
L 1259 0 
L 628 0 
L 628 4666 
z
" transform="scale(0.015625)"/>
      <path id="DejaVuSans-53" d="M 3425 4513 
L 3425 3897 
Q 3066 4069 2747 4153 
Q 2428 4238 2131 4238 
Q 1616 4238 1336 4038 
Q 1056 3838 1056 3469 
Q 1056 3159 1242 3001 
Q 1428 2844 1947 2747 
L 2328 2669 
Q 3034 2534 3370 2195 
Q 3706 1856 3706 1288 
Q 3706 609 3251 259 
Q 2797 -91 1919 -91 
Q 1588 -91 1214 -16 
Q 841 59 441 206 
L 441 856 
Q 825 641 1194 531 
Q 1563 422 1919 422 
Q 2459 422 2753 634 
Q 3047 847 3047 1241 
Q 3047 1584 2836 1778 
Q 2625 1972 2144 2069 
L 1759 2144 
Q 1053 2284 737 2584 
Q 422 2884 422 3419 
Q 422 4038 858 4394 
Q 1294 4750 2059 4750 
Q 2388 4750 2728 4690 
Q 3069 4631 3425 4513 
z
" transform="scale(0.015625)"/>
      <path id="DejaVuSans-4b" d="M 628 4666 
L 1259 4666 
L 1259 2694 
L 3353 4666 
L 4166 4666 
L 1850 2491 
L 4331 0 
L 3500 0 
L 1259 2247 
L 1259 0 
L 628 0 
L 628 4666 
z
" transform="scale(0.015625)"/>
     </defs>
     <use xlink:href="#DejaVuSans-42"/>
     <use xlink:href="#DejaVuSans-50" transform="translate(68.603516 0)"/>
     <use xlink:href="#DejaVuSans-53" transform="translate(128.90625 0)"/>
     <use xlink:href="#DejaVuSans-4b" transform="translate(192.382812 0)"/>
     <use xlink:href="#DejaVuSans-20" transform="translate(257.958984 0)"/>
     <use xlink:href="#DejaVuSans-63" transform="translate(289.746094 0)"/>
     <use xlink:href="#DejaVuSans-61" transform="translate(344.726562 0)"/>
     <use xlink:href="#DejaVuSans-72" transform="translate(406.005859 0)"/>
     <use xlink:href="#DejaVuSans-72" transform="translate(445.369141 0)"/>
     <use xlink:href="#DejaVuSans-69" transform="translate(486.482422 0)"/>
     <use xlink:href="#DejaVuSans-65" transform="translate(514.265625 0)"/>
     <use xlink:href="#DejaVuSans-72" transform="translate(575.789062 0)"/>
     <use xlink:href="#DejaVuSans-3a" transform="translate(615.152344 0)"/>
     <use xlink:href="#DejaVuSans-20" transform="translate(648.84375 0)"/>
     <use xlink:href="#DejaVuSans-70" transform="translate(680.630859 0)"/>
     <use xlink:href="#DejaVuSans-68" transform="translate(744.107422 0)"/>
     <use xlink:href="#DejaVuSans-61" transform="translate(807.486328 0)"/>
     <use xlink:href="#DejaVuSans-73" transform="translate(868.765625 0)"/>
     <use xlink:href="#DejaVuSans-65" transform="translate(920.865234 0)"/>
     <use xlink:href="#DejaVuSans-20" transform="translate(982.388672 0)"/>
     <use xlink:href="#DejaVuSans-72" transform="translate(1014.175781 0)"/>
     <use xlink:href="#DejaVuSans-65" transform="translate(1053.039062 0)"/>
     <use xlink:href="#DejaVuSans-76" transform="translate(1114.5625 0)"/>
     <use xlink:href="#DejaVuSans-65" transform="translate(1173.742188 0)"/>
     <use xlink:href="#DejaVuSans-72" transform="translate(1235.265625 0)"/>
     <use xlink:href="#DejaVuSans-73" transform="translate(1276.378906 0)"/>
     <use xlink:href="#DejaVuSans-61" transform="translate(1328.478516 0)"/>
     <use xlink:href="#DejaVuSans-6c" transform="translate(1389.757812 0)"/>
     <use xlink:href="#DejaVuSans-73" transform="translate(1417.541016 0)"/>
     <use xlink:href="#DejaVuSans-20" transform="translate(1469.640625 0)"/>
     <use xlink:href="#DejaVuSans-61" transform="translate(1501.427734 0)"/>
     <use xlink:href="#DejaVuSans-74" transform="translate(1562.707031 0)"/>
     <use xlink:href="#DejaVuSans-20" transform="translate(1601.916016 0)"/>
     <use xlink:href="#DejaVuSans-73" transform="translate(1633.703125 0)"/>
     <use xlink:href="#DejaVuSans-79" transform="translate(1685.802734 0)"/>
     <use xlink:href="#DejaVuSans-6d" transform="translate(1744.982422 0)"/>
     <use xlink:href="#DejaVuSans-62" transform="translate(1842.394531 0)"/>
     <use xlink:href="#DejaVuSans-6f" transform="translate(1905.871094 0)"/>
     <use xlink:href="#DejaVuSans-6c" transform="translate(1967.052734 0)"/>
     <use xlink:href="#DejaVuSans-20" transform="translate(1994.835938 0)"/>
     <use xlink:href="#DejaVuSans-62" transform="translate(2026.623047 0)"/>
     <use xlink:href="#DejaVuSans-6f" transform="translate(2090.099609 0)"/>
     <use xlink:href="#DejaVuSans-75" transform="translate(2151.28125 0)"/>
     <use xlink:href="#DejaVuSans-6e" transform="translate(2214.660156 0)"/>
     <use xlink:href="#DejaVuSans-64" transform="translate(2278.039062 0)"/>
     <use xlink:href="#DejaVuSans-61" transform="translate(2341.515625 0)"/>
     <use xlink:href="#DejaVuSans-72" transform="translate(2402.794922 0)"/>
     <use xlink:href="#DejaVuSans-69" transform="translate(2443.908203 0)"/>
     <use xlink:href="#DejaVuSans-65" transform="translate(2471.691406 0)"/>
     <use xlink:href="#DejaVuSans-73" transform="translate(2533.214844 0)"/>
     <use xlink:href="#DejaVuSans-20" transform="translate(2585.314453 0)"/>
     <use xlink:href="#DejaVuSans-63" transform="translate(2617.101562 0)"/>
     <use xlink:href="#DejaVuSans-61" transform="translate(2672.082031 0)"/>
     <use xlink:href="#DejaVuSans-72" transform="translate(2733.361328 0)"/>
     <use xlink:href="#DejaVuSans-72" transform="translate(2772.724609 0)"/>
     <use xlink:href="#DejaVuSans-79" transform="translate(2813.837891 0)"/>
     <use xlink:href="#DejaVuSans-20" transform="translate(2873.017578 0)"/>
     <use xlink:href="#DejaVuSans-56" transform="translate(2904.804688 0)"/>
     <use xlink:href="#DejaVuSans-61" transform="translate(2965.462891 0)"/>
     <use xlink:href="#DejaVuSans-72" transform="translate(3026.742188 0)"/>
     <use xlink:href="#DejaVuSans-69" transform="translate(3067.855469 0)"/>
     <use xlink:href="#DejaVuSans-63" transform="translate(3095.638672 0)"/>
     <use xlink:href="#DejaVuSans-6f" transform="translate(3150.619141 0)"/>
     <use xlink:href="#DejaVuSans-64" transform="translate(3211.800781 0)"/>
     <use xlink:href="#DejaVuSans-65" transform="translate(3275.277344 0)"/>
     <use xlink:href="#DejaVuSans-20" transform="translate(3336.800781 0)"/>
     <use xlink:href="#DejaVuSans-62" transform="translate(3368.587891 0)"/>
     <use xlink:href="#DejaVuSans-69" transform="translate(3432.064453 0)"/>
     <use xlink:href="#DejaVuSans-74" transform="translate(3459.847656 0)"/>
     <use xlink:href="#DejaVuSans-73" transform="translate(3499.056641 0)"/>
    </g>
   </g>
  </g>
 </g>
 <defs>
  <clipPath id="pa4d054c6e4">
   <rect x="9.745" y="20.418516" width="482.686364" height="182.44"/>
  </clipPath>
 </defs>
</svg>
