<svg fill="currentColor" xmlns:xlink="http://www.w3.org/1999/xlink" width="393.855625pt" height="420.946469pt" viewBox="0 0 393.855625 420.946469" xmlns="http://www.w3.org/2000/svg" version="1.1">
 <metadata>
  <rdf:RDF xmlns:dc="http://purl.org/dc/elements/1.1/" xmlns:cc="http://creativecommons.org/ns#" xmlns:rdf="http://www.w3.org/1999/02/22-rdf-syntax-ns#">
   <cc:Work>
    <dc:type rdf:resource="http://purl.org/dc/dcmitype/StillImage"/>
    <dc:date>2026-07-21T16:01:22.221011</dc:date>
    <dc:format>image/svg+xml</dc:format>
    <dc:creator>
     <cc:Agent>
      <dc:title>Matplotlib v3.10.9, https://matplotlib.org/</dc:title>
     </cc:Agent>
    </dc:creator>
   </cc:Work>
  </rdf:RDF>
 </metadata>
 <defs>
  <style type="text/css">*{stroke-linejoin: round; stroke-linecap: butt}</style>
 </defs>
 <g id="figure_1">
  <g id="patch_1">
   <path d="M 0 420.946469 
L 393.855625 420.946469 
L 393.855625 0 
L 0 0 
L 0 420.946469 
z
" style="fill: none"/>
  </g>
  <g id="axes_1">
   <g id="patch_2">
    <path d="M 361.81625 224.032297 
C 361.81625 202.191355 357.514061 180.562788 349.155894 160.384388 
C 340.797727 140.205989 328.546128 121.870175 313.10225 106.426297 
C 297.658371 90.982419 279.322558 78.73082 259.144158 70.372653 
C 238.965759 62.014486 217.337192 57.712297 195.49625 57.712297 
C 173.655308 57.712297 152.026741 62.014486 131.848342 70.372653 
C 111.669942 78.73082 93.334129 90.982419 77.89025 106.426297 
C 62.446372 121.870175 50.194773 140.205989 41.836606 160.384388 
C 33.478439 180.562788 29.17625 202.191355 29.17625 224.032297 
C 29.17625 245.873239 33.478439 267.501806 41.836606 287.680205 
C 50.194773 307.858605 62.446372 326.194418 77.89025 341.638297 
C 93.334129 357.082175 111.669942 369.333774 131.848342 377.691941 
C 152.026741 386.050107 173.655308 390.352297 195.49625 390.352297 
C 217.337192 390.352297 238.965759 386.050107 259.144158 377.691941 
C 279.322558 369.333774 297.658371 357.082175 313.10225 341.638297 
C 328.546128 326.194418 340.797727 307.858605 349.155894 287.680205 
C 357.514061 267.501806 361.81625 245.873239 361.81625 224.032297 
M 195.49625 224.032297 
C 195.49625 224.032297 195.49625 224.032297 195.49625 224.032297 
C 195.49625 224.032297 195.49625 224.032297 195.49625 224.032297 
C 195.49625 224.032297 195.49625 224.032297 195.49625 224.032297 
C 195.49625 224.032297 195.49625 224.032297 195.49625 224.032297 
C 195.49625 224.032297 195.49625 224.032297 195.49625 224.032297 
C 195.49625 224.032297 195.49625 224.032297 195.49625 224.032297 
C 195.49625 224.032297 195.49625 224.032297 195.49625 224.032297 
C 195.49625 224.032297 195.49625 224.032297 195.49625 224.032297 
C 195.49625 224.032297 195.49625 224.032297 195.49625 224.032297 
C 195.49625 224.032297 195.49625 224.032297 195.49625 224.032297 
C 195.49625 224.032297 195.49625 224.032297 195.49625 224.032297 
C 195.49625 224.032297 195.49625 224.032297 195.49625 224.032297 
C 195.49625 224.032297 195.49625 224.032297 195.49625 224.032297 
C 195.49625 224.032297 195.49625 224.032297 195.49625 224.032297 
C 195.49625 224.032297 195.49625 224.032297 195.49625 224.032297 
C 195.49625 224.032297 195.49625 224.032297 195.49625 224.032297 
L 195.49625 224.032297 
z
" style="fill: none"/>
   </g>
   <g id="patch_3">
    <path d="M 195.49625 65.530272 
L 194.998071 65.536756 
L 194.500004 65.556206 
L 194.002162 65.588618 
L 193.504657 65.633982 
L 193.007602 65.69229 
L 192.511108 65.763525 
L 192.015286 65.847672 
L 191.52025 65.944709 
L 191.026109 66.054614 
L 190.532975 66.177358 
L 190.040959 66.312914 
L 189.55017 66.461247 
L 189.060718 66.622322 
L 188.572712 66.796099 
L 188.086261 66.982538 
L 187.601473 67.181592 
L 187.118455 67.393214 
L 186.637314 67.617353 
L 186.158157 67.853954 
L 185.681087 68.102961 
L 185.206211 68.364314 
L 184.733631 68.637949 
L 184.263451 68.923802 
L 183.795772 69.221803 
L 183.330696 69.531882 
L 182.868322 69.853963 
L 182.40875 70.187971 
L 181.952078 70.533825 
L 181.498402 70.891443 
L 181.047819 71.260741 
L 180.600423 71.64163 
L 180.156308 72.034019 
L 179.715566 72.437818 
L 179.278289 72.852928 
L 178.844566 73.279254 
L 178.414485 73.716694 
L 177.988135 74.165147 
L 177.5656 74.624505 
L 177.146966 75.094663 
L 176.732315 75.575511 
L 176.321729 76.066935 
L 175.915289 76.568823 
L 175.513072 77.081057 
L 175.115157 77.603519 
L 174.721618 78.136089 
L 174.33253 78.678644 
L 173.947965 79.231059 
L 173.567995 79.793207 
L 173.192687 80.364961 
L 172.822111 80.94619 
L 172.456332 81.536761 
L 172.095414 82.136541 
L 171.739419 82.745395 
L 171.388409 83.363184 
L 171.042443 83.989771 
L 170.701577 84.625016 
L 170.365868 85.268775 
L 170.035369 85.920907 
L 169.710133 86.581267 
L 169.390208 87.249708 
L 169.075644 87.926083 
L 168.766488 88.610244 
L 168.462783 89.302041 
L 168.164573 90.001324 
L 167.871899 90.707941 
L 167.5848 91.421739 
L 167.303313 92.142564 
L 167.027474 92.870262 
L 166.757316 93.604677 
L 166.49287 94.345653 
L 166.234168 95.093032 
L 165.981235 95.846658 
L 165.734099 96.606371 
L 165.492784 97.372014 
L 165.257312 98.143426 
L 165.027703 98.920447 
L 164.803976 99.702918 
L 164.586147 100.490678 
L 164.374232 101.283565 
L 164.168243 102.081419 
L 163.968191 102.884079 
L 163.774085 103.691382 
L 163.585934 104.503167 
L 163.403742 105.319273 
L 163.227513 106.139537 
L 163.057249 106.963799 
L 162.89295 107.791897 
L 162.734615 108.62367 
L 162.58224 109.458956 
L 162.435819 110.297595 
L 162.295347 111.139427 
L 162.160813 111.984291 
L 162.032209 112.832028 
L 161.909521 113.682478 
L 161.792736 114.535483 
L 161.681838 115.390886 
L 161.57681 116.248527 
L 161.477634 117.108252 
L 161.384289 117.969903 
L 161.296753 118.833325 
L 161.215002 119.698363 
L 161.139011 120.564865 
L 161.068754 121.432676 
L 161.004203 122.301646 
L 160.945327 123.171622 
L 160.892096 124.042456 
L 160.844477 124.913998 
L 160.802435 125.786101 
L 160.765937 126.658617 
L 160.734944 127.531401 
L 160.709418 128.404309 
L 160.689321 129.277198 
L 160.674612 130.149926 
L 160.665247 131.022352 
L 160.661185 131.894337 
L 160.66238 132.765743 
L 160.668787 133.636434 
L 160.680359 134.506275 
L 160.697048 135.375131 
L 160.718805 136.242873 
L 160.74558 137.109367 
L 160.777321 137.974486 
L 160.813976 138.838103 
L 160.855492 139.700091 
L 160.901815 140.560326 
L 160.952889 141.418686 
L 161.008659 142.275049 
L 161.069067 143.129298 
L 161.134056 143.981313 
L 161.203567 144.83098 
L 161.27754 145.678184 
L 161.355916 146.522814 
L 161.438634 147.364759 
L 161.525631 148.20391 
L 161.616846 149.040161 
L 161.712216 149.873407 
L 161.811678 150.703544 
L 161.915166 151.530472 
L 162.022617 152.354091 
L 162.133965 153.174304 
L 162.249145 153.991016 
L 162.368091 154.804132 
L 162.490735 155.613561 
L 162.617012 156.419214 
L 162.746854 157.221002 
L 162.880192 158.018841 
L 163.01696 158.812645 
L 163.157088 159.602333 
L 163.300509 160.387825 
L 163.447154 161.169043 
L 163.596953 161.945911 
L 163.749837 162.718355 
L 163.905738 163.486302 
L 164.064585 164.249684 
L 164.22631 165.00843 
L 164.390843 165.762476 
L 164.558114 166.511757 
L 164.728054 167.25621 
L 164.900593 167.995775 
L 165.075661 168.730395 
L 165.253189 169.460012 
L 165.433109 170.184571 
L 165.61535 170.904021 
L 165.799843 171.61831 
L 165.98652 172.32739 
L 166.175311 173.031214 
L 166.366149 173.729737 
L 166.558964 174.422916 
L 166.75369 175.11071 
L 166.950257 175.793079 
L 167.1486 176.469985 
L 167.34865 177.141394 
L 167.55034 177.807271 
L 167.753605 178.467584 
L 167.958378 179.122304 
L 168.164594 179.7714 
L 168.372187 180.414848 
L 168.581093 181.052622 
L 168.791247 181.684698 
L 169.002586 182.311055 
L 169.215047 182.931674 
L 169.428565 183.546536 
L 169.64308 184.155625 
L 169.858529 184.758926 
L 170.074851 185.356425 
L 170.291986 185.948112 
L 170.509874 186.533976 
L 170.728454 187.114009 
L 170.94767 187.688203 
L 171.167461 188.256555 
L 171.387771 188.819058 
L 171.608543 189.375712 
L 171.829721 189.926515 
L 172.051249 190.471468 
L 172.273072 191.010573 
L 172.495136 191.543832 
L 172.717389 192.071252 
L 172.939776 192.592837 
L 173.162247 193.108595 
L 173.384749 193.618534 
L 173.607233 194.122666 
L 173.829649 194.621 
L 174.051947 195.11355 
L 174.27408 195.600328 
L 174.496001 196.08135 
L 174.717661 196.556632 
L 174.939016 197.02619 
L 175.160021 197.490043 
L 175.380631 197.94821 
L 175.600802 198.400712 
L 175.820493 198.84757 
L 176.039661 199.288806 
L 176.258264 199.724443 
L 176.476263 200.154507 
L 176.693619 200.579022 
L 176.910292 200.998014 
L 177.126244 201.41151 
L 177.34144 201.819539 
L 177.555841 202.22213 
L 177.769413 202.619311 
L 177.982122 203.011113 
L 178.193933 203.397567 
L 178.404813 203.778706 
L 178.614731 204.154561 
L 178.823654 204.525167 
L 179.031552 204.890556 
L 179.238396 205.250764 
L 179.444155 205.605826 
L 179.648803 205.955778 
L 179.852311 206.300656 
L 180.054653 206.640497 
L 180.255803 206.975339 
L 180.455736 207.30522 
L 180.654427 207.630177 
L 180.851853 207.950251 
L 181.047991 208.26548 
L 181.242819 208.575905 
L 181.436315 208.881565 
L 181.628458 209.182501 
L 181.81923 209.478754 
L 182.00861 209.770366 
L 182.19658 210.057377 
L 182.383123 210.339831 
L 182.56822 210.617768 
L 182.751857 210.891232 
L 182.934016 211.160264 
L 183.114683 211.424909 
L 183.293844 211.685208 
L 183.471484 211.941206 
L 183.647591 212.192945 
L 183.822152 212.440469 
L 183.995155 212.683822 
L 184.166589 212.923047 
L 184.336443 213.158188 
L 184.504707 213.389289 
L 184.671371 213.616394 
L 184.836427 213.839546 
L 184.999866 214.058791 
L 185.16168 214.274171 
L 185.321862 214.485731 
L 185.480405 214.693514 
L 185.637302 214.897565 
L 185.792548 215.097927 
L 185.946137 215.294644 
L 186.098065 215.487759 
L 186.248327 215.677316 
L 186.396919 215.863358 
L 186.543837 216.045929 
L 186.689078 216.225071 
L 186.83264 216.400829 
L 186.97452 216.573243 
L 187.114716 216.742357 
L 187.253226 216.908213 
L 187.39005 217.070854 
L 187.525186 217.23032 
L 187.658633 217.386655 
L 187.790391 217.539899 
L 187.92046 217.690094 
L 188.048841 217.83728 
L 188.175534 217.981498 
L 188.300539 218.122788 
L 188.423857 218.261191 
L 188.545491 218.396746 
L 188.66544 218.529493 
L 188.783707 218.659471 
L 188.900294 218.786718 
L 189.015202 218.911273 
L 189.128434 219.033174 
L 189.239991 219.15246 
L 189.349877 219.269166 
L 189.458093 219.383331 
L 189.564642 219.494991 
L 189.669527 219.604182 
L 189.77275 219.710941 
L 189.874314 219.815302 
L 189.974222 219.917301 
L 190.072476 220.016973 
L 190.16908 220.114352 
L 190.264036 220.209471 
L 190.357346 220.302365 
L 190.449015 220.393067 
L 190.539043 220.481609 
L 190.627434 220.568023 
L 190.71419 220.652342 
L 190.799313 220.734597 
L 190.882807 220.814818 
L 190.964672 220.893037 
L 191.044911 220.969284 
L 191.123526 221.043588 
L 191.200518 221.115979 
L 191.27589 221.186486 
L 191.349641 221.255136 
L 191.421774 221.321959 
L 191.492289 221.386981 
L 191.561186 221.450231 
L 191.628467 221.511734 
L 191.694131 221.571518 
L 191.758179 221.629607 
L 191.820609 221.686028 
L 191.881421 221.740806 
L 191.940613 221.793965 
L 191.998186 221.845529 
L 192.054136 221.895523 
L 192.108462 221.943971 
L 192.161161 221.990894 
L 192.21223 222.036316 
L 192.261668 222.080259 
L 192.309469 222.122745 
L 192.355629 222.163796 
L 192.400146 222.203433 
L 192.443013 222.241676 
L 192.484226 222.278546 
L 192.523778 222.314063 
L 192.561665 222.348247 
L 192.597879 222.381117 
L 192.632413 222.412693 
L 192.665261 222.442992 
L 192.696413 222.472035 
L 192.725862 222.499838 
L 192.753598 222.526419 
L 192.779613 222.551797 
L 192.803896 222.575988 
L 192.826438 222.599009 
L 192.847226 222.620877 
L 192.866251 222.641609 
L 192.883499 222.661221 
L 192.898959 222.679728 
L 192.912617 222.697147 
L 192.924461 222.713493 
L 192.934475 222.728782 
L 192.942647 222.743028 
L 192.94896 222.756247 
L 192.9534 222.768454 
L 192.95595 222.779663 
L 192.956594 222.789889 
L 192.955314 222.799145 
L 192.952094 222.807448 
L 192.946915 222.81481 
L 192.939759 222.821245 
L 192.930606 222.826769 
L 192.919438 222.831394 
L 192.906234 222.835135 
L 192.890975 222.838006 
L 192.873638 222.84002 
L 192.854203 222.841191 
L 192.832648 222.841533 
L 192.808952 222.84106 
L 192.783091 222.839786 
L 192.755042 222.837724 
L 192.724783 222.834889 
L 192.692289 222.831294 
L 192.657537 222.826954 
L 192.620502 222.821883 
L 192.581159 222.816096 
L 192.539484 222.809605 
L 192.495452 222.802428 
L 192.449036 222.794577 
L 192.400212 222.786068 
L 192.348953 222.776915 
L 192.295233 222.767135 
L 192.239026 222.756743 
L 192.180305 222.745754 
L 192.119045 222.734184 
L 192.055218 222.722049 
L 191.988798 222.709366 
L 191.919757 222.696151 
L 191.848071 222.682421 
L 191.773711 222.668194 
L 191.696651 222.653487 
L 191.616864 222.638317 
L 191.534326 222.622704 
L 191.449008 222.606665 
L 191.360885 222.590218 
L 191.269932 222.573384 
L 191.176123 222.556182 
L 191.079432 222.538632 
L 190.979835 222.520753 
L 190.877307 222.502566 
L 190.771825 222.484093 
L 190.663364 222.465355 
L 190.551902 222.446374 
L 190.437416 222.427171 
L 190.319884 222.407769 
L 190.199284 222.388192 
L 190.075596 222.368462 
L 189.948801 222.348604 
L 189.818878 222.328642 
L 189.685809 222.3086 
L 189.549577 222.288503 
L 189.410164 222.268377 
L 189.267556 222.248249 
L 189.121737 222.228143 
L 188.972693 222.208087 
L 188.820412 222.188108 
L 188.664882 222.168234 
L 188.506093 222.148493 
L 188.344035 222.128912 
L 188.178699 222.109521 
L 188.01008 222.090348 
L 187.838172 222.071424 
L 187.662971 222.052778 
L 187.484474 222.03444 
L 187.30268 222.01644 
L 187.117588 221.998811 
L 186.929203 221.981582 
L 186.737525 221.964785 
L 186.542561 221.948453 
L 186.344318 221.932617 
L 186.142804 221.917309 
L 185.938028 221.902562 
L 185.730004 221.888409 
L 185.518745 221.874883 
L 185.304267 221.862017 
L 185.086587 221.849845 
L 184.865725 221.838399 
L 184.641703 221.827714 
L 184.414543 221.817823 
L 184.184273 221.808759 
L 183.950919 221.800558 
L 183.714512 221.793253 
L 183.475083 221.786876 
L 183.232666 221.781464 
L 182.987298 221.777048 
L 182.739017 221.773664 
L 182.487863 221.771343 
L 182.23388 221.770121 
L 181.977114 221.77003 
L 181.71761 221.771103 
L 181.45542 221.773373 
L 181.190595 221.776873 
L 180.92319 221.781635 
L 180.653261 221.787691 
L 180.380867 221.795073 
L 180.10607 221.803811 
L 179.828933 221.813937 
L 179.549523 221.82548 
L 179.267908 221.838471 
L 178.984159 221.852939 
L 178.698347 221.868912 
L 178.41055 221.886419 
L 178.120844 221.905487 
L 177.82931 221.926142 
L 177.536029 221.948412 
L 177.241086 221.972321 
L 176.944568 221.997894 
L 176.646562 222.025154 
L 176.347162 222.054124 
L 176.046458 222.084827 
L 175.744547 222.117283 
L 175.441526 222.151512 
L 175.137495 222.187534 
L 174.832554 222.225367 
L 174.526807 222.265027 
L 174.220359 222.306531 
L 173.913317 222.349894 
L 173.60579 222.395129 
L 173.297889 222.442248 
L 172.989726 222.491263 
L 172.681414 222.542185 
L 172.37307 222.595021 
L 172.064811 222.64978 
L 171.756755 222.706467 
L 171.449021 222.765087 
L 171.141732 222.825645 
L 170.83501 222.888141 
L 170.528978 222.952576 
L 170.223761 223.018951 
L 169.919486 223.087262 
L 169.616278 223.157505 
L 169.314266 223.229676 
L 169.013578 223.303769 
L 168.714342 223.379773 
L 168.41669 223.457681 
L 168.12075 223.53748 
L 167.826654 223.619158 
L 167.534533 223.702701 
L 167.244517 223.788091 
L 166.95674 223.875313 
L 166.671331 223.964346 
L 166.388422 224.05517 
L 166.108146 224.147762 
L 165.830632 224.242099 
L 165.556012 224.338156 
L 165.284416 224.435904 
L 165.015974 224.535316 
L 164.750815 224.636362 
L 164.489067 224.739009 
L 164.230859 224.843225 
L 163.976317 224.948974 
L 163.725567 225.056221 
L 163.478733 225.164928 
L 163.235938 225.275054 
L 162.997306 225.386561 
L 162.762956 225.499405 
L 162.533007 225.613544 
L 162.307577 225.728931 
L 162.086782 225.845521 
L 161.870735 225.963267 
L 161.659548 226.082119 
L 161.453332 226.202028 
L 161.252194 226.322941 
L 161.05624 226.444807 
L 160.865573 226.567572 
L 160.680295 226.69118 
L 160.500503 226.815577 
L 160.326294 226.940705 
L 160.15776 227.066505 
L 159.994994 227.19292 
L 159.838082 227.31989 
L 159.687109 227.447353 
L 159.542158 227.575249 
L 159.403307 227.703515 
L 159.270631 227.832088 
L 159.144205 227.960905 
L 159.024097 228.089902 
L 158.910373 228.219014 
L 158.803097 228.348176 
L 158.702327 228.477321 
L 158.60812 228.606385 
L 158.520527 228.735301 
L 158.439599 228.864001 
L 158.365379 228.99242 
L 158.29791 229.12049 
L 158.23723 229.248145 
L 158.183372 229.375316 
L 158.136367 229.501937 
L 158.096243 229.627941 
L 158.063021 229.753262 
L 158.03672 229.877831 
L 158.017357 230.001583 
L 158.004941 230.124452 
L 157.999482 230.246372 
L 158.000981 230.367278 
L 158.009439 230.487104 
L 158.024852 230.605787 
L 158.047212 230.723263 
L 158.076506 230.839468 
L 158.11272 230.954342 
L 158.155832 231.067821 
L 158.20582 231.179846 
L 158.262657 231.290356 
L 158.326311 231.399293 
L 158.396748 231.506599 
L 158.473929 231.612217 
L 158.557812 231.716092 
L 158.648351 231.818168 
L 158.745497 231.918393 
L 158.849196 232.016714 
L 158.959392 232.113081 
L 159.076026 232.207444 
L 159.199033 232.299754 
L 159.328347 232.389966 
L 159.463898 232.478033 
L 159.605612 232.563912 
L 159.753414 232.647561 
L 159.907224 232.728939 
L 160.066958 232.808006 
L 160.232533 232.884726 
L 160.403859 232.959063 
L 160.580845 233.030981 
L 160.763397 233.10045 
L 160.951419 233.167437 
L 161.144813 233.231915 
L 161.343475 233.293856 
L 161.547303 233.353234 
L 161.756191 233.410026 
L 161.97003 233.46421 
L 162.188709 233.515767 
L 162.412117 233.564677 
L 162.640138 233.610925 
L 162.872657 233.654497 
L 163.109556 233.69538 
L 163.350716 233.733564 
L 163.596015 233.769038 
L 163.845331 233.801798 
L 164.09854 233.831837 
L 164.355518 233.859153 
L 164.616138 233.883744 
L 164.880274 233.90561 
L 165.147797 233.924755 
L 165.418578 233.941182 
L 165.692489 233.954897 
L 165.969399 233.965909 
L 166.249177 233.974225 
L 166.531693 233.979859 
L 166.816815 233.982823 
L 167.104413 233.983132 
L 167.394353 233.980801 
L 167.686505 233.97585 
L 167.980737 233.968298 
L 168.276919 233.958167 
L 168.574918 233.945479 
L 168.874604 233.930258 
L 169.175847 233.912532 
L 169.478518 233.892326 
L 169.782487 233.869671 
L 170.087626 233.844596 
L 170.393807 233.817134 
L 170.700905 233.787316 
L 171.008794 233.755178 
L 171.317348 233.720754 
L 171.626445 233.684082 
L 171.935963 233.6452 
L 172.245781 233.604146 
L 172.555778 233.560961 
L 172.865838 233.515686 
L 173.175844 233.468362 
L 173.48568 233.419033 
L 173.795233 233.367744 
L 174.104392 233.314537 
L 174.413047 233.259461 
L 174.721089 233.202559 
L 175.028412 233.143881 
L 175.334912 233.083473 
L 175.640487 233.021383 
L 175.945035 232.957662 
L 176.248459 232.892358 
L 176.550663 232.82552 
L 176.851551 232.757201 
L 177.151033 232.687449 
L 177.449018 232.616317 
L 177.745418 232.543855 
L 178.040149 232.470116 
L 178.333127 232.395151 
L 178.624271 232.319012 
L 178.913503 232.241751 
L 179.200747 232.16342 
L 179.485929 232.084072 
L 179.768977 232.003758 
L 180.049822 231.922531 
L 180.328398 231.840443 
L 180.60464 231.757545 
L 180.878486 231.673889 
L 181.149877 231.589527 
L 181.418756 231.50451 
L 181.685067 231.418889 
L 181.948759 231.332714 
L 182.209781 231.246036 
L 182.468086 231.158904 
L 182.723628 231.071368 
L 182.976364 230.983476 
L 183.226254 230.895278 
L 183.473259 230.806821 
L 183.717343 230.718153 
L 183.958473 230.62932 
L 184.196616 230.540368 
L 184.431744 230.451343 
L 184.663828 230.362291 
L 184.892845 230.273255 
L 185.118771 230.184279 
L 185.341585 230.095405 
L 185.56127 230.006677 
L 185.777807 229.918135 
L 185.991182 229.829819 
L 186.201383 229.741771 
L 186.408398 229.654028 
L 186.61222 229.566629 
L 186.81284 229.479611 
L 187.010255 229.393012 
L 187.204459 229.306866 
L 187.395452 229.221209 
L 187.583234 229.136074 
L 187.767806 229.051495 
L 187.949171 228.967504 
L 188.127335 228.884133 
L 188.302304 228.801412 
L 188.474086 228.71937 
L 188.642689 228.638037 
L 188.808125 228.557441 
L 188.970406 228.477608 
L 189.129546 228.398565 
L 189.285558 228.320337 
L 189.438459 228.242948 
L 189.588266 228.166422 
L 189.734996 228.090782 
L 189.87867 228.01605 
L 190.019307 227.942246 
L 190.15693 227.869391 
L 190.291559 227.797504 
L 190.423219 227.726603 
L 190.551933 227.656708 
L 190.677726 227.587833 
L 190.800624 227.519996 
L 190.920653 227.453212 
L 191.037841 227.387496 
L 191.152215 227.322861 
L 191.263803 227.25932 
L 191.372635 227.196887 
L 191.47874 227.135572 
L 191.582148 227.075387 
L 191.682889 227.016342 
L 191.780995 226.958447 
L 191.876496 226.901711 
L 191.969425 226.846142 
L 192.059813 226.791748 
L 192.147692 226.738536 
L 192.233096 226.686514 
L 192.316056 226.635687 
L 192.396606 226.58606 
L 192.474779 226.537639 
L 192.550608 226.490429 
L 192.624126 226.444433 
L 192.695366 226.399655 
L 192.764363 226.356098 
L 192.831149 226.313765 
L 192.895759 226.272657 
L 192.958225 226.232778 
L 193.01858 226.194129 
L 193.076859 226.15671 
L 193.133093 226.120523 
L 193.187317 226.085568 
L 193.239564 226.051845 
L 193.289865 226.019354 
L 193.338253 225.988095 
L 193.384761 225.958067 
L 193.429422 225.929269 
L 193.472266 225.901701 
L 193.513326 225.87536 
L 193.552633 225.850246 
L 193.590218 225.826356 
L 193.626112 225.80369 
L 193.660346 225.782244 
L 193.692949 225.762017 
L 193.723953 225.743007 
L 193.753386 225.725211 
L 193.781277 225.708627 
L 193.807657 225.693253 
L 193.832553 225.679085 
L 193.855993 225.666122 
L 193.878006 225.654361 
L 193.898618 225.643798 
L 193.917858 225.634432 
L 193.935752 225.626259 
L 193.952326 225.619278 
L 193.967606 225.613485 
L 193.981619 225.608877 
L 193.994388 225.605453 
L 194.00594 225.603209 
L 194.016298 225.602144 
L 194.025487 225.602254 
L 194.03353 225.603538 
L 194.040451 225.605992 
L 194.046274 225.609615 
L 194.051019 225.614405 
L 194.05471 225.62036 
L 194.057369 225.627477 
L 194.059016 225.635756 
L 194.059674 225.645193 
L 194.059363 225.655788 
L 194.058103 225.667539 
L 194.055915 225.680445 
L 194.052818 225.694504 
L 194.048832 225.709715 
L 194.043976 225.726078 
L 194.038268 225.743591 
L 194.031727 225.762253 
L 194.024372 225.782065 
L 194.016219 225.803025 
L 194.007288 225.825133 
L 193.997594 225.848389 
L 193.987155 225.872793 
L 193.975988 225.898344 
L 193.964109 225.925043 
L 193.951534 225.952891 
L 193.938279 225.981886 
L 193.924361 226.012031 
L 193.909794 226.043325 
L 193.894594 226.075769 
L 193.878776 226.109364 
L 193.862355 226.144111 
L 193.845345 226.18001 
L 193.827761 226.217064 
L 193.809617 226.255273 
L 193.790927 226.294638 
L 193.771706 226.335161 
L 193.751967 226.376842 
L 193.731723 226.419685 
L 193.710989 226.463689 
L 193.689778 226.508857 
L 193.668102 226.55519 
L 193.645976 226.602691 
L 193.623412 226.651359 
L 193.600423 226.701199 
L 193.577022 226.75221 
L 193.553222 226.804395 
L 193.529035 226.857755 
L 193.504474 226.912293 
L 193.479553 226.96801 
L 193.454282 227.024907 
L 193.428675 227.082987 
L 193.402745 227.142251 
L 193.376503 227.2027 
L 193.349962 227.264336 
L 193.323134 227.327161 
L 193.296033 227.391175 
L 193.268669 227.456381 
L 193.241056 227.522779 
L 193.213205 227.59037 
L 193.185129 227.659156 
L 193.156841 227.729137 
L 193.128353 227.800314 
L 193.099677 227.872687 
L 193.070826 227.946257 
L 193.041812 228.021024 
L 193.012647 228.096989 
L 192.983344 228.17415 
L 192.953917 228.252509 
L 192.924376 228.332064 
L 192.894735 228.412814 
L 192.865007 228.49476 
L 192.835205 228.577899 
L 192.805341 228.66223 
L 192.775427 228.747752 
L 192.745478 228.834463 
L 192.715506 228.92236 
L 192.685524 229.011441 
L 192.655544 229.101704 
L 192.625582 229.193146 
L 192.595648 229.285763 
L 192.565758 229.379551 
L 192.535924 229.474508 
L 192.506159 229.570627 
L 192.476477 229.667906 
L 192.446892 229.766338 
L 192.417417 229.86592 
L 192.388066 229.966644 
L 192.358853 230.068506 
L 192.329791 230.171498 
L 192.300894 230.275615 
L 192.272177 230.380848 
L 192.243652 230.487191 
L 192.215334 230.594635 
L 192.187237 230.703173 
L 192.159376 230.812794 
L 192.131763 230.923491 
L 192.104414 231.035254 
L 192.077342 231.148072 
L 192.050562 231.261935 
L 192.024088 231.376833 
L 191.997934 231.492753 
L 191.972114 231.609685 
L 191.946643 231.727615 
L 191.921535 231.846531 
L 191.896804 231.966421 
L 191.872465 232.08727 
L 191.848531 232.209063 
L 191.825017 232.331788 
L 191.801938 232.455428 
L 191.779306 232.579968 
L 191.757137 232.705392 
L 191.735445 232.831683 
L 191.714244 232.958825 
L 191.693547 233.0868 
L 191.673369 233.21559 
L 191.653724 233.345177 
L 191.634625 233.475541 
L 191.616087 233.606663 
L 191.598122 233.738524 
L 191.580744 233.871103 
L 191.563968 234.004378 
L 191.547806 234.13833 
L 191.532272 234.272935 
L 191.517378 234.408172 
L 191.503138 234.544018 
L 191.489564 234.680449 
L 191.47667 234.817442 
L 191.464468 234.954972 
L 191.45297 235.093015 
L 191.442189 235.231546 
L 191.432137 235.37054 
L 191.422825 235.509969 
L 191.414265 235.649808 
L 191.40647 235.79003 
L 191.399449 235.930608 
L 191.393215 236.071513 
L 191.387778 236.212718 
L 191.383148 236.354193 
L 191.379337 236.495911 
L 191.376355 236.637841 
L 191.37421 236.779953 
L 191.372914 236.922219 
L 191.372475 237.064606 
L 191.372903 237.207085 
L 191.374206 237.349623 
L 191.376393 237.49219 
L 191.379472 237.634753 
L 191.383452 237.77728 
L 191.388339 237.919739 
L 191.394142 238.062096 
L 191.400867 238.204319 
L 191.408521 238.346373 
L 191.41711 238.488227 
L 191.426641 238.629844 
L 191.437119 238.771192 
L 191.448549 238.912235 
L 191.460937 239.05294 
L 191.474287 239.193271 
L 191.488603 239.333193 
L 191.503889 239.47267 
L 191.520149 239.611669 
L 191.537385 239.750152 
L 191.555601 239.888085 
L 191.574799 240.025431 
L 191.594981 240.162154 
L 191.616148 240.298219 
L 191.638301 240.43359 
L 191.661441 240.56823 
L 191.685569 240.702104 
L 191.710683 240.835174 
L 191.736785 240.967405 
L 191.763872 241.09876 
L 191.791944 241.229204 
L 191.820998 241.3587 
L 191.851032 241.487212 
L 191.882045 241.614704 
L 191.914031 241.741139 
L 191.946989 241.866483 
L 191.980913 241.990699 
L 192.0158 242.113752 
L 192.051645 242.235606 
L 192.088443 242.356226 
L 192.126187 242.475577 
L 192.164871 242.593623 
L 192.20449 242.710331 
L 192.245036 242.825665 
L 192.286501 242.939592 
L 192.328878 243.052077 
L 192.372158 243.163087 
L 192.416333 243.272588 
L 192.461393 243.380548 
L 192.507329 243.486933 
L 192.554131 243.591711 
L 192.601788 243.69485 
L 192.650289 243.796319 
L 192.699624 243.896086 
L 192.749781 243.99412 
L 192.800747 244.090392 
L 192.85251 244.18487 
L 192.905058 244.277527 
L 192.958377 244.368331 
L 193.012452 244.457256 
L 193.067272 244.544273 
L 193.12282 244.629354 
L 193.179083 244.712472 
L 193.236045 244.793602 
L 193.293691 244.872717 
L 193.352005 244.949792 
L 193.410971 245.024802 
L 193.470572 245.097723 
L 193.530792 245.168532 
L 193.591613 245.237205 
L 193.653019 245.303722 
L 193.714991 245.368059 
L 193.777512 245.430196 
L 193.840563 245.490113 
L 193.904125 245.547791 
L 193.968181 245.60321 
L 194.03271 245.656352 
L 194.097694 245.707201 
L 194.163113 245.755738 
L 194.228948 245.801949 
L 194.295178 245.845818 
L 194.361782 245.88733 
L 194.428742 245.926473 
L 194.496036 245.963232 
L 194.563643 245.997596 
L 194.631543 246.029554 
L 194.699714 246.059094 
L 194.768135 246.086207 
L 194.836786 246.110884 
L 194.905644 246.133117 
L 194.974688 246.152899 
L 195.043897 246.170222 
L 195.113248 246.185081 
L 195.18272 246.197471 
L 195.25229 246.207388 
L 195.321938 246.214829 
L 195.391641 246.219791 
L 195.461377 246.222272 
L 195.531123 246.222272 
L 195.600859 246.219791 
L 195.670562 246.214829 
L 195.74021 246.207388 
L 195.80978 246.197471 
L 195.879252 246.185081 
L 195.948603 246.170222 
L 196.017812 246.152899 
L 196.086856 246.133117 
L 196.155714 246.110884 
L 196.224365 246.086207 
L 196.292786 246.059094 
L 196.360957 246.029554 
L 196.428857 245.997596 
L 196.496464 245.963232 
L 196.563758 245.926473 
L 196.630718 245.88733 
L 196.697322 245.845818 
L 196.763552 245.801949 
L 196.829387 245.755738 
L 196.894806 245.707201 
L 196.95979 245.656352 
L 197.024319 245.60321 
L 197.088375 245.547791 
L 197.151937 245.490113 
L 197.214988 245.430196 
L 197.277509 245.368059 
L 197.339481 245.303722 
L 197.400887 245.237205 
L 197.461708 245.168532 
L 197.521928 245.097723 
L 197.581529 245.024802 
L 197.640495 244.949792 
L 197.698809 244.872717 
L 197.756455 244.793602 
L 197.813417 244.712472 
L 197.86968 244.629354 
L 197.925228 244.544273 
L 197.980048 244.457256 
L 198.034123 244.368331 
L 198.087442 244.277527 
L 198.13999 244.18487 
L 198.191753 244.090392 
L 198.242719 243.99412 
L 198.292876 243.896086 
L 198.342211 243.796319 
L 198.390712 243.69485 
L 198.438369 243.591711 
L 198.485171 243.486933 
L 198.531107 243.380548 
L 198.576167 243.272588 
L 198.620342 243.163087 
L 198.663622 243.052077 
L 198.705999 242.939592 
L 198.747464 242.825665 
L 198.78801 242.710331 
L 198.827629 242.593623 
L 198.866313 242.475577 
L 198.904057 242.356226 
L 198.940855 242.235606 
L 198.9767 242.113752 
L 199.011587 241.990699 
L 199.045511 241.866483 
L 199.078469 241.741139 
L 199.110455 241.614704 
L 199.141468 241.487212 
L 199.171502 241.3587 
L 199.200556 241.229204 
L 199.228628 241.09876 
L 199.255715 240.967405 
L 199.281817 240.835174 
L 199.306931 240.702104 
L 199.331059 240.56823 
L 199.354199 240.43359 
L 199.376352 240.298219 
L 199.397519 240.162154 
L 199.417701 240.025431 
L 199.436899 239.888085 
L 199.455115 239.750152 
L 199.472351 239.611669 
L 199.488611 239.47267 
L 199.503897 239.333193 
L 199.518213 239.193271 
L 199.531563 239.05294 
L 199.543951 238.912235 
L 199.555381 238.771192 
L 199.565859 238.629844 
L 199.57539 238.488227 
L 199.583979 238.346373 
L 199.591633 238.204319 
L 199.598358 238.062096 
L 199.604161 237.919739 
L 199.609048 237.77728 
L 199.613028 237.634753 
L 199.616107 237.49219 
L 199.618294 237.349623 
L 199.619597 237.207085 
L 199.620025 237.064606 
L 199.619586 236.922219 
L 199.61829 236.779953 
L 199.616145 236.637841 
L 199.613163 236.495911 
L 199.609352 236.354193 
L 199.604722 236.212718 
L 199.599285 236.071513 
L 199.593051 235.930608 
L 199.58603 235.79003 
L 199.578235 235.649808 
L 199.569675 235.509969 
L 199.560363 235.37054 
L 199.550311 235.231546 
L 199.53953 235.093015 
L 199.528032 234.954972 
L 199.51583 234.817442 
L 199.502936 234.680449 
L 199.489362 234.544018 
L 199.475122 234.408172 
L 199.460228 234.272935 
L 199.444694 234.13833 
L 199.428532 234.004378 
L 199.411756 233.871103 
L 199.394378 233.738524 
L 199.376413 233.606663 
L 199.357875 233.475541 
L 199.338776 233.345177 
L 199.319131 233.21559 
L 199.298953 233.0868 
L 199.278256 232.958825 
L 199.257055 232.831683 
L 199.235363 232.705392 
L 199.213194 232.579968 
L 199.190562 232.455428 
L 199.167483 232.331788 
L 199.143969 232.209063 
L 199.120035 232.08727 
L 199.095696 231.966421 
L 199.070965 231.846531 
L 199.045857 231.727615 
L 199.020386 231.609685 
L 198.994566 231.492753 
L 198.968412 231.376833 
L 198.941938 231.261935 
L 198.915158 231.148072 
L 198.888086 231.035254 
L 198.860737 230.923491 
L 198.833124 230.812794 
L 198.805263 230.703173 
L 198.777166 230.594635 
L 198.748848 230.487191 
L 198.720323 230.380848 
L 198.691606 230.275615 
L 198.662709 230.171498 
L 198.633647 230.068506 
L 198.604434 229.966644 
L 198.575083 229.86592 
L 198.545608 229.766338 
L 198.516023 229.667906 
L 198.486341 229.570627 
L 198.456576 229.474508 
L 198.426742 229.379551 
L 198.396852 229.285763 
L 198.366918 229.193146 
L 198.336956 229.101704 
L 198.306976 229.011441 
L 198.276994 228.92236 
L 198.247022 228.834463 
L 198.217073 228.747752 
L 198.187159 228.66223 
L 198.157295 228.577899 
L 198.127493 228.49476 
L 198.097765 228.412814 
L 198.068124 228.332064 
L 198.038583 228.252509 
L 198.009156 228.17415 
L 197.979853 228.096989 
L 197.950688 228.021024 
L 197.921674 227.946257 
L 197.892823 227.872687 
L 197.864147 227.800314 
L 197.835659 227.729137 
L 197.807371 227.659156 
L 197.779295 227.59037 
L 197.751444 227.522779 
L 197.723831 227.456381 
L 197.696467 227.391175 
L 197.669366 227.327161 
L 197.642538 227.264336 
L 197.615997 227.2027 
L 197.589755 227.142251 
L 197.563825 227.082987 
L 197.538218 227.024907 
L 197.512947 226.96801 
L 197.488026 226.912293 
L 197.463465 226.857755 
L 197.439278 226.804395 
L 197.415478 226.75221 
L 197.392077 226.701199 
L 197.369088 226.651359 
L 197.346524 226.602691 
L 197.324398 226.55519 
L 197.302722 226.508857 
L 197.281511 226.463689 
L 197.260777 226.419685 
L 197.240533 226.376842 
L 197.220794 226.335161 
L 197.201573 226.294638 
L 197.182883 226.255273 
L 197.164739 226.217064 
L 197.147155 226.18001 
L 197.130145 226.144111 
L 197.113724 226.109364 
L 197.097906 226.075769 
L 197.082706 226.043325 
L 197.068139 226.012031 
L 197.054221 225.981886 
L 197.040966 225.952891 
L 197.028391 225.925043 
L 197.016512 225.898344 
L 197.005345 225.872793 
L 196.994906 225.848389 
L 196.985212 225.825133 
L 196.976281 225.803025 
L 196.968128 225.782065 
L 196.960773 225.762253 
L 196.954232 225.743591 
L 196.948524 225.726078 
L 196.943668 225.709715 
L 196.939682 225.694504 
L 196.936585 225.680445 
L 196.934397 225.667539 
L 196.933137 225.655788 
L 196.932826 225.645193 
L 196.933484 225.635756 
L 196.935131 225.627477 
L 196.93779 225.62036 
L 196.941481 225.614405 
L 196.946226 225.609615 
L 196.952049 225.605992 
L 196.95897 225.603538 
L 196.967013 225.602254 
L 196.976202 225.602144 
L 196.98656 225.603209 
L 196.998112 225.605453 
L 197.010881 225.608877 
L 197.024894 225.613485 
L 197.040174 225.619278 
L 197.056748 225.626259 
L 197.074642 225.634432 
L 197.093882 225.643798 
L 197.114494 225.654361 
L 197.136507 225.666122 
L 197.159947 225.679085 
L 197.184843 225.693253 
L 197.211223 225.708627 
L 197.239114 225.725211 
L 197.268547 225.743007 
L 197.299551 225.762017 
L 197.332154 225.782244 
L 197.366388 225.80369 
L 197.402282 225.826356 
L 197.439867 225.850246 
L 197.479174 225.87536 
L 197.520234 225.901701 
L 197.563078 225.929269 
L 197.607739 225.958067 
L 197.654247 225.988095 
L 197.702635 226.019354 
L 197.752936 226.051845 
L 197.805183 226.085568 
L 197.859407 226.120523 
L 197.915641 226.15671 
L 197.97392 226.194129 
L 198.034275 226.232778 
L 198.096741 226.272657 
L 198.161351 226.313765 
L 198.228137 226.356098 
L 198.297134 226.399655 
L 198.368374 226.444433 
L 198.441892 226.490429 
L 198.517721 226.537639 
L 198.595894 226.58606 
L 198.676444 226.635687 
L 198.759404 226.686514 
L 198.844808 226.738536 
L 198.932687 226.791748 
L 199.023075 226.846142 
L 199.116004 226.901711 
L 199.211505 226.958447 
L 199.309611 227.016342 
L 199.410352 227.075387 
L 199.51376 227.135572 
L 199.619865 227.196887 
L 199.728697 227.25932 
L 199.840285 227.322861 
L 199.954659 227.387496 
L 200.071847 227.453212 
L 200.191876 227.519996 
L 200.314774 227.587833 
L 200.440567 227.656708 
L 200.569281 227.726603 
L 200.700941 227.797504 
L 200.83557 227.869391 
L 200.973193 227.942246 
L 201.11383 228.01605 
L 201.257504 228.090782 
L 201.404234 228.166422 
L 201.554041 228.242948 
L 201.706942 228.320337 
L 201.862954 228.398565 
L 202.022094 228.477608 
L 202.184375 228.557441 
L 202.349811 228.638037 
L 202.518414 228.71937 
L 202.690196 228.801412 
L 202.865165 228.884133 
L 203.043329 228.967504 
L 203.224694 229.051495 
L 203.409266 229.136074 
L 203.597048 229.221209 
L 203.788041 229.306866 
L 203.982245 229.393012 
L 204.17966 229.479611 
L 204.38028 229.566629 
L 204.584102 229.654028 
L 204.791117 229.741771 
L 205.001318 229.829819 
L 205.214693 229.918135 
L 205.43123 230.006677 
L 205.650915 230.095405 
L 205.873729 230.184279 
L 206.099655 230.273255 
L 206.328672 230.362291 
L 206.560756 230.451343 
L 206.795884 230.540368 
L 207.034027 230.62932 
L 207.275157 230.718153 
L 207.519241 230.806821 
L 207.766246 230.895278 
L 208.016136 230.983476 
L 208.268872 231.071368 
L 208.524414 231.158904 
L 208.782719 231.246036 
L 209.043741 231.332714 
L 209.307433 231.418889 
L 209.573744 231.50451 
L 209.842623 231.589527 
L 210.114014 231.673889 
L 210.38786 231.757545 
L 210.664102 231.840443 
L 210.942678 231.922531 
L 211.223523 232.003758 
L 211.506571 232.084072 
L 211.791753 232.16342 
L 212.078997 232.241751 
L 212.368229 232.319012 
L 212.659373 232.395151 
L 212.952351 232.470116 
L 213.247082 232.543855 
L 213.543482 232.616317 
L 213.841467 232.687449 
L 214.140949 232.757201 
L 214.441837 232.82552 
L 214.744041 232.892358 
L 215.047465 232.957662 
L 215.352013 233.021383 
L 215.657588 233.083473 
L 215.964088 233.143881 
L 216.271411 233.202559 
L 216.579453 233.259461 
L 216.888108 233.314537 
L 217.197267 233.367744 
L 217.50682 233.419033 
L 217.816656 233.468362 
L 218.126662 233.515686 
L 218.436722 233.560961 
L 218.746719 233.604146 
L 219.056537 233.6452 
L 219.366055 233.684082 
L 219.675152 233.720754 
L 219.983706 233.755178 
L 220.291595 233.787316 
L 220.598693 233.817134 
L 220.904874 233.844596 
L 221.210013 233.869671 
L 221.513982 233.892326 
L 221.816653 233.912532 
L 222.117896 233.930258 
L 222.417582 233.945479 
L 222.715581 233.958167 
L 223.011763 233.968298 
L 223.305995 233.97585 
L 223.598147 233.980801 
L 223.888087 233.983132 
L 224.175685 233.982823 
L 224.460807 233.979859 
L 224.743323 233.974225 
L 225.023101 233.965909 
L 225.300011 233.954897 
L 225.573922 233.941182 
L 225.844703 233.924755 
L 226.112226 233.90561 
L 226.376362 233.883744 
L 226.636982 233.859153 
L 226.89396 233.831837 
L 227.147169 233.801798 
L 227.396485 233.769038 
L 227.641784 233.733564 
L 227.882944 233.69538 
L 228.119843 233.654497 
L 228.352362 233.610925 
L 228.580383 233.564677 
L 228.803791 233.515767 
L 229.02247 233.46421 
L 229.236309 233.410026 
L 229.445197 233.353234 
L 229.649025 233.293856 
L 229.847687 233.231915 
L 230.041081 233.167437 
L 230.229103 233.10045 
L 230.411655 233.030981 
L 230.588641 232.959063 
L 230.759967 232.884726 
L 230.925542 232.808006 
L 231.085276 232.728939 
L 231.239086 232.647561 
L 231.386888 232.563912 
L 231.528602 232.478033 
L 231.664153 232.389966 
L 231.793467 232.299754 
L 231.916474 232.207444 
L 232.033108 232.113081 
L 232.143304 232.016714 
L 232.247003 231.918393 
L 232.344149 231.818168 
L 232.434688 231.716092 
L 232.518571 231.612217 
L 232.595752 231.506599 
L 232.666189 231.399293 
L 232.729843 231.290356 
L 232.78668 231.179846 
L 232.836668 231.067821 
L 232.87978 230.954342 
L 232.915994 230.839468 
L 232.945288 230.723263 
L 232.967648 230.605787 
L 232.983061 230.487104 
L 232.991519 230.367278 
L 232.993018 230.246372 
L 232.987559 230.124452 
L 232.975143 230.001583 
L 232.95578 229.877831 
L 232.929479 229.753262 
L 232.896257 229.627941 
L 232.856133 229.501937 
L 232.809128 229.375316 
L 232.75527 229.248145 
L 232.69459 229.12049 
L 232.627121 228.99242 
L 232.552901 228.864001 
L 232.471973 228.735301 
L 232.38438 228.606385 
L 232.290173 228.477321 
L 232.189403 228.348176 
L 232.082127 228.219014 
L 231.968403 228.089902 
L 231.848295 227.960905 
L 231.721869 227.832088 
L 231.589193 227.703515 
L 231.450342 227.575249 
L 231.305391 227.447353 
L 231.154418 227.31989 
L 230.997506 227.19292 
L 230.83474 227.066505 
L 230.666206 226.940705 
L 230.491997 226.815577 
L 230.312205 226.69118 
L 230.126927 226.567572 
L 229.93626 226.444807 
L 229.740306 226.322941 
L 229.539168 226.202028 
L 229.332952 226.082119 
L 229.121765 225.963267 
L 228.905718 225.845521 
L 228.684923 225.728931 
L 228.459493 225.613544 
L 228.229544 225.499405 
L 227.995194 225.386561 
L 227.756562 225.275054 
L 227.513767 225.164928 
L 227.266933 225.056221 
L 227.016183 224.948974 
L 226.761641 224.843225 
L 226.503433 224.739009 
L 226.241685 224.636362 
L 225.976526 224.535316 
L 225.708084 224.435904 
L 225.436488 224.338156 
L 225.161868 224.242099 
L 224.884354 224.147762 
L 224.604078 224.05517 
L 224.321169 223.964346 
L 224.03576 223.875313 
L 223.747983 223.788091 
L 223.457967 223.702701 
L 223.165846 223.619158 
L 222.87175 223.53748 
L 222.57581 223.457681 
L 222.278158 223.379773 
L 221.978922 223.303769 
L 221.678234 223.229676 
L 221.376222 223.157505 
L 221.073014 223.087262 
L 220.768739 223.018951 
L 220.463522 222.952576 
L 220.15749 222.888141 
L 219.850768 222.825645 
L 219.543479 222.765087 
L 219.235745 222.706467 
L 218.927689 222.64978 
L 218.61943 222.595021 
L 218.311086 222.542185 
L 218.002774 222.491263 
L 217.694611 222.442248 
L 217.38671 222.395129 
L 217.079183 222.349894 
L 216.772141 222.306531 
L 216.465693 222.265027 
L 216.159946 222.225367 
L 215.855005 222.187534 
L 215.550974 222.151512 
L 215.247953 222.117283 
L 214.946042 222.084827 
L 214.645338 222.054124 
L 214.345938 222.025154 
L 214.047932 221.997894 
L 213.751414 221.972321 
L 213.456471 221.948412 
L 213.16319 221.926142 
L 212.871656 221.905487 
L 212.58195 221.886419 
L 212.294153 221.868912 
L 212.008341 221.852939 
L 211.724592 221.838471 
L 211.442977 221.82548 
L 211.163567 221.813937 
L 210.88643 221.803811 
L 210.611633 221.795073 
L 210.339239 221.787691 
L 210.06931 221.781635 
L 209.801905 221.776873 
L 209.53708 221.773373 
L 209.27489 221.771103 
L 209.015386 221.77003 
L 208.75862 221.770121 
L 208.504637 221.771343 
L 208.253483 221.773664 
L 208.005202 221.777048 
L 207.759834 221.781464 
L 207.517417 221.786876 
L 207.277988 221.793253 
L 207.041581 221.800558 
L 206.808227 221.808759 
L 206.577957 221.817823 
L 206.350797 221.827714 
L 206.126775 221.838399 
L 205.905913 221.849845 
L 205.688233 221.862017 
L 205.473755 221.874883 
L 205.262496 221.888409 
L 205.054472 221.902562 
L 204.849696 221.917309 
L 204.648182 221.932617 
L 204.449939 221.948453 
L 204.254975 221.964785 
L 204.063297 221.981582 
L 203.874912 221.998811 
L 203.68982 222.01644 
L 203.508026 222.03444 
L 203.329529 222.052778 
L 203.154328 222.071424 
L 202.98242 222.090348 
L 202.813801 222.109521 
L 202.648465 222.128912 
L 202.486407 222.148493 
L 202.327618 222.168234 
L 202.172088 222.188108 
L 202.019807 222.208087 
L 201.870763 222.228143 
L 201.724944 222.248249 
L 201.582336 222.268377 
L 201.442923 222.288503 
L 201.306691 222.3086 
L 201.173622 222.328642 
L 201.043699 222.348604 
L 200.916904 222.368462 
L 200.793216 222.388192 
L 200.672616 222.407769 
L 200.555084 222.427171 
L 200.440598 222.446374 
L 200.329136 222.465355 
L 200.220675 222.484093 
L 200.115193 222.502566 
L 200.012665 222.520753 
L 199.913068 222.538632 
L 199.816377 222.556182 
L 199.722568 222.573384 
L 199.631615 222.590218 
L 199.543492 222.606665 
L 199.458174 222.622704 
L 199.375636 222.638317 
L 199.295849 222.653487 
L 199.218789 222.668194 
L 199.144429 222.682421 
L 199.072743 222.696151 
L 199.003702 222.709366 
L 198.937282 222.722049 
L 198.873455 222.734184 
L 198.812195 222.745754 
L 198.753474 222.756743 
L 198.697267 222.767135 
L 198.643547 222.776915 
L 198.592288 222.786068 
L 198.543464 222.794577 
L 198.497048 222.802428 
L 198.453016 222.809605 
L 198.411341 222.816096 
L 198.371998 222.821883 
L 198.334963 222.826954 
L 198.300211 222.831294 
L 198.267717 222.834889 
L 198.237458 222.837724 
L 198.209409 222.839786 
L 198.183548 222.84106 
L 198.159852 222.841533 
L 198.138297 222.841191 
L 198.118862 222.84002 
L 198.101525 222.838006 
L 198.086266 222.835135 
L 198.073062 222.831394 
L 198.061894 222.826769 
L 198.052741 222.821245 
L 198.045585 222.81481 
L 198.040406 222.807448 
L 198.037186 222.799145 
L 198.035906 222.789889 
L 198.03655 222.779663 
L 198.0391 222.768454 
L 198.04354 222.756247 
L 198.049853 222.743028 
L 198.058025 222.728782 
L 198.068039 222.713493 
L 198.079883 222.697147 
L 198.093541 222.679728 
L 198.109001 222.661221 
L 198.126249 222.641609 
L 198.145274 222.620877 
L 198.166062 222.599009 
L 198.188604 222.575988 
L 198.212887 222.551797 
L 198.238902 222.526419 
L 198.266638 222.499838 
L 198.296087 222.472035 
L 198.327239 222.442992 
L 198.360087 222.412693 
L 198.394621 222.381117 
L 198.430835 222.348247 
L 198.468722 222.314063 
L 198.508274 222.278546 
L 198.549487 222.241676 
L 198.592354 222.203433 
L 198.636871 222.163796 
L 198.683031 222.122745 
L 198.730832 222.080259 
L 198.78027 222.036316 
L 198.831339 221.990894 
L 198.884038 221.943971 
L 198.938364 221.895523 
L 198.994314 221.845529 
L 199.051887 221.793965 
L 199.111079 221.740806 
L 199.171891 221.686028 
L 199.234321 221.629607 
L 199.298369 221.571518 
L 199.364033 221.511734 
L 199.431314 221.450231 
L 199.500211 221.386981 
L 199.570726 221.321959 
L 199.642859 221.255136 
L 199.71661 221.186486 
L 199.791982 221.115979 
L 199.868974 221.043588 
L 199.947589 220.969284 
L 200.027828 220.893037 
L 200.109693 220.814818 
L 200.193187 220.734597 
L 200.27831 220.652342 
L 200.365066 220.568023 
L 200.453457 220.481609 
L 200.543485 220.393067 
L 200.635154 220.302365 
L 200.728464 220.209471 
L 200.82342 220.114352 
L 200.920024 220.016973 
L 201.018278 219.917301 
L 201.118186 219.815302 
L 201.21975 219.710941 
L 201.322973 219.604182 
L 201.427858 219.494991 
L 201.534407 219.383331 
L 201.642623 219.269166 
L 201.752509 219.15246 
L 201.864066 219.033174 
L 201.977298 218.911273 
L 202.092206 218.786718 
L 202.208793 218.659471 
L 202.32706 218.529493 
L 202.447009 218.396746 
L 202.568643 218.261191 
L 202.691961 218.122788 
L 202.816966 217.981498 
L 202.943659 217.83728 
L 203.07204 217.690094 
L 203.202109 217.539899 
L 203.333867 217.386655 
L 203.467314 217.23032 
L 203.60245 217.070854 
L 203.739274 216.908213 
L 203.877784 216.742357 
L 204.01798 216.573243 
L 204.15986 216.400829 
L 204.303422 216.225071 
L 204.448663 216.045929 
L 204.595581 215.863358 
L 204.744173 215.677316 
L 204.894435 215.487759 
L 205.046363 215.294644 
L 205.199952 215.097927 
L 205.355198 214.897565 
L 205.512095 214.693514 
L 205.670638 214.485731 
L 205.83082 214.274171 
L 205.992634 214.058791 
L 206.156073 213.839546 
L 206.321129 213.616394 
L 206.487793 213.389289 
L 206.656057 213.158188 
L 206.825911 212.923047 
L 206.997345 212.683822 
L 207.170348 212.440469 
L 207.344909 212.192945 
L 207.521016 211.941206 
L 207.698656 211.685208 
L 207.877817 211.424909 
L 208.058484 211.160264 
L 208.240643 210.891232 
L 208.42428 210.617768 
L 208.609377 210.339831 
L 208.79592 210.057377 
L 208.98389 209.770366 
L 209.17327 209.478754 
L 209.364042 209.182501 
L 209.556185 208.881565 
L 209.749681 208.575905 
L 209.944509 208.26548 
L 210.140647 207.950251 
L 210.338073 207.630177 
L 210.536764 207.30522 
L 210.736697 206.975339 
L 210.937847 206.640497 
L 211.140189 206.300656 
L 211.343697 205.955778 
L 211.548345 205.605826 
L 211.754104 205.250764 
L 211.960948 204.890556 
L 212.168846 204.525167 
L 212.377769 204.154561 
L 212.587687 203.778706 
L 212.798567 203.397567 
L 213.010378 203.011113 
L 213.223087 202.619311 
L 213.436659 202.22213 
L 213.65106 201.819539 
L 213.866256 201.41151 
L 214.082208 200.998014 
L 214.298881 200.579022 
L 214.516237 200.154507 
L 214.734236 199.724443 
L 214.952839 199.288806 
L 215.172007 198.84757 
L 215.391698 198.400712 
L 215.611869 197.94821 
L 215.832479 197.490043 
L 216.053484 197.02619 
L 216.274839 196.556632 
L 216.496499 196.08135 
L 216.71842 195.600328 
L 216.940553 195.11355 
L 217.162851 194.621 
L 217.385267 194.122666 
L 217.607751 193.618534 
L 217.830253 193.108595 
L 218.052724 192.592837 
L 218.275111 192.071252 
L 218.497364 191.543832 
L 218.719428 191.010573 
L 218.941251 190.471468 
L 219.162779 189.926515 
L 219.383957 189.375712 
L 219.604729 188.819058 
L 219.825039 188.256555 
L 220.04483 187.688203 
L 220.264046 187.114009 
L 220.482626 186.533976 
L 220.700514 185.948112 
L 220.917649 185.356425 
L 221.133971 184.758926 
L 221.34942 184.155625 
L 221.563935 183.546536 
L 221.777453 182.931674 
L 221.989914 182.311055 
L 222.201253 181.684698 
L 222.411407 181.052622 
L 222.620313 180.414848 
L 222.827906 179.7714 
L 223.034122 179.122304 
L 223.238895 178.467584 
L 223.44216 177.807271 
L 223.64385 177.141394 
L 223.8439 176.469985 
L 224.042243 175.793079 
L 224.23881 175.11071 
L 224.433536 174.422916 
L 224.626351 173.729737 
L 224.817189 173.031214 
L 225.00598 172.32739 
L 225.192657 171.61831 
L 225.37715 170.904021 
L 225.559391 170.184571 
L 225.739311 169.460012 
L 225.916839 168.730395 
L 226.091907 167.995775 
L 226.264446 167.25621 
L 226.434386 166.511757 
L 226.601657 165.762476 
L 226.76619 165.00843 
L 226.927915 164.249684 
L 227.086762 163.486302 
L 227.242663 162.718355 
L 227.395547 161.945911 
L 227.545346 161.169043 
L 227.691991 160.387825 
L 227.835412 159.602333 
L 227.97554 158.812645 
L 228.112308 158.018841 
L 228.245646 157.221002 
L 228.375488 156.419214 
L 228.501765 155.613561 
L 228.624409 154.804132 
L 228.743355 153.991016 
L 228.858535 153.174304 
L 228.969883 152.354091 
L 229.077334 151.530472 
L 229.180822 150.703544 
L 229.280284 149.873407 
L 229.375654 149.040161 
L 229.466869 148.20391 
L 229.553866 147.364759 
L 229.636584 146.522814 
L 229.71496 145.678184 
L 229.788933 144.83098 
L 229.858444 143.981313 
L 229.923433 143.129298 
L 229.983841 142.275049 
L 230.039611 141.418686 
L 230.090685 140.560326 
L 230.137008 139.700091 
L 230.178524 138.838103 
L 230.215179 137.974486 
L 230.24692 137.109367 
L 230.273695 136.242873 
L 230.295452 135.375131 
L 230.312141 134.506275 
L 230.323713 133.636434 
L 230.33012 132.765743 
L 230.331315 131.894337 
L 230.327253 131.022352 
L 230.317888 130.149926 
L 230.303179 129.277198 
L 230.283082 128.404309 
L 230.257556 127.531401 
L 230.226563 126.658617 
L 230.190065 125.786101 
L 230.148023 124.913998 
L 230.100404 124.042456 
L 230.047173 123.171622 
L 229.988297 122.301646 
L 229.923746 121.432676 
L 229.853489 120.564865 
L 229.777498 119.698363 
L 229.695747 118.833325 
L 229.608211 117.969903 
L 229.514866 117.108252 
L 229.41569 116.248527 
L 229.310662 115.390886 
L 229.199764 114.535483 
L 229.082979 113.682478 
L 228.960291 112.832028 
L 228.831687 111.984291 
L 228.697153 111.139427 
L 228.556681 110.297595 
L 228.41026 109.458956 
L 228.257885 108.62367 
L 228.09955 107.791897 
L 227.935251 106.963799 
L 227.764987 106.139537 
L 227.588758 105.319273 
L 227.406566 104.503167 
L 227.218415 103.691382 
L 227.024309 102.884079 
L 226.824257 102.081419 
L 226.618268 101.283565 
L 226.406353 100.490678 
L 226.188524 99.702918 
L 225.964797 98.920447 
L 225.735188 98.143426 
L 225.499716 97.372014 
L 225.258401 96.606371 
L 225.011265 95.846658 
L 224.758332 95.093032 
L 224.49963 94.345653 
L 224.235184 93.604677 
L 223.965026 92.870262 
L 223.689187 92.142564 
L 223.4077 91.421739 
L 223.120601 90.707941 
L 222.827927 90.001324 
L 222.529717 89.302041 
L 222.226012 88.610244 
L 221.916856 87.926083 
L 221.602292 87.249708 
L 221.282367 86.581267 
L 220.957131 85.920907 
L 220.626632 85.268775 
L 220.290923 84.625016 
L 219.950057 83.989771 
L 219.604091 83.363184 
L 219.253081 82.745395 
L 218.897086 82.136541 
L 218.536168 81.536761 
L 218.170389 80.94619 
L 217.799813 80.364961 
L 217.424505 79.793207 
L 217.044535 79.231059 
L 216.65997 78.678644 
L 216.270882 78.136089 
L 215.877343 77.603519 
L 215.479428 77.081057 
L 215.077211 76.568823 
L 214.670771 76.066935 
L 214.260185 75.575511 
L 213.845534 75.094663 
L 213.4269 74.624505 
L 213.004365 74.165147 
L 212.578015 73.716694 
L 212.147934 73.279254 
L 211.714211 72.852928 
L 211.276934 72.437818 
L 210.836192 72.034019 
L 210.392077 71.64163 
L 209.944681 71.260741 
L 209.494098 70.891443 
L 209.040422 70.533825 
L 208.58375 70.187971 
L 208.124178 69.853963 
L 207.661804 69.531882 
L 207.196728 69.221803 
L 206.729049 68.923802 
L 206.258869 68.637949 
L 205.786289 68.364314 
L 205.311413 68.102961 
L 204.834343 67.853954 
L 204.355186 67.617353 
L 203.874045 67.393214 
L 203.391027 67.181592 
L 202.906239 66.982538 
L 202.419788 66.796099 
L 201.931782 66.622322 
L 201.44233 66.461247 
L 200.951541 66.312914 
L 200.459525 66.177358 
L 199.966391 66.054614 
L 199.47225 65.944709 
L 198.977214 65.847672 
L 198.481392 65.763525 
L 197.984898 65.69229 
L 197.487843 65.633982 
L 196.990338 65.588618 
L 196.492496 65.556206 
L 195.994429 65.536756 
L 195.49625 65.530272 
z
" clip-path="url(#p8fc29c34e3)" style="opacity: 0.08; stroke: currentColor; stroke-linejoin: miter"/>
   </g>
   <g id="matplotlib.axis_1">
    <g id="xtick_1">
     <g id="line2d_1">
      <path d="M 195.49625 224.032297 
L 195.49625 57.712297 
" clip-path="url(#p8fc29c34e3)" style="fill: none; stroke: currentColor; stroke-opacity: 0.25; stroke-width: 0.8; stroke-linecap: square"/>
     </g>
     <g id="text_1">
      <!-- 0° -->
      <g transform="translate(190.383125 41.156719) scale(0.09 -0.09)">
       <defs>
        <path id="DejaVuSans-30" d="M 2034 4250 
Q 1547 4250 1301 3770 
Q 1056 3291 1056 2328 
Q 1056 1369 1301 889 
Q 1547 409 2034 409 
Q 2525 409 2770 889 
Q 3016 1369 3016 2328 
Q 3016 3291 2770 3770 
Q 2525 4250 2034 4250 
z
M 2034 4750 
Q 2819 4750 3233 4129 
Q 3647 3509 3647 2328 
Q 3647 1150 3233 529 
Q 2819 -91 2034 -91 
Q 1250 -91 836 529 
Q 422 1150 422 2328 
Q 422 3509 836 4129 
Q 1250 4750 2034 4750 
z
" transform="scale(0.015625)"/>
        <path id="DejaVuSans-b0" d="M 1600 4347 
Q 1350 4347 1178 4173 
Q 1006 4000 1006 3750 
Q 1006 3503 1178 3333 
Q 1350 3163 1600 3163 
Q 1850 3163 2022 3333 
Q 2194 3503 2194 3750 
Q 2194 3997 2020 4172 
Q 1847 4347 1600 4347 
z
M 1600 4750 
Q 1800 4750 1984 4673 
Q 2169 4597 2303 4453 
Q 2447 4313 2519 4134 
Q 2591 3956 2591 3750 
Q 2591 3338 2302 3052 
Q 2013 2766 1594 2766 
Q 1172 2766 890 3047 
Q 609 3328 609 3750 
Q 609 4169 896 4459 
Q 1184 4750 1600 4750 
z
" transform="scale(0.015625)"/>
       </defs>
       <use xlink:href="#DejaVuSans-30"/>
       <use xlink:href="#DejaVuSans-b0" transform="translate(63.623047 0)"/>
      </g>
      <!-- (forward) -->
      <g transform="translate(174.731562 51.23475) scale(0.09 -0.09)">
       <defs>
        <path id="DejaVuSans-28" d="M 1984 4856 
Q 1566 4138 1362 3434 
Q 1159 2731 1159 2009 
Q 1159 1288 1364 580 
Q 1569 -128 1984 -844 
L 1484 -844 
Q 1016 -109 783 600 
Q 550 1309 550 2009 
Q 550 2706 781 3412 
Q 1013 4119 1484 4856 
L 1984 4856 
z
" transform="scale(0.015625)"/>
        <path id="DejaVuSans-66" d="M 2375 4863 
L 2375 4384 
L 1825 4384 
Q 1516 4384 1395 4259 
Q 1275 4134 1275 3809 
L 1275 3500 
L 2222 3500 
L 2222 3053 
L 1275 3053 
L 1275 0 
L 697 0 
L 697 3053 
L 147 3053 
L 147 3500 
L 697 3500 
L 697 3744 
Q 697 4328 969 4595 
Q 1241 4863 1831 4863 
L 2375 4863 
z
" transform="scale(0.015625)"/>
        <path id="DejaVuSans-6f" d="M 1959 3097 
Q 1497 3097 1228 2736 
Q 959 2375 959 1747 
Q 959 1119 1226 758 
Q 1494 397 1959 397 
Q 2419 397 2687 759 
Q 2956 1122 2956 1747 
Q 2956 2369 2687 2733 
Q 2419 3097 1959 3097 
z
M 1959 3584 
Q 2709 3584 3137 3096 
Q 3566 2609 3566 1747 
Q 3566 888 3137 398 
Q 2709 -91 1959 -91 
Q 1206 -91 779 398 
Q 353 888 353 1747 
Q 353 2609 779 3096 
Q 1206 3584 1959 3584 
z
" transform="scale(0.015625)"/>
        <path id="DejaVuSans-72" d="M 2631 2963 
Q 2534 3019 2420 3045 
Q 2306 3072 2169 3072 
Q 1681 3072 1420 2755 
Q 1159 2438 1159 1844 
L 1159 0 
L 581 0 
L 581 3500 
L 1159 3500 
L 1159 2956 
Q 1341 3275 1631 3429 
Q 1922 3584 2338 3584 
Q 2397 3584 2469 3576 
Q 2541 3569 2628 3553 
L 2631 2963 
z
" transform="scale(0.015625)"/>
        <path id="DejaVuSans-77" d="M 269 3500 
L 844 3500 
L 1563 769 
L 2278 3500 
L 2956 3500 
L 3675 769 
L 4391 3500 
L 4966 3500 
L 4050 0 
L 3372 0 
L 2619 2869 
L 1863 0 
L 1184 0 
L 269 3500 
z
" transform="scale(0.015625)"/>
        <path id="DejaVuSans-61" d="M 2194 1759 
Q 1497 1759 1228 1600 
Q 959 1441 959 1056 
Q 959 750 1161 570 
Q 1363 391 1709 391 
Q 2188 391 2477 730 
Q 2766 1069 2766 1631 
L 2766 1759 
L 2194 1759 
z
M 3341 1997 
L 3341 0 
L 2766 0 
L 2766 531 
Q 2569 213 2275 61 
Q 1981 -91 1556 -91 
Q 1019 -91 701 211 
Q 384 513 384 1019 
Q 384 1609 779 1909 
Q 1175 2209 1959 2209 
L 2766 2209 
L 2766 2266 
Q 2766 2663 2505 2880 
Q 2244 3097 1772 3097 
Q 1472 3097 1187 3025 
Q 903 2953 641 2809 
L 641 3341 
Q 956 3463 1253 3523 
Q 1550 3584 1831 3584 
Q 2591 3584 2966 3190 
Q 3341 2797 3341 1997 
z
" transform="scale(0.015625)"/>
        <path id="DejaVuSans-64" d="M 2906 2969 
L 2906 4863 
L 3481 4863 
L 3481 0 
L 2906 0 
L 2906 525 
Q 2725 213 2448 61 
Q 2172 -91 1784 -91 
Q 1150 -91 751 415 
Q 353 922 353 1747 
Q 353 2572 751 3078 
Q 1150 3584 1784 3584 
Q 2172 3584 2448 3432 
Q 2725 3281 2906 2969 
z
M 947 1747 
Q 947 1113 1208 752 
Q 1469 391 1925 391 
Q 2381 391 2643 752 
Q 2906 1113 2906 1747 
Q 2906 2381 2643 2742 
Q 2381 3103 1925 3103 
Q 1469 3103 1208 2742 
Q 947 2381 947 1747 
z
" transform="scale(0.015625)"/>
        <path id="DejaVuSans-29" d="M 513 4856 
L 1013 4856 
Q 1481 4119 1714 3412 
Q 1947 2706 1947 2009 
Q 1947 1309 1714 600 
Q 1481 -109 1013 -844 
L 513 -844 
Q 928 -128 1133 580 
Q 1338 1288 1338 2009 
Q 1338 2731 1133 3434 
Q 928 4138 513 4856 
z
" transform="scale(0.015625)"/>
       </defs>
       <use xlink:href="#DejaVuSans-28"/>
       <use xlink:href="#DejaVuSans-66" transform="translate(39.013672 0)"/>
       <use xlink:href="#DejaVuSans-6f" transform="translate(74.21875 0)"/>
       <use xlink:href="#DejaVuSans-72" transform="translate(135.400391 0)"/>
       <use xlink:href="#DejaVuSans-77" transform="translate(176.513672 0)"/>
       <use xlink:href="#DejaVuSans-61" transform="translate(258.300781 0)"/>
       <use xlink:href="#DejaVuSans-72" transform="translate(319.580078 0)"/>
       <use xlink:href="#DejaVuSans-64" transform="translate(358.943359 0)"/>
       <use xlink:href="#DejaVuSans-29" transform="translate(422.419922 0)"/>
      </g>
     </g>
    </g>
    <g id="xtick_2">
     <g id="line2d_2">
      <path d="M 195.49625 224.032297 
L 77.89025 106.426297 
" clip-path="url(#p8fc29c34e3)" style="fill: none; stroke: currentColor; stroke-opacity: 0.25; stroke-width: 0.8; stroke-linecap: square"/>
     </g>
     <g id="text_2">
      <!-- 45° -->
      <g transform="translate(60.014505 99.01024) scale(0.09 -0.09)">
       <defs>
        <path id="DejaVuSans-34" d="M 2419 4116 
L 825 1625 
L 2419 1625 
L 2419 4116 
z
M 2253 4666 
L 3047 4666 
L 3047 1625 
L 3713 1625 
L 3713 1100 
L 3047 1100 
L 3047 0 
L 2419 0 
L 2419 1100 
L 313 1100 
L 313 1709 
L 2253 4666 
z
" transform="scale(0.015625)"/>
        <path id="DejaVuSans-35" d="M 691 4666 
L 3169 4666 
L 3169 4134 
L 1269 4134 
L 1269 2991 
Q 1406 3038 1543 3061 
Q 1681 3084 1819 3084 
Q 2600 3084 3056 2656 
Q 3513 2228 3513 1497 
Q 3513 744 3044 326 
Q 2575 -91 1722 -91 
Q 1428 -91 1123 -41 
Q 819 9 494 109 
L 494 744 
Q 775 591 1075 516 
Q 1375 441 1709 441 
Q 2250 441 2565 725 
Q 2881 1009 2881 1497 
Q 2881 1984 2565 2268 
Q 2250 2553 1709 2553 
Q 1456 2553 1204 2497 
Q 953 2441 691 2322 
L 691 4666 
z
" transform="scale(0.015625)"/>
       </defs>
       <use xlink:href="#DejaVuSans-34"/>
       <use xlink:href="#DejaVuSans-35" transform="translate(63.623047 0)"/>
       <use xlink:href="#DejaVuSans-b0" transform="translate(127.246094 0)"/>
      </g>
     </g>
    </g>
    <g id="xtick_3">
     <g id="line2d_3">
      <path d="M 195.49625 224.032297 
L 29.17625 224.032297 
" clip-path="url(#p8fc29c34e3)" style="fill: none; stroke: currentColor; stroke-opacity: 0.25; stroke-width: 0.8; stroke-linecap: square"/>
     </g>
     <g id="text_3">
      <!-- 90° -->
      <g transform="translate(7.2 226.515734) scale(0.09 -0.09)">
       <defs>
        <path id="DejaVuSans-39" d="M 703 97 
L 703 672 
Q 941 559 1184 500 
Q 1428 441 1663 441 
Q 2288 441 2617 861 
Q 2947 1281 2994 2138 
Q 2813 1869 2534 1725 
Q 2256 1581 1919 1581 
Q 1219 1581 811 2004 
Q 403 2428 403 3163 
Q 403 3881 828 4315 
Q 1253 4750 1959 4750 
Q 2769 4750 3195 4129 
Q 3622 3509 3622 2328 
Q 3622 1225 3098 567 
Q 2575 -91 1691 -91 
Q 1453 -91 1209 -44 
Q 966 3 703 97 
z
M 1959 2075 
Q 2384 2075 2632 2365 
Q 2881 2656 2881 3163 
Q 2881 3666 2632 3958 
Q 2384 4250 1959 4250 
Q 1534 4250 1286 3958 
Q 1038 3666 1038 3163 
Q 1038 2656 1286 2365 
Q 1534 2075 1959 2075 
z
" transform="scale(0.015625)"/>
       </defs>
       <use xlink:href="#DejaVuSans-39"/>
       <use xlink:href="#DejaVuSans-30" transform="translate(63.623047 0)"/>
       <use xlink:href="#DejaVuSans-b0" transform="translate(127.246094 0)"/>
      </g>
     </g>
    </g>
    <g id="xtick_4">
     <g id="line2d_4">
      <path d="M 195.49625 224.032297 
L 77.89025 341.638297 
" clip-path="url(#p8fc29c34e3)" style="fill: none; stroke: currentColor; stroke-opacity: 0.25; stroke-width: 0.8; stroke-linecap: square"/>
     </g>
     <g id="text_4">
      <!-- 135° -->
      <g transform="translate(57.15138 354.021229) scale(0.09 -0.09)">
       <defs>
        <path id="DejaVuSans-31" d="M 794 531 
L 1825 531 
L 1825 4091 
L 703 3866 
L 703 4441 
L 1819 4666 
L 2450 4666 
L 2450 531 
L 3481 531 
L 3481 0 
L 794 0 
L 794 531 
z
" transform="scale(0.015625)"/>
        <path id="DejaVuSans-33" d="M 2597 2516 
Q 3050 2419 3304 2112 
Q 3559 1806 3559 1356 
Q 3559 666 3084 287 
Q 2609 -91 1734 -91 
Q 1441 -91 1130 -33 
Q 819 25 488 141 
L 488 750 
Q 750 597 1062 519 
Q 1375 441 1716 441 
Q 2309 441 2620 675 
Q 2931 909 2931 1356 
Q 2931 1769 2642 2001 
Q 2353 2234 1838 2234 
L 1294 2234 
L 1294 2753 
L 1863 2753 
Q 2328 2753 2575 2939 
Q 2822 3125 2822 3475 
Q 2822 3834 2567 4026 
Q 2313 4219 1838 4219 
Q 1578 4219 1281 4162 
Q 984 4106 628 3988 
L 628 4550 
Q 988 4650 1302 4700 
Q 1616 4750 1894 4750 
Q 2613 4750 3031 4423 
Q 3450 4097 3450 3541 
Q 3450 3153 3228 2886 
Q 3006 2619 2597 2516 
z
" transform="scale(0.015625)"/>
       </defs>
       <use xlink:href="#DejaVuSans-31"/>
       <use xlink:href="#DejaVuSans-33" transform="translate(63.623047 0)"/>
       <use xlink:href="#DejaVuSans-35" transform="translate(127.246094 0)"/>
       <use xlink:href="#DejaVuSans-b0" transform="translate(190.869141 0)"/>
      </g>
     </g>
    </g>
    <g id="xtick_5">
     <g id="line2d_5">
      <path d="M 195.49625 224.032297 
L 195.49625 390.352297 
" clip-path="url(#p8fc29c34e3)" style="fill: none; stroke: currentColor; stroke-opacity: 0.25; stroke-width: 0.8; stroke-linecap: square"/>
     </g>
     <g id="text_5">
      <!-- 180° -->
      <g transform="translate(184.656875 401.796719) scale(0.09 -0.09)">
       <defs>
        <path id="DejaVuSans-38" d="M 2034 2216 
Q 1584 2216 1326 1975 
Q 1069 1734 1069 1313 
Q 1069 891 1326 650 
Q 1584 409 2034 409 
Q 2484 409 2743 651 
Q 3003 894 3003 1313 
Q 3003 1734 2745 1975 
Q 2488 2216 2034 2216 
z
M 1403 2484 
Q 997 2584 770 2862 
Q 544 3141 544 3541 
Q 544 4100 942 4425 
Q 1341 4750 2034 4750 
Q 2731 4750 3128 4425 
Q 3525 4100 3525 3541 
Q 3525 3141 3298 2862 
Q 3072 2584 2669 2484 
Q 3125 2378 3379 2068 
Q 3634 1759 3634 1313 
Q 3634 634 3220 271 
Q 2806 -91 2034 -91 
Q 1263 -91 848 271 
Q 434 634 434 1313 
Q 434 1759 690 2068 
Q 947 2378 1403 2484 
z
M 1172 3481 
Q 1172 3119 1398 2916 
Q 1625 2713 2034 2713 
Q 2441 2713 2670 2916 
Q 2900 3119 2900 3481 
Q 2900 3844 2670 4047 
Q 2441 4250 2034 4250 
Q 1625 4250 1398 4047 
Q 1172 3844 1172 3481 
z
" transform="scale(0.015625)"/>
       </defs>
       <use xlink:href="#DejaVuSans-31"/>
       <use xlink:href="#DejaVuSans-38" transform="translate(63.623047 0)"/>
       <use xlink:href="#DejaVuSans-30" transform="translate(127.246094 0)"/>
       <use xlink:href="#DejaVuSans-b0" transform="translate(190.869141 0)"/>
      </g>
      <!-- (back) -->
      <g transform="translate(181.290312 411.87475) scale(0.09 -0.09)">
       <defs>
        <path id="DejaVuSans-62" d="M 3116 1747 
Q 3116 2381 2855 2742 
Q 2594 3103 2138 3103 
Q 1681 3103 1420 2742 
Q 1159 2381 1159 1747 
Q 1159 1113 1420 752 
Q 1681 391 2138 391 
Q 2594 391 2855 752 
Q 3116 1113 3116 1747 
z
M 1159 2969 
Q 1341 3281 1617 3432 
Q 1894 3584 2278 3584 
Q 2916 3584 3314 3078 
Q 3713 2572 3713 1747 
Q 3713 922 3314 415 
Q 2916 -91 2278 -91 
Q 1894 -91 1617 61 
Q 1341 213 1159 525 
L 1159 0 
L 581 0 
L 581 4863 
L 1159 4863 
L 1159 2969 
z
" transform="scale(0.015625)"/>
        <path id="DejaVuSans-63" d="M 3122 3366 
L 3122 2828 
Q 2878 2963 2633 3030 
Q 2388 3097 2138 3097 
Q 1578 3097 1268 2742 
Q 959 2388 959 1747 
Q 959 1106 1268 751 
Q 1578 397 2138 397 
Q 2388 397 2633 464 
Q 2878 531 3122 666 
L 3122 134 
Q 2881 22 2623 -34 
Q 2366 -91 2075 -91 
Q 1284 -91 818 406 
Q 353 903 353 1747 
Q 353 2603 823 3093 
Q 1294 3584 2113 3584 
Q 2378 3584 2631 3529 
Q 2884 3475 3122 3366 
z
" transform="scale(0.015625)"/>
        <path id="DejaVuSans-6b" d="M 581 4863 
L 1159 4863 
L 1159 1991 
L 2875 3500 
L 3609 3500 
L 1753 1863 
L 3688 0 
L 2938 0 
L 1159 1709 
L 1159 0 
L 581 0 
L 581 4863 
z
" transform="scale(0.015625)"/>
       </defs>
       <use xlink:href="#DejaVuSans-28"/>
       <use xlink:href="#DejaVuSans-62" transform="translate(39.013672 0)"/>
       <use xlink:href="#DejaVuSans-61" transform="translate(102.490234 0)"/>
       <use xlink:href="#DejaVuSans-63" transform="translate(163.769531 0)"/>
       <use xlink:href="#DejaVuSans-6b" transform="translate(218.75 0)"/>
       <use xlink:href="#DejaVuSans-29" transform="translate(276.660156 0)"/>
      </g>
     </g>
    </g>
    <g id="xtick_6">
     <g id="line2d_6">
      <path d="M 195.49625 224.032297 
L 313.10225 341.638297 
" clip-path="url(#p8fc29c34e3)" style="fill: none; stroke: currentColor; stroke-opacity: 0.25; stroke-width: 0.8; stroke-linecap: square"/>
     </g>
     <g id="text_6">
      <!-- 225° -->
      <g transform="translate(312.16237 354.021229) scale(0.09 -0.09)">
       <defs>
        <path id="DejaVuSans-32" d="M 1228 531 
L 3431 531 
L 3431 0 
L 469 0 
L 469 531 
Q 828 903 1448 1529 
Q 2069 2156 2228 2338 
Q 2531 2678 2651 2914 
Q 2772 3150 2772 3378 
Q 2772 3750 2511 3984 
Q 2250 4219 1831 4219 
Q 1534 4219 1204 4116 
Q 875 4013 500 3803 
L 500 4441 
Q 881 4594 1212 4672 
Q 1544 4750 1819 4750 
Q 2544 4750 2975 4387 
Q 3406 4025 3406 3419 
Q 3406 3131 3298 2873 
Q 3191 2616 2906 2266 
Q 2828 2175 2409 1742 
Q 1991 1309 1228 531 
z
" transform="scale(0.015625)"/>
       </defs>
       <use xlink:href="#DejaVuSans-32"/>
       <use xlink:href="#DejaVuSans-32" transform="translate(63.623047 0)"/>
       <use xlink:href="#DejaVuSans-35" transform="translate(127.246094 0)"/>
       <use xlink:href="#DejaVuSans-b0" transform="translate(190.869141 0)"/>
      </g>
     </g>
    </g>
    <g id="xtick_7">
     <g id="line2d_7">
      <path d="M 195.49625 224.032297 
L 361.81625 224.032297 
" clip-path="url(#p8fc29c34e3)" style="fill: none; stroke: currentColor; stroke-opacity: 0.25; stroke-width: 0.8; stroke-linecap: square"/>
     </g>
     <g id="text_7">
      <!-- 270° -->
      <g transform="translate(364.976875 226.515734) scale(0.09 -0.09)">
       <defs>
        <path id="DejaVuSans-37" d="M 525 4666 
L 3525 4666 
L 3525 4397 
L 1831 0 
L 1172 0 
L 2766 4134 
L 525 4134 
L 525 4666 
z
" transform="scale(0.015625)"/>
       </defs>
       <use xlink:href="#DejaVuSans-32"/>
       <use xlink:href="#DejaVuSans-37" transform="translate(63.623047 0)"/>
       <use xlink:href="#DejaVuSans-30" transform="translate(127.246094 0)"/>
       <use xlink:href="#DejaVuSans-b0" transform="translate(190.869141 0)"/>
      </g>
     </g>
    </g>
    <g id="xtick_8">
     <g id="line2d_8">
      <path d="M 195.49625 224.032297 
L 313.10225 106.426297 
" clip-path="url(#p8fc29c34e3)" style="fill: none; stroke: currentColor; stroke-opacity: 0.25; stroke-width: 0.8; stroke-linecap: square"/>
     </g>
     <g id="text_8">
      <!-- 315° -->
      <g transform="translate(312.16237 99.01024) scale(0.09 -0.09)">
       <use xlink:href="#DejaVuSans-33"/>
       <use xlink:href="#DejaVuSans-31" transform="translate(63.623047 0)"/>
       <use xlink:href="#DejaVuSans-35" transform="translate(127.246094 0)"/>
       <use xlink:href="#DejaVuSans-b0" transform="translate(190.869141 0)"/>
      </g>
     </g>
    </g>
   </g>
   <g id="matplotlib.axis_2">
    <g id="ytick_1">
     <g id="line2d_9">
      <path d="M 195.49625 184.406791 
C 190.292676 184.406791 185.139701 185.431781 180.332225 187.423103 
C 175.52475 189.414424 171.156268 192.33335 167.476786 196.012833 
C 163.797304 199.692315 160.878377 204.060797 158.887056 208.868272 
C 156.895734 213.675748 155.870744 218.828723 155.870744 224.032297 
C 155.870744 229.235871 156.895734 234.388846 158.887056 239.196322 
C 160.878377 244.003797 163.797304 248.372279 167.476786 252.051761 
C 171.156268 255.731243 175.52475 258.650169 180.332225 260.641491 
C 185.139701 262.632812 190.292676 263.657803 195.49625 263.657803 
C 200.699824 263.657803 205.852799 262.632812 210.660275 260.641491 
C 215.46775 258.650169 219.836232 255.731243 223.515714 252.051761 
C 227.195196 248.372279 230.114123 244.003797 232.105444 239.196322 
C 234.096766 234.388846 235.121756 229.235871 235.121756 224.032297 
C 235.121756 218.828723 234.096766 213.675748 232.105444 208.868272 
C 230.114123 204.060797 227.195196 199.692315 223.515714 196.012833 
C 219.836232 192.33335 215.46775 189.414424 210.660275 187.423103 
C 205.852799 185.431781 200.699824 184.406791 195.49625 184.406791 
" clip-path="url(#p8fc29c34e3)" style="fill: none; stroke: currentColor; stroke-opacity: 0.25; stroke-width: 0.8; stroke-linecap: square"/>
     </g>
     <g id="text_9">
      <!-- -12 dB -->
      <g transform="translate(167.476786 250.180042) scale(0.09 -0.09)">
       <defs>
        <path id="DejaVuSans-2d" d="M 313 2009 
L 1997 2009 
L 1997 1497 
L 313 1497 
L 313 2009 
z
" transform="scale(0.015625)"/>
        <path id="DejaVuSans-20" transform="scale(0.015625)"/>
        <path id="DejaVuSans-42" d="M 1259 2228 
L 1259 519 
L 2272 519 
Q 2781 519 3026 730 
Q 3272 941 3272 1375 
Q 3272 1813 3026 2020 
Q 2781 2228 2272 2228 
L 1259 2228 
z
M 1259 4147 
L 1259 2741 
L 2194 2741 
Q 2656 2741 2882 2914 
Q 3109 3088 3109 3444 
Q 3109 3797 2882 3972 
Q 2656 4147 2194 4147 
L 1259 4147 
z
M 628 4666 
L 2241 4666 
Q 2963 4666 3353 4366 
Q 3744 4066 3744 3513 
Q 3744 3084 3544 2831 
Q 3344 2578 2956 2516 
Q 3422 2416 3680 2098 
Q 3938 1781 3938 1306 
Q 3938 681 3513 340 
Q 3088 0 2303 0 
L 628 0 
L 628 4666 
z
" transform="scale(0.015625)"/>
       </defs>
       <use xlink:href="#DejaVuSans-2d"/>
       <use xlink:href="#DejaVuSans-31" transform="translate(36.083984 0)"/>
       <use xlink:href="#DejaVuSans-32" transform="translate(99.707031 0)"/>
       <use xlink:href="#DejaVuSans-20" transform="translate(163.330078 0)"/>
       <use xlink:href="#DejaVuSans-64" transform="translate(195.117188 0)"/>
       <use xlink:href="#DejaVuSans-42" transform="translate(258.59375 0)"/>
      </g>
     </g>
    </g>
    <g id="ytick_2">
     <g id="line2d_10">
      <path d="M 195.49625 144.781285 
C 185.089102 144.781285 174.783151 146.831266 165.168201 150.813909 
C 155.55325 154.796552 146.816286 160.634404 139.457322 167.993369 
C 132.098357 175.352333 126.260505 184.089297 122.277862 193.704247 
C 118.295219 203.319198 116.245238 213.625149 116.245238 224.032297 
C 116.245238 234.439444 118.295219 244.745396 122.277862 254.360346 
C 126.260505 263.975297 132.098357 272.71226 139.457322 280.071225 
C 146.816286 287.43019 155.55325 293.268042 165.168201 297.250685 
C 174.783151 301.233328 185.089102 303.283309 195.49625 303.283309 
C 205.903398 303.283309 216.209349 301.233328 225.824299 297.250685 
C 235.43925 293.268042 244.176214 287.43019 251.535178 280.071225 
C 258.894143 272.71226 264.731995 263.975297 268.714638 254.360346 
C 272.697281 244.745396 274.747262 234.439444 274.747262 224.032297 
C 274.747262 213.625149 272.697281 203.319198 268.714638 193.704247 
C 264.731995 184.089297 258.894143 175.352333 251.535178 167.993369 
C 244.176214 160.634404 235.43925 154.796552 225.824299 150.813909 
C 216.209349 146.831266 205.903398 144.781285 195.49625 144.781285 
" clip-path="url(#p8fc29c34e3)" style="fill: none; stroke: currentColor; stroke-opacity: 0.25; stroke-width: 0.8; stroke-linecap: square"/>
     </g>
     <g id="text_10">
      <!-- -6 dB -->
      <g transform="translate(139.457322 278.199506) scale(0.09 -0.09)">
       <defs>
        <path id="DejaVuSans-36" d="M 2113 2584 
Q 1688 2584 1439 2293 
Q 1191 2003 1191 1497 
Q 1191 994 1439 701 
Q 1688 409 2113 409 
Q 2538 409 2786 701 
Q 3034 994 3034 1497 
Q 3034 2003 2786 2293 
Q 2538 2584 2113 2584 
z
M 3366 4563 
L 3366 3988 
Q 3128 4100 2886 4159 
Q 2644 4219 2406 4219 
Q 1781 4219 1451 3797 
Q 1122 3375 1075 2522 
Q 1259 2794 1537 2939 
Q 1816 3084 2150 3084 
Q 2853 3084 3261 2657 
Q 3669 2231 3669 1497 
Q 3669 778 3244 343 
Q 2819 -91 2113 -91 
Q 1303 -91 875 529 
Q 447 1150 447 2328 
Q 447 3434 972 4092 
Q 1497 4750 2381 4750 
Q 2619 4750 2861 4703 
Q 3103 4656 3366 4563 
z
" transform="scale(0.015625)"/>
       </defs>
       <use xlink:href="#DejaVuSans-2d"/>
       <use xlink:href="#DejaVuSans-36" transform="translate(36.083984 0)"/>
       <use xlink:href="#DejaVuSans-20" transform="translate(99.707031 0)"/>
       <use xlink:href="#DejaVuSans-64" transform="translate(131.494141 0)"/>
       <use xlink:href="#DejaVuSans-42" transform="translate(194.970703 0)"/>
      </g>
     </g>
    </g>
    <g id="ytick_3">
     <g id="line2d_11">
      <path d="M 195.49625 105.155779 
C 179.885529 105.155779 164.426602 108.23075 150.004176 114.204715 
C 135.58175 120.178679 122.476305 128.935458 111.437858 139.973905 
C 100.399411 151.012352 91.642632 164.117797 85.668668 178.540223 
C 79.694703 192.962649 76.619732 208.421576 76.619732 224.032297 
C 76.619732 239.643018 79.694703 255.101945 85.668668 269.524371 
C 91.642632 283.946797 100.399411 297.052242 111.437858 308.090689 
C 122.476305 319.129136 135.58175 327.885915 150.004176 333.859879 
C 164.426602 339.833844 179.885529 342.908815 195.49625 342.908815 
C 211.106971 342.908815 226.565898 339.833844 240.988324 333.859879 
C 255.41075 327.885915 268.516195 319.129136 279.554642 308.090689 
C 290.593089 297.052242 299.349868 283.946797 305.323832 269.524371 
C 311.297797 255.101945 314.372768 239.643018 314.372768 224.032297 
C 314.372768 208.421576 311.297797 192.962649 305.323832 178.540223 
C 299.349868 164.117797 290.593089 151.012352 279.554642 139.973905 
C 268.516195 128.935458 255.41075 120.178679 240.988324 114.204715 
C 226.565898 108.23075 211.106971 105.155779 195.49625 105.155779 
" clip-path="url(#p8fc29c34e3)" style="fill: none; stroke: currentColor; stroke-opacity: 0.25; stroke-width: 0.8; stroke-linecap: square"/>
     </g>
     <g id="text_11">
      <!-- -3 dB -->
      <g transform="translate(111.437858 306.21897) scale(0.09 -0.09)">
       <use xlink:href="#DejaVuSans-2d"/>
       <use xlink:href="#DejaVuSans-33" transform="translate(36.083984 0)"/>
       <use xlink:href="#DejaVuSans-20" transform="translate(99.707031 0)"/>
       <use xlink:href="#DejaVuSans-64" transform="translate(131.494141 0)"/>
       <use xlink:href="#DejaVuSans-42" transform="translate(194.970703 0)"/>
      </g>
     </g>
    </g>
    <g id="ytick_4">
     <g id="line2d_12">
      <path d="M 195.49625 65.530272 
C 174.681955 65.530272 154.070053 69.630235 134.840151 77.595521 
C 115.61025 85.560807 98.136323 97.236511 83.418394 111.954441 
C 68.700464 126.67237 57.02476 144.146297 49.059474 163.376198 
C 41.094188 182.606099 36.994226 203.218002 36.994226 224.032297 
C 36.994226 244.846592 41.094188 265.458494 49.059474 284.688396 
C 57.02476 303.918297 68.700464 321.392224 83.418394 336.110153 
C 98.136323 350.828082 115.61025 362.503787 134.840151 370.469073 
C 154.070053 378.434359 174.681955 382.534321 195.49625 382.534321 
C 216.310545 382.534321 236.922447 378.434359 256.152349 370.469073 
C 275.38225 362.503787 292.856177 350.828082 307.574106 336.110153 
C 322.292036 321.392224 333.96774 303.918297 341.933026 284.688396 
C 349.898312 265.458494 353.998274 244.846592 353.998274 224.032297 
C 353.998274 203.218002 349.898312 182.606099 341.933026 163.376198 
C 333.96774 144.146297 322.292036 126.67237 307.574106 111.954441 
C 292.856177 97.236511 275.38225 85.560807 256.152349 77.595521 
C 236.922447 69.630235 216.310545 65.530272 195.49625 65.530272 
" clip-path="url(#p8fc29c34e3)" style="fill: none; stroke: currentColor; stroke-opacity: 0.25; stroke-width: 0.8; stroke-linecap: square"/>
     </g>
     <g id="text_12">
      <!-- 0 dB -->
      <g transform="translate(83.418394 334.238434) scale(0.09 -0.09)">
       <use xlink:href="#DejaVuSans-30"/>
       <use xlink:href="#DejaVuSans-20" transform="translate(63.623047 0)"/>
       <use xlink:href="#DejaVuSans-64" transform="translate(95.410156 0)"/>
       <use xlink:href="#DejaVuSans-42" transform="translate(158.886719 0)"/>
      </g>
     </g>
    </g>
   </g>
   <g id="line2d_13">
    <path d="M 195.49625 65.530272 
L 193.504657 65.633982 
L 191.52025 65.944709 
L 189.55017 66.461247 
L 187.601473 67.181592 
L 185.681087 68.102961 
L 183.795772 69.221803 
L 181.952078 70.533825 
L 179.715566 72.437818 
L 177.5656 74.624505 
L 175.513072 77.081057 
L 173.567995 79.793207 
L 171.739419 82.745395 
L 170.035369 85.920907 
L 168.462783 89.302041 
L 167.027474 92.870262 
L 165.734099 96.606371 
L 164.374232 101.283565 
L 163.227513 106.139537 
L 162.295347 111.139427 
L 161.57681 116.248527 
L 161.068754 121.432676 
L 160.765937 126.658617 
L 160.661185 131.894337 
L 160.777321 137.974486 
L 161.134056 143.981313 
L 161.712216 149.873407 
L 162.490735 155.613561 
L 163.447154 161.169043 
L 164.728054 167.25621 
L 166.175311 173.031214 
L 167.753605 178.467584 
L 169.64308 184.155625 
L 171.608543 189.375712 
L 173.829649 194.621 
L 176.039661 199.288806 
L 178.404813 203.778706 
L 180.851853 207.950251 
L 183.293844 211.685208 
L 185.792548 215.097927 
L 188.175534 217.981498 
L 190.449015 220.393067 
L 192.946915 222.81481 
L 192.783091 222.839786 
L 191.696651 222.653487 
L 188.344035 222.128912 
L 185.086587 221.849845 
L 181.71761 221.771103 
L 178.120844 221.905487 
L 174.526807 222.265027 
L 171.141732 222.825645 
L 168.12075 223.53748 
L 165.284416 224.435904 
L 162.997306 225.386561 
L 161.252194 226.322941 
L 159.838082 227.31989 
L 158.910373 228.219014 
L 158.29791 229.12049 
L 158.03672 229.877831 
L 158.024852 230.605787 
L 158.262657 231.290356 
L 158.745497 231.918393 
L 159.463898 232.478033 
L 160.580845 233.030981 
L 161.97003 233.46421 
L 163.845331 233.801798 
L 165.969399 233.965909 
L 168.574918 233.945479 
L 171.626445 233.684082 
L 174.721089 233.202559 
L 178.040149 232.470116 
L 181.418756 231.50451 
L 184.892845 230.273255 
L 188.127335 228.884133 
L 191.037841 227.387496 
L 193.723953 225.743007 
L 194.05471 225.62036 
L 194.058103 225.667539 
L 193.878776 226.109364 
L 192.865007 228.49476 
L 192.187237 230.703173 
L 191.693547 233.0868 
L 191.422825 235.509969 
L 191.383452 237.77728 
L 191.555601 239.888085 
L 191.914031 241.741139 
L 192.416333 243.272588 
L 193.067272 244.544273 
L 193.777512 245.430196 
L 194.496036 245.963232 
L 195.18272 246.197471 
L 195.879252 246.185081 
L 196.563758 245.926473 
L 197.214988 245.430196 
L 197.86968 244.629354 
L 198.485171 243.486933 
L 199.011587 241.990699 
L 199.397519 240.162154 
L 199.598358 238.062096 
L 199.58603 235.79003 
L 199.357875 233.475541 
L 198.888086 231.035254 
L 198.217073 228.747752 
L 197.369088 226.651359 
L 196.952049 225.605992 
L 196.998112 225.605453 
L 197.402282 225.826356 
L 200.700941 227.797504 
L 203.597048 229.221209 
L 206.795884 230.540368 
L 210.114014 231.673889 
L 213.543482 232.616317 
L 216.888108 233.314537 
L 219.983706 233.755178 
L 223.011763 233.968298 
L 225.573922 233.941182 
L 227.882944 233.69538 
L 229.649025 233.293856 
L 230.925542 232.808006 
L 231.916474 232.207444 
L 232.518571 231.612217 
L 232.87978 230.954342 
L 232.993018 230.246372 
L 232.856133 229.501937 
L 232.471973 228.735301 
L 231.848295 227.960905 
L 230.83474 227.066505 
L 229.332952 226.082119 
L 227.513767 225.164928 
L 225.161868 224.242099 
L 222.57581 223.457681 
L 219.543479 222.765087 
L 216.159946 222.225367 
L 212.58195 221.886419 
L 209.015386 221.77003 
L 205.473755 221.874883 
L 202.172088 222.188108 
L 198.937282 222.722049 
L 198.037186 222.799145 
L 198.035906 222.789889 
L 198.145274 222.620877 
L 199.234321 221.629607 
L 201.427858 219.494991 
L 203.60245 217.070854 
L 205.992634 214.058791 
L 208.42428 210.617768 
L 210.736697 206.975339 
L 213.010378 203.011113 
L 215.391698 198.400712 
L 217.607751 193.618534 
L 219.604729 188.819058 
L 221.563935 183.546536 
L 223.44216 177.807271 
L 225.00598 172.32739 
L 226.434386 166.511757 
L 227.691991 160.387825 
L 228.624409 154.804132 
L 229.375654 149.040161 
L 229.923433 143.129298 
L 230.24692 137.109367 
L 230.327253 131.022352 
L 230.190065 125.786101 
L 229.853489 120.564865 
L 229.310662 115.390886 
L 228.556681 110.297595 
L 227.588758 105.319273 
L 226.406353 100.490678 
L 225.011265 95.846658 
L 223.689187 92.142564 
L 222.226012 88.610244 
L 220.626632 85.268775 
L 218.897086 82.136541 
L 217.044535 79.231059 
L 215.077211 76.568823 
L 213.004365 74.165147 
L 210.836192 72.034019 
L 208.58375 70.187971 
L 206.729049 68.923802 
L 204.834343 67.853954 
L 202.906239 66.982538 
L 200.951541 66.312914 
L 198.977214 65.847672 
L 196.990338 65.588618 
L 195.49625 65.530272 
L 195.49625 65.530272 
" clip-path="url(#p8fc29c34e3)" style="fill: none; stroke: currentColor; stroke-width: 2.2; stroke-linecap: square"/>
   </g>
   <g id="patch_4">
    <path d="M 195.49625 57.712297 
C 173.655308 57.712297 152.026741 62.014486 131.848342 70.372653 
C 111.669942 78.73082 93.334129 90.982419 77.89025 106.426297 
C 62.446372 121.870175 50.194773 140.205989 41.836606 160.384388 
C 33.478439 180.562788 29.17625 202.191355 29.17625 224.032297 
C 29.17625 245.873239 33.478439 267.501806 41.836606 287.680205 
C 50.194773 307.858605 62.446372 326.194418 77.89025 341.638297 
C 93.334129 357.082175 111.669942 369.333774 131.848342 377.691941 
C 152.026741 386.050107 173.655308 390.352297 195.49625 390.352297 
C 217.337192 390.352297 238.965759 386.050107 259.144158 377.691941 
C 279.322558 369.333774 297.658371 357.082175 313.10225 341.638297 
C 328.546128 326.194418 340.797727 307.858605 349.155894 287.680205 
C 357.514061 267.501806 361.81625 245.873239 361.81625 224.032297 
C 361.81625 202.191355 357.514061 180.562788 349.155894 160.384388 
C 340.797727 140.205989 328.546128 121.870175 313.10225 106.426297 
C 297.658371 90.982419 279.322558 78.73082 259.144158 70.372653 
C 238.965759 62.014486 217.337192 57.712297 195.49625 57.712297 
" style="fill: none; stroke: currentColor; stroke-width: 0.8; stroke-linejoin: miter; stroke-linecap: square"/>
   </g>
   <g id="text_13">
    <!-- Yagi Beam Azimuth Pattern (relative gain) -->
    <g transform="translate(70.06625 16.318125) scale(0.12 -0.12)">
     <defs>
      <path id="DejaVuSans-59" d="M -13 4666 
L 666 4666 
L 1959 2747 
L 3244 4666 
L 3922 4666 
L 2272 2222 
L 2272 0 
L 1638 0 
L 1638 2222 
L -13 4666 
z
" transform="scale(0.015625)"/>
      <path id="DejaVuSans-67" d="M 2906 1791 
Q 2906 2416 2648 2759 
Q 2391 3103 1925 3103 
Q 1463 3103 1205 2759 
Q 947 2416 947 1791 
Q 947 1169 1205 825 
Q 1463 481 1925 481 
Q 2391 481 2648 825 
Q 2906 1169 2906 1791 
z
M 3481 434 
Q 3481 -459 3084 -895 
Q 2688 -1331 1869 -1331 
Q 1566 -1331 1297 -1286 
Q 1028 -1241 775 -1147 
L 775 -588 
Q 1028 -725 1275 -790 
Q 1522 -856 1778 -856 
Q 2344 -856 2625 -561 
Q 2906 -266 2906 331 
L 2906 616 
Q 2728 306 2450 153 
Q 2172 0 1784 0 
Q 1141 0 747 490 
Q 353 981 353 1791 
Q 353 2603 747 3093 
Q 1141 3584 1784 3584 
Q 2172 3584 2450 3431 
Q 2728 3278 2906 2969 
L 2906 3500 
L 3481 3500 
L 3481 434 
z
" transform="scale(0.015625)"/>
      <path id="DejaVuSans-69" d="M 603 3500 
L 1178 3500 
L 1178 0 
L 603 0 
L 603 3500 
z
M 603 4863 
L 1178 4863 
L 1178 4134 
L 603 4134 
L 603 4863 
z
" transform="scale(0.015625)"/>
      <path id="DejaVuSans-65" d="M 3597 1894 
L 3597 1613 
L 953 1613 
Q 991 1019 1311 708 
Q 1631 397 2203 397 
Q 2534 397 2845 478 
Q 3156 559 3463 722 
L 3463 178 
Q 3153 47 2828 -22 
Q 2503 -91 2169 -91 
Q 1331 -91 842 396 
Q 353 884 353 1716 
Q 353 2575 817 3079 
Q 1281 3584 2069 3584 
Q 2775 3584 3186 3129 
Q 3597 2675 3597 1894 
z
M 3022 2063 
Q 3016 2534 2758 2815 
Q 2500 3097 2075 3097 
Q 1594 3097 1305 2825 
Q 1016 2553 972 2059 
L 3022 2063 
z
" transform="scale(0.015625)"/>
      <path id="DejaVuSans-6d" d="M 3328 2828 
Q 3544 3216 3844 3400 
Q 4144 3584 4550 3584 
Q 5097 3584 5394 3201 
Q 5691 2819 5691 2113 
L 5691 0 
L 5113 0 
L 5113 2094 
Q 5113 2597 4934 2840 
Q 4756 3084 4391 3084 
Q 3944 3084 3684 2787 
Q 3425 2491 3425 1978 
L 3425 0 
L 2847 0 
L 2847 2094 
Q 2847 2600 2669 2842 
Q 2491 3084 2119 3084 
Q 1678 3084 1418 2786 
Q 1159 2488 1159 1978 
L 1159 0 
L 581 0 
L 581 3500 
L 1159 3500 
L 1159 2956 
Q 1356 3278 1631 3431 
Q 1906 3584 2284 3584 
Q 2666 3584 2933 3390 
Q 3200 3197 3328 2828 
z
" transform="scale(0.015625)"/>
      <path id="DejaVuSans-41" d="M 2188 4044 
L 1331 1722 
L 3047 1722 
L 2188 4044 
z
M 1831 4666 
L 2547 4666 
L 4325 0 
L 3669 0 
L 3244 1197 
L 1141 1197 
L 716 0 
L 50 0 
L 1831 4666 
z
" transform="scale(0.015625)"/>
      <path id="DejaVuSans-7a" d="M 353 3500 
L 3084 3500 
L 3084 2975 
L 922 459 
L 3084 459 
L 3084 0 
L 275 0 
L 275 525 
L 2438 3041 
L 353 3041 
L 353 3500 
z
" transform="scale(0.015625)"/>
      <path id="DejaVuSans-75" d="M 544 1381 
L 544 3500 
L 1119 3500 
L 1119 1403 
Q 1119 906 1312 657 
Q 1506 409 1894 409 
Q 2359 409 2629 706 
Q 2900 1003 2900 1516 
L 2900 3500 
L 3475 3500 
L 3475 0 
L 2900 0 
L 2900 538 
Q 2691 219 2414 64 
Q 2138 -91 1772 -91 
Q 1169 -91 856 284 
Q 544 659 544 1381 
z
M 1991 3584 
L 1991 3584 
z
" transform="scale(0.015625)"/>
      <path id="DejaVuSans-74" d="M 1172 4494 
L 1172 3500 
L 2356 3500 
L 2356 3053 
L 1172 3053 
L 1172 1153 
Q 1172 725 1289 603 
Q 1406 481 1766 481 
L 2356 481 
L 2356 0 
L 1766 0 
Q 1100 0 847 248 
Q 594 497 594 1153 
L 594 3053 
L 172 3053 
L 172 3500 
L 594 3500 
L 594 4494 
L 1172 4494 
z
" transform="scale(0.015625)"/>
      <path id="DejaVuSans-68" d="M 3513 2113 
L 3513 0 
L 2938 0 
L 2938 2094 
Q 2938 2591 2744 2837 
Q 2550 3084 2163 3084 
Q 1697 3084 1428 2787 
Q 1159 2491 1159 1978 
L 1159 0 
L 581 0 
L 581 4863 
L 1159 4863 
L 1159 2956 
Q 1366 3272 1645 3428 
Q 1925 3584 2291 3584 
Q 2894 3584 3203 3211 
Q 3513 2838 3513 2113 
z
" transform="scale(0.015625)"/>
      <path id="DejaVuSans-50" d="M 1259 4147 
L 1259 2394 
L 2053 2394 
Q 2494 2394 2734 2622 
Q 2975 2850 2975 3272 
Q 2975 3691 2734 3919 
Q 2494 4147 2053 4147 
L 1259 4147 
z
M 628 4666 
L 2053 4666 
Q 2838 4666 3239 4311 
Q 3641 3956 3641 3272 
Q 3641 2581 3239 2228 
Q 2838 1875 2053 1875 
L 1259 1875 
L 1259 0 
L 628 0 
L 628 4666 
z
" transform="scale(0.015625)"/>
      <path id="DejaVuSans-6e" d="M 3513 2113 
L 3513 0 
L 2938 0 
L 2938 2094 
Q 2938 2591 2744 2837 
Q 2550 3084 2163 3084 
Q 1697 3084 1428 2787 
Q 1159 2491 1159 1978 
L 1159 0 
L 581 0 
L 581 3500 
L 1159 3500 
L 1159 2956 
Q 1366 3272 1645 3428 
Q 1925 3584 2291 3584 
Q 2894 3584 3203 3211 
Q 3513 2838 3513 2113 
z
" transform="scale(0.015625)"/>
      <path id="DejaVuSans-6c" d="M 603 4863 
L 1178 4863 
L 1178 0 
L 603 0 
L 603 4863 
z
" transform="scale(0.015625)"/>
      <path id="DejaVuSans-76" d="M 191 3500 
L 800 3500 
L 1894 563 
L 2988 3500 
L 3597 3500 
L 2284 0 
L 1503 0 
L 191 3500 
z
" transform="scale(0.015625)"/>
     </defs>
     <use xlink:href="#DejaVuSans-59"/>
     <use xlink:href="#DejaVuSans-61" transform="translate(47.333984 0)"/>
     <use xlink:href="#DejaVuSans-67" transform="translate(108.613281 0)"/>
     <use xlink:href="#DejaVuSans-69" transform="translate(172.089844 0)"/>
     <use xlink:href="#DejaVuSans-20" transform="translate(199.873047 0)"/>
     <use xlink:href="#DejaVuSans-42" transform="translate(231.660156 0)"/>
     <use xlink:href="#DejaVuSans-65" transform="translate(300.263672 0)"/>
     <use xlink:href="#DejaVuSans-61" transform="translate(361.787109 0)"/>
     <use xlink:href="#DejaVuSans-6d" transform="translate(423.066406 0)"/>
     <use xlink:href="#DejaVuSans-20" transform="translate(520.478516 0)"/>
     <use xlink:href="#DejaVuSans-41" transform="translate(552.265625 0)"/>
     <use xlink:href="#DejaVuSans-7a" transform="translate(620.673828 0)"/>
     <use xlink:href="#DejaVuSans-69" transform="translate(673.164062 0)"/>
     <use xlink:href="#DejaVuSans-6d" transform="translate(700.947266 0)"/>
     <use xlink:href="#DejaVuSans-75" transform="translate(798.359375 0)"/>
     <use xlink:href="#DejaVuSans-74" transform="translate(861.738281 0)"/>
     <use xlink:href="#DejaVuSans-68" transform="translate(900.947266 0)"/>
     <use xlink:href="#DejaVuSans-20" transform="translate(964.326172 0)"/>
     <use xlink:href="#DejaVuSans-50" transform="translate(996.113281 0)"/>
     <use xlink:href="#DejaVuSans-61" transform="translate(1051.916016 0)"/>
     <use xlink:href="#DejaVuSans-74" transform="translate(1113.195312 0)"/>
     <use xlink:href="#DejaVuSans-74" transform="translate(1152.404297 0)"/>
     <use xlink:href="#DejaVuSans-65" transform="translate(1191.613281 0)"/>
     <use xlink:href="#DejaVuSans-72" transform="translate(1253.136719 0)"/>
     <use xlink:href="#DejaVuSans-6e" transform="translate(1292.5 0)"/>
     <use xlink:href="#DejaVuSans-20" transform="translate(1355.878906 0)"/>
     <use xlink:href="#DejaVuSans-28" transform="translate(1387.666016 0)"/>
     <use xlink:href="#DejaVuSans-72" transform="translate(1426.679688 0)"/>
     <use xlink:href="#DejaVuSans-65" transform="translate(1465.542969 0)"/>
     <use xlink:href="#DejaVuSans-6c" transform="translate(1527.066406 0)"/>
     <use xlink:href="#DejaVuSans-61" transform="translate(1554.849609 0)"/>
     <use xlink:href="#DejaVuSans-74" transform="translate(1616.128906 0)"/>
     <use xlink:href="#DejaVuSans-69" transform="translate(1655.337891 0)"/>
     <use xlink:href="#DejaVuSans-76" transform="translate(1683.121094 0)"/>
     <use xlink:href="#DejaVuSans-65" transform="translate(1742.300781 0)"/>
     <use xlink:href="#DejaVuSans-20" transform="translate(1803.824219 0)"/>
     <use xlink:href="#DejaVuSans-67" transform="translate(1835.611328 0)"/>
     <use xlink:href="#DejaVuSans-61" transform="translate(1899.087891 0)"/>
     <use xlink:href="#DejaVuSans-69" transform="translate(1960.367188 0)"/>
     <use xlink:href="#DejaVuSans-6e" transform="translate(1988.150391 0)"/>
     <use xlink:href="#DejaVuSans-29" transform="translate(2051.529297 0)"/>
    </g>
   </g>
  </g>
 </g>
 <defs>
  <clipPath id="p8fc29c34e3">
   <path d="M 361.81625 224.032297 
C 361.81625 202.191355 357.514061 180.562788 349.155894 160.384388 
C 340.797727 140.205989 328.546128 121.870175 313.10225 106.426297 
C 297.658371 90.982419 279.322558 78.73082 259.144158 70.372653 
C 238.965759 62.014486 217.337192 57.712297 195.49625 57.712297 
C 173.655308 57.712297 152.026741 62.014486 131.848342 70.372653 
C 111.669942 78.73082 93.334129 90.982419 77.89025 106.426297 
C 62.446372 121.870175 50.194773 140.205989 41.836606 160.384388 
C 33.478439 180.562788 29.17625 202.191355 29.17625 224.032297 
C 29.17625 245.873239 33.478439 267.501806 41.836606 287.680205 
C 50.194773 307.858605 62.446372 326.194418 77.89025 341.638297 
C 93.334129 357.082175 111.669942 369.333774 131.848342 377.691941 
C 152.026741 386.050107 173.655308 390.352297 195.49625 390.352297 
C 217.337192 390.352297 238.965759 386.050107 259.144158 377.691941 
C 279.322558 369.333774 297.658371 357.082175 313.10225 341.638297 
C 328.546128 326.194418 340.797727 307.858605 349.155894 287.680205 
C 357.514061 267.501806 361.81625 245.873239 361.81625 224.032297 
M 195.49625 224.032297 
C 195.49625 224.032297 195.49625 224.032297 195.49625 224.032297 
C 195.49625 224.032297 195.49625 224.032297 195.49625 224.032297 
C 195.49625 224.032297 195.49625 224.032297 195.49625 224.032297 
C 195.49625 224.032297 195.49625 224.032297 195.49625 224.032297 
C 195.49625 224.032297 195.49625 224.032297 195.49625 224.032297 
C 195.49625 224.032297 195.49625 224.032297 195.49625 224.032297 
C 195.49625 224.032297 195.49625 224.032297 195.49625 224.032297 
C 195.49625 224.032297 195.49625 224.032297 195.49625 224.032297 
C 195.49625 224.032297 195.49625 224.032297 195.49625 224.032297 
C 195.49625 224.032297 195.49625 224.032297 195.49625 224.032297 
C 195.49625 224.032297 195.49625 224.032297 195.49625 224.032297 
C 195.49625 224.032297 195.49625 224.032297 195.49625 224.032297 
C 195.49625 224.032297 195.49625 224.032297 195.49625 224.032297 
C 195.49625 224.032297 195.49625 224.032297 195.49625 224.032297 
C 195.49625 224.032297 195.49625 224.032297 195.49625 224.032297 
C 195.49625 224.032297 195.49625 224.032297 195.49625 224.032297 
z
"/>
  </clipPath>
 </defs>
</svg>
